<?xml version="1.0" encoding="UTF-8" standalone="no"?>
<!--suppress ALL -->
<svg
   xmlns:dc="http://purl.org/dc/elements/1.1/"
   xmlns:cc="http://creativecommons.org/ns#"
   xmlns:rdf="http://www.w3.org/1999/02/22-rdf-syntax-ns#"
   xmlns:svg="http://www.w3.org/2000/svg"
   xmlns="http://www.w3.org/2000/svg"
   xmlns:sodipodi="http://sodipodi.sourceforge.net/DTD/sodipodi-0.dtd"
   xmlns:inkscape="http://www.inkscape.org/namespaces/inkscape"
   xml:space="preserve"
   viewBox="0 0 149.97325 265.93372"
   id="svg2"
   sodipodi:version="0.32"
   inkscape:version="0.91 r13725"
   sodipodi:docname="celtic_harp.svg"
   version="1.1"><metadata
     id="metadata35"><rdf:RDF><cc:Work
         rdf:about=""><dc:format>image/svg+xml</dc:format><dc:type
           rdf:resource="http://purl.org/dc/dcmitype/StillImage" /><dc:title></dc:title></cc:Work></rdf:RDF></metadata><defs
     id="defs33" /><sodipodi:namedview
     inkscape:window-height="724"
     inkscape:window-width="1280"
     inkscape:pageshadow="2"
     inkscape:pageopacity="0.0"
     guidetolerance="10.0"
     gridtolerance="10.0"
     objecttolerance="10.0"
     borderopacity="1.0"
     bordercolor="#666666"
     pagecolor="#ffffff"
     id="base"
     inkscape:zoom="1.2566667"
     inkscape:cx="144.28886"
     inkscape:cy="129.90193"
     inkscape:window-x="-4"
     inkscape:window-y="0"
     inkscape:current-layer="svg2"
     showgrid="false"
     inkscape:window-maximized="0"
     fit-margin-top="0"
     fit-margin-left="0"
     fit-margin-right="0"
     fit-margin-bottom="0" /><g
     id="g6"
     transform="matrix(-1.451801,0,0,-1.451801,399.02437,353.21716)"
     style="stroke:#d9d9d9;stroke-width:2px"><path
       d="m 187,77 c -37,67 3,125 30,150 8,9 -1,8 -4,8 l 0,6 10,-2 c 6,5 17,9 22,-15 l 26,-1 c 1,-42 7,-95 0,-141 -4,-25 -22,-17 -28,-13 -20,11 -27,7 -36,-2 -10,-12 -18,-5 -25,4 l 5,6 z m 11,10 c -27,45 -7,99 20,118 L 250,98 c 1,-5 4,-9 8,-9 1,-9 -4,-18 -12,-9 -10,12 -29,12 -48,7 z"
       id="path8"
       style="fill:grey;fill-rule:evenodd"
       inkscape:connector-curvature="0" /><line
       x1="223"
       y1="239"
       x2="258"
       y2="89"
       id="line10" /><path
       d="m 218,205 27,19 19,-131"
       id="path12"
       style="fill:none"
       inkscape:connector-curvature="0" /><line
       x1="198"
       y1="87"
       x2="187"
       y2="77"
       id="line14" /><path
       d="m 258,89 c 6,5 9,5 14,1"
       id="path16"
       style="fill:none"
       inkscape:connector-curvature="0" /></g><g
     id="g18"
     transform="matrix(-1.669327,0,0,-1.669327,446.07767,377.17002)"
     style="stroke:#d9d9d9"><line
       x1="224"
       y1="190"
       x2="201"
       y2="87"
       id="line20"
       style="stroke-width:2px;" /><line
       x1="229"
       y1="173"
       x2="208"
       y2="87"
       id="line22"
       style="stroke-width:2px;" /><line
       x1="233"
       y1="159"
       x2="215"
       y2="88"
       id="line24"
       style="stroke-width:2px;" /><line
       x1="237"
       y1="145"
       x2="223"
       y2="88"
       id="line26"
       style="stroke-width:2px;" /><line
       x1="243"
       y1="127"
       x2="232"
       y2="88"
       id="line28"
       style="stroke-width:2px;" /><line
       x1="247"
       y1="112"
       x2="238"
       y2="84"
       id="line30"
       style="stroke-width:2px;" /></g></svg>