<?xml version="1.0" encoding="UTF-8" standalone="no"?><!-- Created with Inkscape (http://www.inkscape.org/) -->
<svg xmlns:inkscape="http://www.inkscape.org/namespaces/inkscape"
    xmlns:rdf="http://www.w3.org/1999/02/22-rdf-syntax-ns#" xmlns="http://www.w3.org/2000/svg"
    xmlns:cc="http://web.resource.org/cc/" xmlns:dc="http://purl.org/dc/elements/1.1/"
    xmlns:sodipodi="http://sodipodi.sourceforge.net/DTD/sodipodi-0.dtd" id="svg11860"
    sodipodi:docname="Gibson Flying V.svg" viewBox="0 0 353.21 928.49" sodipodi:version="0.32"
    version="1.0" inkscape:output_extension="org.inkscape.output.svg.inkscape"
    inkscape:version="0.45.1" sodipodi:docbase="/home/zhite/Desktop">
    <sodipodi:namedview id="base" bordercolor="#666666" inkscape:pageshadow="2" guidetolerance="10"
        pagecolor="#ffffff" gridtolerance="10000" inkscape:window-height="581"
        inkscape:zoom="0.24748737" objecttolerance="10" borderopacity="1.0"
        inkscape:current-layer="layer1" inkscape:cx="962.10898" inkscape:cy="601.7037"
        inkscape:window-y="102" inkscape:window-x="63" inkscape:window-width="697"
        inkscape:pageopacity="0.0" inkscape:document-units="px" />
    <g id="layer1" inkscape:label="Layer 1" inkscape:groupmode="layer"
        transform="translate(-183.17 -51.907)">
        <g id="g17399">
            <path id="path16426" sodipodi:nodetypes="cccccccccccc"
                style="fill-rule:evenodd;stroke:#000000;stroke-width:1px;fill:#262523"
                d="m326.78 538.7c-5.61 10.93-6.09 23.32-20.2 31.82l-121.72 379.31c-6.26 21.23 13.5 31.12 27.27 21.21l114.65-136.37c20.1-23.37 40.99-15.82 53.04 0l123.24 140.92c17.46 14.12 41.29-9.27 29.8-29.8l-134.86-375.27c-13.62-7.64-17.2-21-21.72-33.84l-4.54-12.12-44.96 14.14z" />
            <path id="path16428" sodipodi:nodetypes="cccccccccc"
                style="stroke-linejoin:round;fill-rule:evenodd;stroke:#000000;stroke-linecap:round;stroke-width:1px;fill:#fefaf7"
                d="m305.57 594.26h87.88l106.07 310.62-106.57-72.72-0.51-74.76c-1.94-2.73-4.62-4.54-8.46-4.89h-65.28l-55.56 53.37c-2.97 2-4.43 1.23-4.54-2.02l46.97-209.6z" />
            <path id="path15417" sodipodi:nodetypes="ccccccccc"
                style="fill-rule:evenodd;stroke:#000000;stroke-width:1px;fill:#d9d397"
                d="m383.61 148.05l6.06-0.75v-3.03l12.88-3.54c1.84 3.19 2.75 7.24 1.51 11.87l-12.63 1.26-0.5-2.02-6.57 0.76-0.75-4.55z" />
            <path id="path15419" sodipodi:nodetypes="ccccccccc"
                style="fill-rule:evenodd;stroke:#000000;stroke-width:1px;fill:#d9d397"
                d="m376.03 122.05l6.06-0.75v-3.03l12.88-3.54c1.84 3.19 2.75 7.24 1.51 11.87l-12.62 1.26-0.51-2.02-6.56 0.76-0.76-4.55z" />
            <path id="path15421" sodipodi:nodetypes="ccccccccc"
                style="fill-rule:evenodd;stroke:#000000;stroke-width:1px;fill:#d9d397"
                d="m368.96 100.05l6.06-0.754v-3.03l12.88-3.536c1.84 3.187 2.75 7.242 1.51 11.87l-12.62 1.26-0.51-2.02-6.56 0.76-0.76-4.55z" />
            <path id="path15423" sodipodi:nodetypes="ccccccccc"
                style="fill-rule:evenodd;stroke:#000000;stroke-width:1px;fill:#d9d397"
                d="m329.88 100.05l-6.06-0.754v-3.03l-12.88-3.536c-1.84 3.187-2.76 7.242-1.52 11.87l12.63 1.26 0.5-2.02 6.57 0.76 0.76-4.55z" />
            <path id="path15425" sodipodi:nodetypes="ccccccccc"
                style="fill-rule:evenodd;stroke:#000000;stroke-width:1px;fill:#d9d397"
                d="m320.79 122.05l-6.06-0.75v-3.03l-12.88-3.54c-1.84 3.19-2.76 7.24-1.52 11.87l12.63 1.26 0.5-2.02 6.57 0.76 0.76-4.55z" />
            <path id="path15427" sodipodi:nodetypes="ccccccccc"
                style="fill-rule:evenodd;stroke:#000000;stroke-width:1px;fill:#d9d397"
                d="m315.23 148.05l-6.06-0.75v-3.03l-12.88-3.54c-1.84 3.19-2.75 7.24-1.51 11.87l12.62 1.26 0.51-2.02 6.56 0.76 0.76-4.55z" />
            <rect id="rect14379"
                style="fill-rule:evenodd;stroke:#000000;stroke-width:2.1005;fill:#e3dedb"
                transform="matrix(.99853 -.054238 .053784 .99855 0 0)" ry="8.8805" height="18.926"
                width="76.863" y="745.61" x="270.69" />
            <path id="path14381" sodipodi:rx="3.125" sodipodi:ry="3.125"
                style="fill-rule:evenodd;stroke:#000000;stroke-width:.2;fill:#cccccc"
                sodipodi:type="arc"
                d="m333.39 369.59a3.125 3.125 0 1 1 -6.25 0 3.125 3.125 0 1 1 6.25 0z"
                transform="matrix(1.5117 .0015515 .0018859 1.5499 -179.58 165.13)"
                sodipodi:cy="369.59433" sodipodi:cx="330.26785" />
            <path id="path14383" sodipodi:rx="3.125" sodipodi:ry="3.125"
                style="fill-rule:evenodd;stroke:#000000;stroke-width:.2;fill:#cccccc"
                sodipodi:type="arc"
                d="m333.39 369.59a3.125 3.125 0 1 1 -6.25 0 3.125 3.125 0 1 1 6.25 0z"
                transform="matrix(1.5117 .0015515 .0018859 1.5499 -122.51 162.03)"
                sodipodi:cy="369.59433" sodipodi:cx="330.26785" />
            <rect id="rect32028" ry="8.0136"
                style="fill-rule:evenodd;stroke:#000000;stroke-width:2.1062;fill:#e3dedb"
                transform="matrix(1 .00086393 .0014455 1 0 0)" height="17.079" width="85.643"
                y="763.54" x="304.81" />
            <rect id="rect14375"
                style="fill-rule:evenodd;stroke:#000000;stroke-width:2.2023;fill:#1a1a1a"
                transform="matrix(1 .0010263 .0012168 1 0 0)" ry="4.4014" height="33.449"
                width="59.036" y="644.43" x="319.49" />
            <g id="g15399" transform="translate(1.0102 39.901)">
                <rect id="rect15401" style="fill:#333333" ry="6.9448" height="14.142" width="56.569"
                    y="606.38" x="320.22" />
                <rect id="rect15403" style="fill:#333333" ry="6.6968" height="13.637" width="56.569"
                    y="622.54" x="320.22" />
            </g>
            <rect id="rect14377" ry="4.4014"
                style="fill-rule:evenodd;stroke:#000000;stroke-width:2.2023;fill:#1a1a1a"
                transform="matrix(1 .0010263 .0012168 1 0 0)" height="33.449" width="59.036"
                y="604.53" x="319.54" />
            <path id="path2545" sodipodi:nodetypes="ccccccc"
                style="stroke-linejoin:round;fill-rule:evenodd;fill-opacity:.99487;stroke:#000000;stroke-linecap:round;stroke-width:.89851;fill:#000000"
                d="m330.35 201.17l36.77-0.04c2.59-24.16 25.06-32.09 25.06-32.09l-33.58-110.62c-3.48-9.279-18.81-6.902-21.09 0.371l-30.89 112.05s23.68 10.13 23.73 30.33z" />
            <rect id="rect32026" ry="4.4014"
                style="fill-rule:evenodd;stroke:#000000;stroke-width:2.2023;fill:#1a1a1a"
                transform="matrix(1 .0010263 .0012168 1 0 0)" height="33.449" width="59.036"
                y="684.84" x="319.44" />
            <g id="g15405" transform="translate(1.0102 80.812)">
                <rect id="rect15407" style="fill:#333333" ry="6.9448" height="14.142" width="56.569"
                    y="606.38" x="320.22" />
                <rect id="rect15409" style="fill:#333333" ry="6.6968" height="13.637" width="56.569"
                    y="622.54" x="320.22" />
            </g>
            <g id="g15395" transform="translate(1.0102)">
                <rect id="rect15369" style="fill:#333333" ry="6.9448" height="14.142" width="56.569"
                    y="606.38" x="320.22" />
                <rect id="rect15371" style="fill:#333333" ry="6.6968" height="13.637" width="56.569"
                    y="622.54" x="320.22" />
            </g>
            <path id="path32032"
                style="fill-rule:evenodd;stroke:#000000;stroke-width:2.0571px;fill:#808080"
                d="m331.41 200.78l-6.71 392.39 47.2 0.05-5.61-392.41-34.88-0.03z" />
            <rect id="rect32064" ry=".16186" style="fill-rule:evenodd;stroke-width:0;fill:#ffffff"
                transform="matrix(1 .0010263 .0012168 1 0 0)" height="4.8353" width="28.66"
                y="569.48" x="332.97" />
            <rect id="rect32066" ry=".16186" style="fill-rule:evenodd;stroke-width:0;fill:#ffffff"
                transform="matrix(1 .0010263 .0012168 1 0 0)" height="4.8353" width="27.209"
                y="549.39" x="334.05" />
            <rect id="rect32068" ry=".21166" style="fill-rule:evenodd;stroke-width:0;fill:#ffffff"
                transform="matrix(1 .0010263 .0012168 1 0 0)" height="6.3231" width="27.572"
                y="527.07" x="332.97" />
            <rect id="rect32070" ry=".27391" style="fill-rule:evenodd;stroke-width:0;fill:#ffffff"
                transform="matrix(1 .0010263 .0012168 1 0 0)" height="8.1828" width="27.209"
                y="501.78" x="332.6" />
            <rect id="rect32072" ry=".32371" style="fill-rule:evenodd;stroke-width:0;fill:#ffffff"
                transform="matrix(1 .0010263 .0012168 1 0 0)" height="9.6706" width="26.846"
                y="457.15" x="332.24" />
            <rect id="rect32074" ry=".62252" style="fill-rule:evenodd;stroke-width:0;fill:#ffffff"
                transform="matrix(1 .0010263 .0012168 1 0 0)" height="18.597" width="19.228"
                y="317.67" x="338.04" />
            <rect id="rect32076" ry=".32371"
                style="fill-rule:evenodd;stroke:#000000;stroke-width:1.0285;fill:#cccccc"
                transform="matrix(1 .0010263 .0012168 1 0 0)" height="5.2073" width="37.729"
                y="199.47" x="329.88" />
            <rect id="rect32080" ry=".69722" style="fill-rule:evenodd;stroke-width:0;fill:#ffffff"
                transform="matrix(1 .0010263 .0012168 1 0 0)" height="20.829" width="19.228"
                y="209.8" x="339.31" />
            <rect id="rect32082" ry=".69722" style="fill-rule:evenodd;stroke-width:0;fill:#ffffff"
                transform="matrix(1 .0010263 .0012168 1 0 0)" height="20.829" width="19.228"
                y="265.6" x="338.77" />
            <rect id="rect32084" ry=".52292" style="fill-rule:evenodd;stroke-width:0;fill:#ffffff"
                transform="matrix(1 .0010263 .0012168 1 0 0)" height="15.622" width="19.228"
                y="363.05" x="337.68" />
            <rect id="rect32086" ry=".42331" style="fill-rule:evenodd;stroke-width:0;fill:#ffffff"
                transform="matrix(1 .0010263 .0012168 1 0 0)" height="12.646" width="19.228"
                y="403.59" x="337.68" />
            <g id="g14299" style="fill:#cccccc"
                transform="matrix(1.2518 .012682 -.0094709 1.2919 -512.77 34.672)">
                <rect id="rect32034"
                    style="fill-rule:evenodd;stroke:#000000;stroke-width:.36516;fill:#cccccc"
                    transform="matrix(.99996 -.0088215 .0088214 .99996 0 0)" ry=".24152"
                    height="1.11" width="37.922" y="425.06" x="667.82" />
                <rect id="rect32036"
                    style="fill-rule:evenodd;stroke:#000000;stroke-width:.36276;fill:#cccccc"
                    transform="matrix(.99996 -.0088215 .0088214 .99996 0 0)" ry=".24204"
                    height="1.1124" width="37.345" y="418.73" x="668.11" />
                <rect id="rect32038"
                    style="fill-rule:evenodd;stroke:#000000;stroke-width:.36516;fill:#cccccc"
                    transform="matrix(.99996 -.0088215 .0088214 .99996 0 0)" ry=".24152"
                    height="1.11" width="37.922" y="411.24" x="667.53" />
                <rect id="rect32040"
                    style="fill-rule:evenodd;stroke:#000000;stroke-width:.36516;fill:#cccccc"
                    transform="matrix(.99996 -.0088215 .0088214 .99996 0 0)" ry=".24152"
                    height="1.11" width="37.922" y="403.76" x="667.53" />
                <rect id="rect32042"
                    style="fill-rule:evenodd;stroke:#000000;stroke-width:.36276;fill:#cccccc"
                    transform="matrix(.99996 -.0088215 .0088214 .99996 0 0)" ry=".24204"
                    height="1.1124" width="37.345" y="395.41" x="668.4" />
                <rect id="rect32044"
                    style="fill-rule:evenodd;stroke:#000000;stroke-width:.36155;fill:#cccccc"
                    transform="matrix(.99996 -.0088215 .0088214 .99996 0 0)" ry=".24230"
                    height="1.1136" width="37.056" y="386.77" x="668.69" />
                <rect id="rect32046"
                    style="fill-rule:evenodd;stroke:#000000;stroke-width:.36396;fill:#cccccc"
                    transform="matrix(.99996 -.0088215 .0088214 .99996 0 0)" ry=".24177"
                    height="1.1112" width="37.634" y="378.14" x="668.4" />
                <rect id="rect32048"
                    style="fill-rule:evenodd;stroke:#000000;stroke-width:.36033;fill:#cccccc"
                    transform="matrix(.99996 -.0088215 .0088214 .99996 0 0)" ry=".24256"
                    height="1.1148" width="36.768" y="368.63" x="668.98" />
                <rect id="rect32050"
                    style="fill-rule:evenodd;stroke:#000000;stroke-width:.36033;fill:#cccccc"
                    transform="matrix(.99996 -.0088215 .0088214 .99996 0 0)" ry=".24256"
                    height="1.1148" width="36.768" y="357.98" x="669.27" />
                <rect id="rect32052"
                    style="fill-rule:evenodd;stroke:#000000;stroke-width:.35789;fill:#cccccc"
                    transform="matrix(.99996 -.0088215 .0088214 .99996 0 0)" ry=".24309"
                    height="1.1173" width="36.191" y="347.33" x="669.27" />
                <rect id="rect32054"
                    style="fill-rule:evenodd;stroke:#000000;stroke-width:.35039;fill:#cccccc"
                    transform="matrix(.99996 -.0088215 .0088214 .99996 0 0)" ry=".24472"
                    height="1.1247" width="34.459" y="335.52" x="670.13" />
                <rect id="rect32056"
                    style="fill-rule:evenodd;stroke:#000000;stroke-width:.35165;fill:#cccccc"
                    transform="matrix(.99996 -.0088215 .0088214 .99996 0 0)" ry=".24444"
                    height="1.1235" width="34.748" y="324.3" x="669.85" />
                <rect id="rect32058"
                    style="fill-rule:evenodd;stroke:#000000;stroke-width:.35417;fill:#cccccc"
                    transform="matrix(.99996 -.0088215 .0088214 .99996 0 0)" ry=".24390"
                    height="1.121" width="35.325" y="311.05" x="669.85" />
                <rect id="rect32060"
                    style="fill-rule:evenodd;stroke:#000000;stroke-width:.33463;fill:#cccccc"
                    transform="matrix(.99996 -.0088215 .0088214 .99996 0 0)" ry=".24813"
                    height="1.1404" width="30.998" y="176.32" x="672.45" />
                <rect id="rect32062"
                    style="fill-rule:evenodd;stroke:#000000;stroke-width:.32914;fill:#cccccc"
                    transform="matrix(.99996 -.0088215 .0088214 .99996 0 0)" ry=".24933"
                    height="1.1459" width="29.844" y="154.43" x="673.17" />
                <rect id="rect32088"
                    style="fill-rule:evenodd;stroke:#000000;stroke-width:.34264;fill:#cccccc"
                    transform="matrix(.99996 -.0088215 .0088214 .99996 0 0)" ry=".24640"
                    height="1.1325" width="32.728" y="215.76" x="671.58" />
                <rect id="rect32090"
                    style="fill-rule:evenodd;stroke:#000000;stroke-width:.33599;fill:#cccccc"
                    transform="matrix(.99996 -.0088215 .0088214 .99996 0 0)" ry=".24784"
                    height="1.1391" width="31.286" y="196.47" x="672.45" />
                <rect id="rect32092"
                    style="fill-rule:evenodd;stroke:#000000;stroke-width:0.34;fill:#cccccc"
                    transform="matrix(.99996 -.0088215 .0088214 .99996 0 0)" ry=".24697"
                    height="1.1351" width="32.151" y="234.18" x="671.87" />
                <rect id="rect32094"
                    style="fill-rule:evenodd;stroke:#000000;stroke-width:.34264;fill:#cccccc"
                    transform="matrix(.99996 -.0088215 .0088214 .99996 0 0)" ry=".24640"
                    height="1.1325" width="32.728" y="251.46" x="671.29" />
                <rect id="rect32096"
                    style="fill-rule:evenodd;stroke:#000000;stroke-width:0.34;fill:#cccccc"
                    transform="matrix(.99996 -.0088215 .0088214 .99996 0 0)" ry=".24697"
                    height="1.1351" width="32.151" y="267.29" x="671" />
                <rect id="rect32098"
                    style="fill-rule:evenodd;stroke:#000000;stroke-width:.34911;fill:#cccccc"
                    transform="matrix(.99996 -.0088215 .0088214 .99996 0 0)" ry=".24499"
                    height="1.126" width="34.171" y="282.84" x="670.71" />
                <rect id="rect32100"
                    style="fill-rule:evenodd;stroke:#000000;stroke-width:.35039;fill:#cccccc"
                    transform="matrix(.99996 -.0088215 .0088214 .99996 0 0)" ry=".24472"
                    height="1.1247" width="34.459" y="297.23" x="670.42" />
            </g>
            <path id="path32102" sodipodi:nodetypes="ccc"
                style="stroke:#555555;stroke-width:1.0313;fill:none"
                d="m330.34 129.36l8.85 72.63-4.01 572.29" />
            <path id="path32122" sodipodi:rx="3.125" sodipodi:ry="3.125"
                style="fill-rule:evenodd;stroke:#000000;stroke-width:.2;fill:#cccccc"
                sodipodi:type="arc"
                d="m333.39 369.59a3.125 3.125 0 1 1 -6.25 0 3.125 3.125 0 1 1 6.25 0z"
                transform="matrix(1.8801 .0016243 .0023455 1.6227 -306.57 171.92)"
                sodipodi:cy="369.59433" sodipodi:cx="330.26785" />
            <path id="path32104" sodipodi:nodetypes="ccc"
                style="stroke:#555555;stroke-width:1.0321;fill:none"
                d="m373.98 153.99l-11.2 47.92 6.86 573.33" />
            <path id="path32124" sodipodi:rx="3.125" sodipodi:ry="3.125"
                style="fill-rule:evenodd;stroke:#000000;stroke-width:.2;fill:#cccccc"
                sodipodi:type="arc"
                d="m333.39 369.59a3.125 3.125 0 1 1 -6.25 0 3.125 3.125 0 1 1 6.25 0z"
                transform="matrix(1.8801 .0016243 .0023455 1.6227 -239.35 172.32)"
                sodipodi:cy="369.59433" sodipodi:cx="330.26785" />
            <path id="path32106" sodipodi:nodetypes="ccc"
                style="stroke:#555555;stroke-width:1.0312;fill:none"
                d="m367.77 128.97l-10.43 73.01 2.87 573.69" />
            <path id="path32108" sodipodi:nodetypes="ccc"
                style="stroke:#555555;stroke-width:1.0315;fill:none"
                d="m361.76 107.53l-10.59 93.88 0.33 573.15" />
            <path id="path32110" sodipodi:nodetypes="ccc"
                style="stroke:#555555;stroke-width:1.0318;fill:none"
                d="m336.28 106.68l8.72 96.66-1.48 571.37" />
            <path id="path32126" sodipodi:nodetypes="ccc"
                style="stroke:#555555;stroke-width:1.0308;fill:none"
                d="m324.37 154.44l9.67 47.33-6.19 572.9" />
            <rect id="rect32130" ry="5.6401" style="fill-rule:evenodd;fill:#b3b3b3"
                transform="matrix(1 .00086393 .0014455 1 0 0)" height="11.28" width="52.947"
                y="768.39" x="320.99" />
            <path id="path16408" sodipodi:rx="7.5761442" sodipodi:ry="7.5761442"
                style="fill:#d4caaf" sodipodi:type="arc"
                d="m423.51 132.37a7.5761 7.5761 0 1 1 -15.16 0 7.5761 7.5761 0 1 1 15.16 0z"
                transform="matrix(.71667 0 0 .71667 36.656 9.0705)" sodipodi:cy="132.36575"
                sodipodi:cx="415.9303" />
            <path id="path16410" sodipodi:rx="7.5761442" sodipodi:ry="7.5761442"
                style="fill:#d4caaf" sodipodi:type="arc"
                d="m423.51 132.37a7.5761 7.5761 0 1 1 -15.16 0 7.5761 7.5761 0 1 1 15.16 0z"
                transform="matrix(.71667 0 0 .71667 30.595 31.07)" sodipodi:cy="132.36575"
                sodipodi:cx="415.9303" />
            <path id="path16412" sodipodi:rx="7.5761442" sodipodi:ry="7.5761442"
                style="fill:#d4caaf" sodipodi:type="arc"
                d="m423.51 132.37a7.5761 7.5761 0 1 1 -15.16 0 7.5761 7.5761 0 1 1 15.16 0z"
                transform="matrix(.71667 0 0 .71667 23.524 57.07)" sodipodi:cy="132.36575"
                sodipodi:cx="415.9303" />
            <path id="path16414" sodipodi:rx="7.5761442" sodipodi:ry="7.5761442"
                style="fill:#d4caaf" sodipodi:type="arc"
                d="m423.51 132.37a7.5761 7.5761 0 1 1 -15.16 0 7.5761 7.5761 0 1 1 15.16 0z"
                transform="matrix(.71667 0 0 .71667 65.698 9.0705)" sodipodi:cy="132.36575"
                sodipodi:cx="415.9303" />
            <path id="path16416" sodipodi:rx="7.5761442" sodipodi:ry="7.5761442"
                style="fill:#d4caaf" sodipodi:type="arc"
                d="m423.51 132.37a7.5761 7.5761 0 1 1 -15.16 0 7.5761 7.5761 0 1 1 15.16 0z"
                transform="matrix(.71667 0 0 .71667 70.496 31.07)" sodipodi:cy="132.36575"
                sodipodi:cx="415.9303" />
            <path id="path16418" sodipodi:rx="7.5761442" sodipodi:ry="7.5761442"
                style="fill:#d4caaf" sodipodi:type="arc"
                d="m423.51 132.37a7.5761 7.5761 0 1 1 -15.16 0 7.5761 7.5761 0 1 1 15.16 0z"
                transform="matrix(.71667 0 0 .71667 78.072 57.07)" sodipodi:cy="132.36575"
                sodipodi:cx="415.9303" />
        </g>
    </g>
    <metadata>
        <rdf:RDF>
            <cc:Work>
                <dc:format>image/svg+xml
                </dc:format>
                <dc:type rdf:resource="http://purl.org/dc/dcmitype/StillImage" />
                <cc:license rdf:resource="http://creativecommons.org/licenses/publicdomain/" />
                <dc:publisher>
                    <cc:Agent rdf:about="http://openclipart.org/">
                        <dc:title>Openclipart
                        </dc:title>
                    </cc:Agent>
                </dc:publisher>
                <dc:title>Gibson Flying V
                </dc:title>
                <dc:date>2008-05-21T11:13:10
                </dc:date>
                <dc:description>A svg I made of a Gibson Flying V
                </dc:description>
                <dc:source>https://openclipart.org/detail/16882/gibson-flying-v-by-piemaster
                </dc:source>
                <dc:creator>
                    <cc:Agent>
                        <dc:title>Piemaster
                        </dc:title>
                    </cc:Agent>
                </dc:creator>
                <dc:subject>
                    <rdf:Bag>
                        <rdf:li>cartoon
                        </rdf:li>
                        <rdf:li>flying
                        </rdf:li>
                        <rdf:li>gibson
                        </rdf:li>
                        <rdf:li>guitar
                        </rdf:li>
                    </rdf:Bag>
                </dc:subject>
            </cc:Work>
            <cc:License rdf:about="http://creativecommons.org/licenses/publicdomain/">
                <cc:permits rdf:resource="http://creativecommons.org/ns#Reproduction" />
                <cc:permits rdf:resource="http://creativecommons.org/ns#Distribution" />
                <cc:permits rdf:resource="http://creativecommons.org/ns#DerivativeWorks" />
            </cc:License>
        </rdf:RDF>
    </metadata>
</svg>
