<?xml version="1.0" encoding="UTF-8" standalone="no"?>
<!-- Created with Inkscape (http://www.inkscape.org/) -->

<svg
   xmlns:dc="http://purl.org/dc/elements/1.1/"
   xmlns:cc="http://creativecommons.org/ns#"
   xmlns:rdf="http://www.w3.org/1999/02/22-rdf-syntax-ns#"
   xmlns:svg="http://www.w3.org/2000/svg"
   xmlns="http://www.w3.org/2000/svg"
   xmlns:xlink="http://www.w3.org/1999/xlink"
   xmlns:sodipodi="http://sodipodi.sourceforge.net/DTD/sodipodi-0.dtd"
   xmlns:inkscape="http://www.inkscape.org/namespaces/inkscape"
   id="svg2"
   version="1.0"
   viewBox="0 0 311.3699 1024.556"
   inkscape:version="0.91 r13725"
   sodipodi:docname="11949866761864951783guitar_jarno_vasamaa2.svg">
  <sodipodi:namedview
     pagecolor="#ffffff"
     bordercolor="#666666"
     borderopacity="1"
     objecttolerance="10"
     gridtolerance="10"
     guidetolerance="10"
     inkscape:pageopacity="0"
     inkscape:pageshadow="2"
     inkscape:window-width="1091"
     inkscape:window-height="602"
     id="namedview3490"
     showgrid="false"
     fit-margin-top="0"
     fit-margin-left="0"
     fit-margin-right="0"
     fit-margin-bottom="0"
     inkscape:zoom="0.31714785"
     inkscape:cx="197.84473"
     inkscape:cy="656.29161"
     inkscape:window-x="0"
     inkscape:window-y="0"
     inkscape:window-maximized="0"
     inkscape:current-layer="svg2" />
  <metadata
     id="metadata3411">
    <rdf:RDF>
      <cc:Work
         rdf:about="">
        <dc:title>guitar1</dc:title>
        <dc:description>electric guitar</dc:description>
        <dc:subject>
          <rdf:Bag>
            <rdf:li>musicstuff</rdf:li>
          </rdf:Bag>
        </dc:subject>
        <dc:publisher>
          <cc:Agent
             rdf:about="http://www.openclipart.org/">
            <dc:title>Open Clip Art Library</dc:title>
          </cc:Agent>
        </dc:publisher>
        <dc:creator>
          <cc:Agent>
            <dc:title>Jarno Vasamaa</dc:title>
          </cc:Agent>
        </dc:creator>
        <dc:rights>
          <cc:Agent>
            <dc:title>Jarno Vasamaa</dc:title>
          </cc:Agent>
        </dc:rights>
        <dc:date />
        <dc:format>image/svg+xml</dc:format>
        <dc:type
           rdf:resource="http://purl.org/dc/dcmitype/StillImage" />
        <cc:license
           rdf:resource="http://web.resource.org/cc/PublicDomain" />
        <dc:language>en</dc:language>
      </cc:Work>
      <cc:License
         rdf:about="http://web.resource.org/cc/PublicDomain">
        <cc:permits
           rdf:resource="http://web.resource.org/cc/Reproduction" />
        <cc:permits
           rdf:resource="http://web.resource.org/cc/Distribution" />
        <cc:permits
           rdf:resource="http://web.resource.org/cc/DerivativeWorks" />
      </cc:License>
    </rdf:RDF>
  </metadata>
  <defs
     id="defs3">
    <linearGradient
       id="linearGradient2238">
      <stop
         id="stop2240"
         offset="0.00000000"
         style="stop-color:#000000;stop-opacity:1.0000000;" />
      <stop
         id="stop2242"
         offset="1.0000000"
         style="stop-color:#ffffff;stop-opacity:1.0000000;" />
    </linearGradient>
    <linearGradient
       id="linearGradient2196">
      <stop
         id="stop2198"
         offset="0.00000000"
         style="stop-color:#000000;stop-opacity:0.66326529;" />
      <stop
         id="stop2200"
         offset="1.0000000"
         style="stop-color:#ffffff;stop-opacity:0.00000000;" />
    </linearGradient>
    <linearGradient
       id="linearGradient2176">
      <stop
         id="stop2178"
         offset="0.00000000"
         style="stop-color:#000000;stop-opacity:1.0000000;" />
      <stop
         id="stop2184"
         offset="0.64999998"
         style="stop-color:#5a5a5a;stop-opacity:1.0000000;" />
      <stop
         id="stop2186"
         offset="0.82499999"
         style="stop-color:#5a5a5a;stop-opacity:1.0000000;" />
      <stop
         id="stop2180"
         offset="1.0000000"
         style="stop-color:#1c1a1a;stop-opacity:1.0000000;" />
    </linearGradient>
    <linearGradient
       gradientTransform="matrix(2.609286,0,0,4.043931,-558.725,-1216.445)"
       gradientUnits="userSpaceOnUse"
       id="linearGradient2182"
       x1="335.68686"
       x2="287.33371"
       xlink:href="#linearGradient2176"
       y1="450.19324"
       y2="541.86292" />
    <linearGradient
       gradientTransform="matrix(3.564969,0,0,2.95985,-558.725,-1216.445)"
       gradientUnits="userSpaceOnUse"
       id="linearGradient2202"
       x1="243.38669"
       x2="252.48862"
       xlink:href="#linearGradient2196"
       y1="721.35486"
       y2="728.66895" />
    <linearGradient
       gradientUnits="userSpaceOnUse"
       id="linearGradient2226"
       x1="334.57349"
       x2="347.38266"
       xlink:href="#linearGradient2238"
       y1="420.74371"
       y2="424.90762" />
    <linearGradient
       gradientUnits="userSpaceOnUse"
       id="linearGradient2228"
       x1="336.49603"
       x2="349.30521"
       xlink:href="#linearGradient2238"
       y1="413.43799"
       y2="417.6019" />
    <linearGradient
       gradientUnits="userSpaceOnUse"
       id="linearGradient2230"
       x1="338.41867"
       x2="351.22784"
       xlink:href="#linearGradient2238"
       y1="406.51675"
       y2="410.68066" />
    <linearGradient
       gradientUnits="userSpaceOnUse"
       id="linearGradient2232"
       x1="340.34116"
       x2="353.15033"
       xlink:href="#linearGradient2238"
       y1="399.21103"
       y2="403.37494" />
    <linearGradient
       gradientUnits="userSpaceOnUse"
       id="linearGradient2234"
       x1="344.57077"
       x2="357.37994"
       xlink:href="#linearGradient2238"
       y1="385.36859"
       y2="389.5325" />
    <linearGradient
       gradientUnits="userSpaceOnUse"
       id="linearGradient2236"
       x1="342.26376"
       x2="355.07294"
       xlink:href="#linearGradient2238"
       y1="391.9053"
       y2="396.06921" />
    <linearGradient
       gradientTransform="matrix(2.609286,0,0,4.043931,-558.725,-1216.445)"
       gradientUnits="userSpaceOnUse"
       id="linearGradient2298"
       x1="335.68686"
       x2="287.33371"
       xlink:href="#linearGradient2176"
       y1="450.19324"
       y2="541.86292" />
    <linearGradient
       gradientTransform="matrix(3.564969,0,0,2.95985,-558.725,-1216.445)"
       gradientUnits="userSpaceOnUse"
       id="linearGradient2300"
       x1="243.38669"
       x2="252.48862"
       xlink:href="#linearGradient2196"
       y1="721.35486"
       y2="728.66895" />
    <linearGradient
       gradientUnits="userSpaceOnUse"
       id="linearGradient2302"
       x1="342.26376"
       x2="355.07294"
       xlink:href="#linearGradient2238"
       y1="391.9053"
       y2="396.06921" />
    <linearGradient
       gradientUnits="userSpaceOnUse"
       id="linearGradient2304"
       x1="344.57077"
       x2="357.37994"
       xlink:href="#linearGradient2238"
       y1="385.36859"
       y2="389.5325" />
    <linearGradient
       gradientUnits="userSpaceOnUse"
       id="linearGradient2306"
       x1="340.34116"
       x2="353.15033"
       xlink:href="#linearGradient2238"
       y1="399.21103"
       y2="403.37494" />
    <linearGradient
       gradientUnits="userSpaceOnUse"
       id="linearGradient2308"
       x1="338.41867"
       x2="351.22784"
       xlink:href="#linearGradient2238"
       y1="406.51675"
       y2="410.68066" />
    <linearGradient
       gradientUnits="userSpaceOnUse"
       id="linearGradient2310"
       x1="336.49603"
       x2="349.30521"
       xlink:href="#linearGradient2238"
       y1="413.43799"
       y2="417.6019" />
    <linearGradient
       gradientUnits="userSpaceOnUse"
       id="linearGradient2312"
       x1="334.57349"
       x2="347.38266"
       xlink:href="#linearGradient2238"
       y1="420.74371"
       y2="424.90762" />
    <linearGradient
       gradientTransform="matrix(3.562064,0.143937,-0.119505,2.957438,-360.5664,-1256.331)"
       gradientUnits="userSpaceOnUse"
       id="linearGradient2329"
       x1="243.38669"
       x2="252.48862"
       xlink:href="#linearGradient2196"
       y1="721.35486"
       y2="728.66895" />
    <linearGradient
       gradientTransform="matrix(2.607159,0.105351,-0.163276,4.040635,-360.5664,-1256.331)"
       gradientUnits="userSpaceOnUse"
       id="linearGradient2356"
       x1="335.68686"
       x2="287.33371"
       xlink:href="#linearGradient2176"
       y1="450.19324"
       y2="541.86292" />
    <linearGradient
       gradientTransform="matrix(2.607159,0.105351,-0.163276,4.040635,-360.5664,-1256.331)"
       gradientUnits="userSpaceOnUse"
       id="linearGradient2397"
       x1="335.68686"
       x2="287.33371"
       xlink:href="#linearGradient2176"
       y1="450.19324"
       y2="541.86292" />
    <linearGradient
       gradientTransform="matrix(3.562064,0.143937,-0.119505,2.957438,-360.5664,-1256.331)"
       gradientUnits="userSpaceOnUse"
       id="linearGradient2399"
       x1="243.38669"
       x2="252.48862"
       xlink:href="#linearGradient2196"
       y1="721.35486"
       y2="728.66895" />
    <linearGradient
       gradientUnits="userSpaceOnUse"
       id="linearGradient2401"
       x1="342.26376"
       x2="355.07294"
       xlink:href="#linearGradient2238"
       y1="391.9053"
       y2="396.06921" />
    <linearGradient
       gradientUnits="userSpaceOnUse"
       id="linearGradient2403"
       x1="344.57077"
       x2="357.37994"
       xlink:href="#linearGradient2238"
       y1="385.36859"
       y2="389.5325" />
    <linearGradient
       gradientUnits="userSpaceOnUse"
       id="linearGradient2405"
       x1="340.34116"
       x2="353.15033"
       xlink:href="#linearGradient2238"
       y1="399.21103"
       y2="403.37494" />
    <linearGradient
       gradientUnits="userSpaceOnUse"
       id="linearGradient2407"
       x1="338.41867"
       x2="351.22784"
       xlink:href="#linearGradient2238"
       y1="406.51675"
       y2="410.68066" />
    <linearGradient
       gradientUnits="userSpaceOnUse"
       id="linearGradient2409"
       x1="336.49603"
       x2="349.30521"
       xlink:href="#linearGradient2238"
       y1="413.43799"
       y2="417.6019" />
    <linearGradient
       gradientUnits="userSpaceOnUse"
       id="linearGradient2411"
       x1="334.57349"
       x2="347.38266"
       xlink:href="#linearGradient2238"
       y1="420.74371"
       y2="424.90762" />
  </defs>
  <g
     id="layer1"
     transform="matrix(0.99932839,-0.03664371,0.03664371,0.99932839,-65.368106,-5.4596265)">
    <g
       id="g2358"
       transform="matrix(1.057767,0,0,1.057767,-199.9583,-18.45053)">
      <path
         d="m 360.84762,995.17893 -44.51588,-4.42786 c 0,0 -33.8045,-9.25331 -54.16666,-25.85076 -20.36219,-16.59745 -40.31246,-46.58179 -41.54609,-77.92293 1.06064,-26.24819 19.03693,-80.73303 19.03693,-80.73303 0,0 19.85866,-36.00506 26.48713,-69.91558 6.62851,-33.91055 -15.29784,-76.86229 -19.27472,-108.57226 -3.97685,-31.70997 8.32553,-75.90766 13.7873,-80.9452 5.46176,-5.03749 29.19121,-6.70775 29.19121,-6.70775 0,0 7.87447,0.3182 10.07503,10.92356 2.20058,10.60536 -1.27278,31.49785 6.17744,42.31534 7.4502,10.81745 6.81381,26.5664 17.41917,24.36583 10.60533,-2.20058 18.79797,-9.75683 18.79797,-9.75683 l 26.67249,-9.43865 33.91055,6.6285 0.60956,49.97768 c 0,0 -3.04905,10.39319 7.45022,10.81745 10.49928,0.42426 15.43073,8.51084 26.46035,-4.18898 11.02962,-12.69983 14.18473,-25.7179 17.23383,-36.1111 3.04909,-10.39323 11.13567,-15.3247 11.13567,-15.3247 l 23.51733,3.57943 c 0,0 12.38164,18.90406 11.53312,39.90263 -0.84852,20.99859 -7.05274,44.40984 -15.45752,57.21575 -8.40479,12.80589 -14.39691,30.96751 -12.40846,46.8225 1.98844,15.855 28.52803,74.76777 32.71701,101.22809 4.18901,26.46035 8.27194,55.5455 2.27985,73.70713 -5.99211,18.16163 -17.12775,33.48629 -28.0513,43.56129 -10.92356,10.07504 -37.59601,19.5137 -50.8262,21.60813 -13.23017,2.09449 -68.24533,-2.75768 -68.24533,-2.75768 z"
         id="path1360"
         style="fill:url(#linearGradient2397);fill-opacity:1;fill-rule:evenodd;stroke:#000000;stroke-width:3.24835086px;stroke-linecap:butt;stroke-linejoin:miter;stroke-opacity:1"
         inkscape:connector-curvature="0" />
      <path
         d="m 319.32834,851.52946 c 0,0 -21.21069,4.40115 -27.81237,-27.4149 -6.60169,-31.81603 7.26487,-49.65947 7.26487,-49.65947 0,0 19.7526,-33.38022 20.28292,-46.50432 1.27278,-31.49785 -7.21129,-81.79372 -7.21129,-81.79372 0,0 -2.20058,-10.60533 8.29872,-10.18107 10.49929,0.42426 22.77487,21.95314 22.77487,21.95314 l 44.09162,14.92719 c 0,0 15.32466,11.13568 28.44879,11.66601 13.12409,0.53032 26.46032,-4.18898 34.97117,-19.6197 8.51084,-15.43073 12.09026,-38.94807 12.09026,-38.94807 0,0 12.91196,5.77995 9.65078,21.42283 -3.26122,15.64285 -12.62059,52.07215 -21.55569,78.00216 -8.93512,25.93003 7.21127,81.79372 7.21127,81.79372 0,0 21.5021,53.45099 20.75964,71.82475 -0.74245,18.37372 7.02594,21.31675 -6.20424,23.41125 -13.23017,2.09447 -17.94947,-11.24175 -38.31166,-27.83919 -20.36218,-16.59745 -51.86002,-17.87022 -51.86002,-17.87022 l -62.88964,-5.17039 z"
         id="path1362"
         style="fill:#ffffff;fill-opacity:1;fill-rule:evenodd;stroke:#000000;stroke-width:3.24835086px;stroke-linecap:butt;stroke-linejoin:miter;stroke-opacity:1"
         inkscape:connector-curvature="0" />
      <path
         d="m 334.52127,670.73501 24.0231,-464.38113 0.31819,-7.87448 c 0,0 -13.12408,-0.53032 -10.07499,-10.92355 3.04906,-10.3932 48.0428,-147.91775 48.0428,-147.91775 0,0 24.25977,-14.794341 28.97912,-1.458086 4.7193,13.336222 12.38163,18.904047 3.97685,31.709979 -8.40478,12.805899 -13.97261,20.468232 -13.97261,20.468232 l 12.67305,76.756185 c 0,0 -15.85499,1.98844 -21.84711,20.15007 -5.99208,18.16159 -11.45384,23.19912 -11.45384,23.19912 l -8.75093,346.68849 c 0,0 -0.53032,13.12409 4.08292,29.08514 4.61328,15.96107 7.132,18.69195 7.132,18.69195 l -10.3932,-3.04908 -0.345,73.60105 c 0,0 -16.17319,9.86291 -31.81605,6.60168 -15.64287,-3.26121 -20.5743,-11.34782 -20.5743,-11.34782 z"
         id="path1364"
         style="fill:#ffc380;fill-opacity:1;fill-rule:evenodd;stroke:#000000;stroke-width:3.24835086px;stroke-linecap:butt;stroke-linejoin:miter;stroke-opacity:1"
         inkscape:connector-curvature="0" />
      <path
         d="m 372.4199,124.43791 1.86538,77.5784"
         id="path2250"
         style="fill:none;fill-opacity:0.75;fill-rule:evenodd;stroke:#000000;stroke-width:1.21813154;stroke-linecap:butt;stroke-linejoin:miter;stroke-miterlimit:4;stroke-opacity:0.39459462"
         inkscape:connector-curvature="0" />
      <path
         d="M 395.01044,60.34818 391.50529,208.9624"
         id="path2256"
         style="fill:none;fill-opacity:0.75;fill-rule:evenodd;stroke:#000000;stroke-width:0.94202173;stroke-linecap:butt;stroke-linejoin:miter;stroke-miterlimit:4;stroke-opacity:0.39459462"
         inkscape:connector-curvature="0" />
      <path
         d="m 279.13545,544.92896 c 0,0 5.13392,7.25121 9.95928,17.96264 4.82538,10.71142 0.42759,28.21341 8.59978,43.25679 15.32468,11.13564 25.82397,11.5599 25.82397,11.5599 0,0 -28.04955,13.07361 -34.96942,-10.86798 -6.91988,-23.94158 -9.41361,-61.91135 -9.41361,-61.91135 z"
         id="path2124"
         style="fill:#ffffff;fill-opacity:0.36216215;fill-rule:evenodd;stroke:#000000;stroke-width:3.24835086px;stroke-linecap:butt;stroke-linejoin:miter;stroke-opacity:1"
         inkscape:connector-curvature="0" />
      <path
         d="m 468.97305,613.45607 9.32492,11.5681 c 0,0 9.38137,10.17146 7.30752,26.87456 -2.07385,16.70314 -7.16673,38.8799 -11.69523,47.09036 -4.52848,8.21047 -7.77325,19.27064 -8.39404,34.63355 -0.62079,15.36291 -7.94254,23.46053 3.44198,53.29764 11.38452,29.83717 26.67673,66.82675 28.51058,90.68232 1.83387,23.85558 9.42354,43.74696 0.31011,61.56455 -9.11344,17.81756 -8.05543,26.25378 -22.4732,36.86246 -14.41777,10.60869 -30.06286,16.97102 -30.06286,16.97102 0,0 41.63095,-26.29594 48.51547,-58.19265 6.88456,-31.89675 1.31227,-67.09467 -4.9372,-85.533 -6.24949,-18.43838 -29.18783,-73.92275 -30.1894,-83.75559 -1.00158,-9.83286 9.86133,-70.94593 14.50273,-81.94966 4.64137,-11.00372 12.18888,-24.68784 6.05226,-45.91947 -6.13659,-21.23162 -10.21364,-24.19419 -10.21364,-24.19419 z"
         id="path2126"
         style="fill:#ffffff;fill-opacity:0.36216215;fill-rule:evenodd;stroke:none;stroke-width:1px;stroke-linecap:butt;stroke-linejoin:miter;stroke-opacity:1"
         inkscape:connector-curvature="0" />
      <rect
         height="46.126308"
         id="rect2128"
         rx="5.5686636"
         ry="10.63175"
         style="fill:#d6e0ec;fill-opacity:1;fill-rule:nonzero;stroke:#000000;stroke-width:3.12796903;stroke-linecap:round;stroke-linejoin:round;stroke-miterlimit:4;stroke-dashoffset:0;stroke-opacity:1"
         transform="matrix(0.998661,0.05173699,-0.05173699,0.998661,0,0)"
         width="72.581017"
         x="360.26956"
         y="821.24231" />
      <path
         d="m 329.56224,794.1846 48.13324,16.49004 c 0,0 8.23072,3.22568 5.07736,10.06055 -3.15336,6.83485 -6.0898,9.48198 -11.60108,7.79685 -5.51127,-1.68516 -46.80967,-15.02183 -46.80967,-15.02183 0,0 -2.64716,-2.93642 -3.75377,-8.59234 -1.10663,-5.65592 6.1621,-10.87791 8.95392,-10.73327 z"
         id="path2130"
         style="fill:none;fill-opacity:0.75;fill-rule:evenodd;stroke:#000000;stroke-width:3.24835086px;stroke-linecap:butt;stroke-linejoin:miter;stroke-opacity:1"
         inkscape:connector-curvature="0" />
      <path
         d="m 333.41688,746.79638 47.3882,3.85469 c 0,0 7.12413,-2.43023 6.83487,3.15335 -0.28926,5.58357 3.60916,11.38412 -3.51494,13.81436 -7.12416,2.43019 -53.11645,-1.35213 -53.11645,-1.35213 0,0 -6.97946,-0.36158 -5.22199,-7.26874 1.7575,-6.90719 0.79549,-15.35489 7.63031,-12.20153 z"
         id="path2132"
         style="fill:none;fill-opacity:0.75;fill-rule:evenodd;stroke:#000000;stroke-width:3.24835086px;stroke-linecap:butt;stroke-linejoin:miter;stroke-opacity:1"
         inkscape:connector-curvature="0" />
      <path
         d="m 337.19924,700.80411 47.38819,3.85469 c 0,0 7.1241,-2.43023 6.83485,3.1534 -0.28927,5.58355 3.60914,11.38412 -3.51497,13.81431 -7.1241,2.43019 -53.1164,-1.35213 -53.1164,-1.35213 0,0 -6.97947,-0.36159 -5.222,-7.26874 1.75747,-6.90716 0.79548,-15.35489 7.63033,-12.20153 z"
         id="path2134"
         style="fill:none;fill-opacity:0.75;fill-rule:evenodd;stroke:#000000;stroke-width:3.24835086px;stroke-linecap:butt;stroke-linejoin:miter;stroke-opacity:1"
         inkscape:connector-curvature="0" />
      <path
         d="m 280.98666,645.51245 a 3.01211,3.2272607 0 1 1 -6.02422,0 3.01211,3.2272607 0 1 1 6.02422,0 z"
         id="path2136"
         style="fill:#ffffff;fill-opacity:1;fill-rule:nonzero;stroke:#000000;stroke-width:1;stroke-linecap:round;stroke-linejoin:round;stroke-miterlimit:4;stroke-dashoffset:0;stroke-opacity:1"
         transform="matrix(3.245703,0.131154,-0.131154,3.245703,-360.5664,-1256.331)"
         inkscape:connector-curvature="0" />
      <path
         d="m 280.98666,645.51245 a 3.01211,3.2272607 0 1 1 -6.02422,0 3.01211,3.2272607 0 1 1 6.02422,0 z"
         id="path2138"
         style="fill:#ffffff;fill-opacity:1;fill-rule:nonzero;stroke:#000000;stroke-width:1;stroke-linecap:round;stroke-linejoin:round;stroke-miterlimit:4;stroke-dashoffset:0;stroke-opacity:1"
         transform="matrix(3.245703,0.131154,-0.131154,3.245703,-383.3497,-1281.033)"
         inkscape:connector-curvature="0" />
      <path
         d="m 280.98666,645.51245 a 3.01211,3.2272607 0 1 1 -6.02422,0 3.01211,3.2272607 0 1 1 6.02422,0 z"
         id="path2140"
         style="fill:#ffffff;fill-opacity:1;fill-rule:nonzero;stroke:#000000;stroke-width:1;stroke-linecap:round;stroke-linejoin:round;stroke-miterlimit:4;stroke-dashoffset:0;stroke-opacity:1"
         transform="matrix(3.245703,0.131154,-0.131154,3.245703,-407.8119,-1298.808)"
         inkscape:connector-curvature="0" />
      <path
         d="m 386.85408,603.14325 2.51265,54.65901 c 0,0 1.28904,7.04665 9.08867,8.76072 7.7996,1.71407 23.39877,5.14223 23.39877,5.14223 0,0 -21.99686,-0.88886 -26.31549,-10.85575 -4.31855,-9.96684 -8.6846,-57.70621 -8.6846,-57.70621 z"
         id="path2148"
         style="fill:#ffffff;fill-opacity:0.54054051;fill-rule:evenodd;stroke:none;stroke-width:1px;stroke-linecap:butt;stroke-linejoin:miter;stroke-opacity:1"
         inkscape:connector-curvature="0" />
      <rect
         height="16.145115"
         id="rect2174"
         rx="5.5686665"
         ry="10.631755"
         style="fill:#ffffff;fill-opacity:0.54054051;fill-rule:nonzero;stroke:none;stroke-width:0.625;stroke-linecap:round;stroke-linejoin:round;stroke-miterlimit:4;stroke-dashoffset:0;stroke-opacity:1"
         transform="matrix(0.999185,0.04037544,-0.04037544,0.999185,0,0)"
         width="59.198753"
         x="357.8176"
         y="843.0304" />
      <path
         d="m 364.04265,203.24628 -37.2219,663.12657"
         id="path2162"
         style="fill:none;fill-opacity:0.75;fill-rule:evenodd;stroke:#000000;stroke-width:1.78659284;stroke-linecap:butt;stroke-linejoin:miter;stroke-miterlimit:4;stroke-opacity:1"
         inkscape:connector-curvature="0" />
      <path
         d="m 358.02343,171.35802 5.08017,28.95642"
         id="path2246"
         style="fill:none;fill-opacity:0.75;fill-rule:evenodd;stroke:#000000;stroke-width:1.21813154;stroke-linecap:butt;stroke-linejoin:miter;stroke-miterlimit:4;stroke-opacity:0.39459462"
         inkscape:connector-curvature="0" />
      <path
         d="M 369.0955,203.6371 336.00061,866.67565"
         id="path2164"
         style="fill:none;fill-opacity:0.75;fill-rule:evenodd;stroke:#000000;stroke-width:1.78659284;stroke-linecap:butt;stroke-linejoin:miter;stroke-miterlimit:4;stroke-opacity:1"
         inkscape:connector-curvature="0" />
      <path
         d="m 365.07038,151.64199 4.27328,48.9246"
         id="path2248"
         style="fill:none;fill-opacity:0.75;fill-rule:evenodd;stroke:#000000;stroke-width:1.21813154;stroke-linecap:butt;stroke-linejoin:miter;stroke-miterlimit:4;stroke-opacity:0.39459462"
         inkscape:connector-curvature="0" />
      <path
         d="M 374.05794,204.43232 346.04289,866.96557"
         id="path2166"
         style="fill:none;fill-opacity:0.75;fill-rule:evenodd;stroke:#000000;stroke-width:1.78659284;stroke-linecap:butt;stroke-linejoin:miter;stroke-miterlimit:4;stroke-opacity:1"
         inkscape:connector-curvature="0" />
      <path
         d="M 379.23356,206.12622 356.134,867.56476"
         id="path2168"
         style="fill:none;fill-opacity:0.75;fill-rule:evenodd;stroke:#000000;stroke-width:1.78659284;stroke-linecap:butt;stroke-linejoin:miter;stroke-miterlimit:4;stroke-opacity:1"
         inkscape:connector-curvature="0" />
      <path
         d="m 384.51752,208.50462 -18.01759,659.4362"
         id="path2170"
         style="fill:none;fill-opacity:0.75;fill-rule:evenodd;stroke:#000000;stroke-width:1.78659284;stroke-linecap:butt;stroke-linejoin:miter;stroke-miterlimit:4;stroke-opacity:1"
         inkscape:connector-curvature="0" />
      <path
         d="M 389.97574,209.93789 377.63361,868.31012"
         id="path2172"
         style="fill:none;fill-opacity:0.75;fill-rule:evenodd;stroke:#000000;stroke-width:2.15323782;stroke-linecap:butt;stroke-linejoin:miter;stroke-miterlimit:4;stroke-opacity:1"
         inkscape:connector-curvature="0" />
      <path
         d="m 282.46457,663.03186 a 9.88626,5.1785173 0 1 1 -19.77252,0 9.88626,5.1785173 0 1 1 19.77252,0 z"
         id="path2192"
         style="fill:#ffffff;fill-opacity:0.95135133;fill-rule:nonzero;stroke:none;stroke-width:0.625;stroke-linecap:round;stroke-linejoin:round;stroke-miterlimit:4;stroke-dashoffset:0;stroke-opacity:1"
         transform="matrix(2.230407,1.973062,-2.038112,2.146768,1173.088,-1042.874)"
         inkscape:connector-curvature="0" />
      <path
         d="m 418.46345,921.28182 13.68294,-13.22171 c 0,0 7.85353,2.85479 10.87504,6.96427 3.0215,4.10947 9.69922,16.34148 6.79764,19.12415 -2.90155,2.78269 -17.14904,0.3945 -22.60115,-2.72575 -5.45215,-3.12023 -8.75447,-10.14096 -8.75447,-10.14096 z"
         id="path2194"
         style="fill:url(#linearGradient2399);fill-opacity:1;fill-rule:evenodd;stroke:#000000;stroke-width:1.74579275;stroke-linecap:butt;stroke-linejoin:miter;stroke-miterlimit:4;stroke-opacity:0.24324323"
         inkscape:connector-curvature="0" />
      <path
         d="m 346.44531,420.0322 a 2.4993279,2.4993279 0 1 1 -4.99865,0 2.4993279,2.4993279 0 1 1 4.99865,0 z"
         id="path2206"
         style="fill:url(#linearGradient2401);fill-opacity:1;fill-rule:nonzero;stroke:#000000;stroke-width:0.625;stroke-linecap:round;stroke-linejoin:round;stroke-miterlimit:4;stroke-dashoffset:0;stroke-opacity:1"
         transform="matrix(3.245703,0.131154,-0.131154,3.245703,-701.5762,-1262.61)"
         inkscape:connector-curvature="0" />
      <path
         d="m 346.44531,420.0322 a 2.4993279,2.4993279 0 1 1 -4.99865,0 2.4993279,2.4993279 0 1 1 4.99865,0 z"
         id="path2210"
         style="fill:url(#linearGradient2403);fill-opacity:1;fill-rule:nonzero;stroke:#000000;stroke-width:0.625;stroke-linecap:round;stroke-linejoin:round;stroke-miterlimit:4;stroke-dashoffset:0;stroke-opacity:1"
         transform="matrix(3.245703,0.131154,-0.131154,3.245703,-709.9214,-1241.696)"
         inkscape:connector-curvature="0" />
      <path
         d="m 346.44531,420.0322 a 2.4993279,2.4993279 0 1 1 -4.99865,0 2.4993279,2.4993279 0 1 1 4.99865,0 z"
         id="path2212"
         style="fill:url(#linearGradient2405);fill-opacity:1;fill-rule:nonzero;stroke:#000000;stroke-width:0.625;stroke-linecap:round;stroke-linejoin:round;stroke-miterlimit:4;stroke-dashoffset:0;stroke-opacity:1"
         transform="matrix(3.245703,0.131154,-0.131154,3.245703,-694.3779,-1286.071)"
         inkscape:connector-curvature="0" />
      <path
         d="m 346.44531,420.0322 a 2.4993279,2.4993279 0 1 1 -4.99865,0 2.4993279,2.4993279 0 1 1 4.99865,0 z"
         id="path2214"
         style="fill:url(#linearGradient2407);fill-opacity:1;fill-rule:nonzero;stroke:#000000;stroke-width:0.625;stroke-linecap:round;stroke-linejoin:round;stroke-miterlimit:4;stroke-dashoffset:0;stroke-opacity:1"
         transform="matrix(3.245703,0.131154,-0.131154,3.245703,-687.1798,-1309.53)"
         inkscape:connector-curvature="0" />
      <path
         d="m 346.44531,420.0322 a 2.4993279,2.4993279 0 1 1 -4.99865,0 2.4993279,2.4993279 0 1 1 4.99865,0 z"
         id="path2216"
         style="fill:url(#linearGradient2409);fill-opacity:1;fill-rule:nonzero;stroke:#000000;stroke-width:0.625;stroke-linecap:round;stroke-linejoin:round;stroke-miterlimit:4;stroke-dashoffset:0;stroke-opacity:1"
         transform="matrix(3.245703,0.131154,-0.131154,3.245703,-680.0319,-1331.743)"
         inkscape:connector-curvature="0" />
      <path
         d="m 346.44531,420.0322 a 2.4993279,2.4993279 0 1 1 -4.99865,0 2.4993279,2.4993279 0 1 1 4.99865,0 z"
         id="path2218"
         style="fill:url(#linearGradient2411);fill-opacity:1;fill-rule:nonzero;stroke:#000000;stroke-width:0.625;stroke-linecap:round;stroke-linejoin:round;stroke-miterlimit:4;stroke-dashoffset:0;stroke-opacity:1"
         transform="matrix(3.245703,0.131154,-0.131154,3.245703,-672.8336,-1355.202)"
         inkscape:connector-curvature="0" />
      <path
         d="m 380.81569,102.27627 -1.53835,99.94176"
         id="path2252"
         style="fill:none;fill-opacity:0.75;fill-rule:evenodd;stroke:#000000;stroke-width:0.94202173;stroke-linecap:butt;stroke-linejoin:miter;stroke-miterlimit:4;stroke-opacity:0.39459462"
         inkscape:connector-curvature="0" />
      <path
         d="M 387.91307,81.312243 385.41649,204.96621"
         id="path2254"
         style="fill:none;fill-opacity:0.75;fill-rule:evenodd;stroke:#000000;stroke-width:0.94202173;stroke-linecap:butt;stroke-linejoin:miter;stroke-miterlimit:4;stroke-opacity:0.39459462"
         inkscape:connector-curvature="0" />
      <path
         d="m 361.90603,199.01601 30.84728,9.99682"
         id="path2244"
         style="fill:none;fill-opacity:0.75;fill-rule:evenodd;stroke:#000000;stroke-width:5.0349431;stroke-linecap:butt;stroke-linejoin:miter;stroke-miterlimit:4;stroke-opacity:1"
         inkscape:connector-curvature="0" />
      <path
         d="m 412.78763,35.143074 c 0,0 3.4901,-1.008754 6.74826,3.721999 3.25817,4.730785 8.78894,10.128276 7.9367,16.992497 -0.85228,6.864219 -10.49936,17.97218 -11.8328,22.517425 -1.33342,4.545213 -6.73091,10.075986 -5.24098,15.885096 1.48991,5.809089 13.90788,68.398889 13.90788,68.398889 0,0 -18.04152,-65.691478 -18.88792,-73.199248 -0.84641,-7.507735 18.85937,-25.682805 19.13768,-32.570217 0.27831,-6.887412 -2.35955,-12.742914 -11.76882,-21.746441 z"
         id="path2258"
         style="fill:#ffffff;fill-opacity:0.90270266;fill-rule:evenodd;stroke:none;stroke-width:1px;stroke-linecap:butt;stroke-linejoin:miter;stroke-opacity:1"
         inkscape:connector-curvature="0" />
      <path
         d="m 402.65954,164.35707 10.20076,-5.17285 -11.40086,-63.798423 c 0,0 -2.40017,43.107043 1.80014,51.728453 4.20031,8.62141 -0.60004,17.24282 -0.60004,17.24282 z"
         id="path2316"
         style="fill:#585959;fill-opacity:0.7837838;fill-rule:evenodd;stroke:none;stroke-width:1px;stroke-linecap:butt;stroke-linejoin:miter;stroke-opacity:1"
         inkscape:connector-curvature="0" />
    </g>
  </g>
</svg>
