<?xml version="1.0" encoding="UTF-8" standalone="no"?><!-- Created with Inkscape (http://www.inkscape.org/) -->

<!--suppress ALL -->
<svg xmlns:dc="http://purl.org/dc/elements/1.1/" xmlns:cc="http://creativecommons.org/ns#"
    xmlns:rdf="http://www.w3.org/1999/02/22-rdf-syntax-ns#" xmlns="http://www.w3.org/2000/svg"
    xmlns:sodipodi="http://sodipodi.sourceforge.net/DTD/sodipodi-0.dtd"
    xmlns:inkscape="http://www.inkscape.org/namespaces/inkscape" version="1.0"
    viewBox="0 0 97.799873 698.33527" id="svg2525" inkscape:version="0.91 r13725"
    sodipodi:docname="woodwind_minute_hand.svg">
    <metadata id="metadata148">
        <rdf:RDF>
            <cc:Work rdf:about="">
                <dc:format>image/svg+xml</dc:format>
                <dc:type rdf:resource="http://purl.org/dc/dcmitype/StillImage" />
            </cc:Work>
        </rdf:RDF>
    </metadata>
    <sodipodi:namedview pagecolor="#ffffff" bordercolor="#666666" borderopacity="1"
        objecttolerance="10" gridtolerance="10" guidetolerance="10" inkscape:pageopacity="0"
        inkscape:pageshadow="2" inkscape:window-width="1308" inkscape:window-height="650"
        id="namedview146" showgrid="false" inkscape:zoom="3.8234288" inkscape:cx="38.438123"
        inkscape:cy="226.93425" inkscape:window-x="0" inkscape:window-y="23"
        inkscape:window-maximized="0" inkscape:current-layer="svg2525" />
    <defs id="defs2527" />
    <path
        d="m 27.44651,44.43485 c 1.31817,0.38513 3.2156,-0.18587 3.2156,-0.18587 l -0.29761,6.40221 c -0.81498,-0.15045 -1.52296,0.35411 -2.26699,0.63797 l -0.651,-6.85431 z"
        style="color:#000000;display:inline;overflow:visible;visibility:visible;fill:#cccccc;fill-opacity:1;fill-rule:evenodd;stroke:#000000;stroke-width:0.11761414;stroke-linecap:butt;stroke-linejoin:miter;stroke-miterlimit:4;stroke-dasharray:none;stroke-dashoffset:0;stroke-opacity:1;marker:none;marker-start:none;marker-mid:none;marker-end:none;enable-background:accumulate"
        id="path3175" inkscape:connector-curvature="0" />
    <path
        d="m 24.18294,41.62671 c -8.26974,0.0133 -7.951,14.09694 -1.72138,14.81165 8.88755,-0.71714 7.86785,-13.78595 1.72138,-14.81165 z"
        style="color:#000000;display:inline;overflow:visible;visibility:visible;fill:#e6e6e6;fill-opacity:1;fill-rule:evenodd;stroke:#000000;stroke-width:0.11761414;stroke-linecap:butt;stroke-linejoin:miter;stroke-miterlimit:4;stroke-dasharray:none;stroke-dashoffset:0;stroke-opacity:1;marker:none;marker-start:none;marker-mid:none;marker-end:none;enable-background:accumulate"
        id="path3173" inkscape:connector-curvature="0" />
    <path
        d="m 24.8834,74.47603 c 1.95168,-0.52333 3.95429,-1.2488 5.58029,-0.47998 l 0.0155,-5.25797 -5.59574,5.73795 z"
        style="color:#000000;display:inline;overflow:visible;visibility:visible;fill:#cccccc;fill-opacity:1;fill-rule:evenodd;stroke:#000000;stroke-width:0.11761414;stroke-linecap:butt;stroke-linejoin:miter;stroke-miterlimit:4;stroke-dasharray:none;stroke-dashoffset:0;stroke-opacity:1;marker:none;marker-start:none;marker-mid:none;marker-end:none;enable-background:accumulate"
        id="path3179" inkscape:connector-curvature="0" />
    <path
        d="m 3.71471,680.59909 c 1.11707,-3.39999 4.58912,-1.52309 7.615,-4.86929 5.06604,-7.94249 7.16715,-17.339 8.97652,-28.54677 3.40563,-21.02571 5.83796,-42.80099 7.23717,-64.71589 0.94026,-142.39143 0.19983,-288.91975 -1.01061,-432.1262 -0.0459,-0.24648 0.70694,-0.243 0.7115,-0.51713 0.0358,-2.15727 1.44283,-5.07607 1.22625,-7.26463 -0.0601,-0.60686 -2.7575,-0.46923 -2.80848,-1.09002 -1.10112,-13.40788 -0.12147,-29.9238 1.39417,-43.47671 0.41966,-0.2016 0.54986,-1.10653 0.6501,-1.9465 0.29918,-2.50688 0.29899,-5.07158 0.61675,-7.32109 1.05152,-20.98956 2.26957,-42.96407 3.54757,-65.29334 0.7205,-5.70416 1.66029,-11.32095 3.48835,-16.58377 5.30775,-9.91703 18.06594,-8.13787 22.06377,0.0158 2.43426,5.73045 2.32328,11.3528 3.1395,16.47912 2.01166,27.62715 1.80561,38.08336 3.02479,65.31504 -1.53198,1.78805 -0.89835,5.12942 -0.51559,8.3318 0.0458,0.38295 1.47592,0.51626 1.52041,0.91289 1.34956,12.03058 2.39776,30.56724 0.32278,43.36554 -0.0616,0.37999 -2.50417,0.29409 -2.54353,0.66928 -0.2646,2.52282 0.0686,5.96728 0.2138,8.12975 0.0204,0.30325 1.69657,-0.15281 1.63145,0.12751 -0.15963,144.6028 1.91057,288.15141 2.87565,432.15017 2.71837,20.93052 4.48361,42.19237 8.78728,62.9735 1.83521,9.84408 3.56701,19.70651 8.94491,28.9221 3.11388,1.09848 5.6189,1.99673 7.03668,3.51152 1.07931,1.50125 1.13217,2.84725 0.15592,4.0376 -9.94748,12.46495 -76.01866,12.36066 -86.91774,1.61529 -0.45316,-0.95312 -1.90149,-2.24347 -1.38437,-2.80554 z"
        style="display:inline;fill:#563100;fill-opacity:1;fill-rule:evenodd;stroke:#000000;stroke-width:0.11761414;stroke-linecap:butt;stroke-linejoin:miter;stroke-miterlimit:4;stroke-dasharray:none;stroke-opacity:1"
        id="path3155" inkscape:connector-curvature="0" />
    <path
        d="m 36.96004,4.14995 -0.184,34.0719 c 5.84426,3.79276 12.0597,4.38001 18.87655,-0.22673 L 56.08742,4.21813 C 51.75924,-0.87407 41.77278,-0.87076 36.96004,4.14993 Z"
        style="display:inline;fill:#cccccc;fill-rule:evenodd;stroke:#000000;stroke-width:0.11761414;stroke-linecap:butt;stroke-linejoin:miter;stroke-miterlimit:4;stroke-dasharray:none;stroke-opacity:1"
        id="path3158" inkscape:connector-curvature="0" />
    <path
        d="m 29.44295,64.4929 c 0,0 -1.92165,-2.45897 -4.64745,-2.93004 -7.94926,-1.37378 -7.33595,15.99948 -0.96324,13.7577 5.09067,-1.79079 5.29839,-4.47513 5.55601,-6.49497 0.21468,-1.6832 0.0127,-4.33256 0.0547,-4.33269 z"
        style="color:#000000;display:inline;overflow:visible;visibility:visible;fill:#e6e6e6;fill-opacity:1;fill-rule:evenodd;stroke:#000000;stroke-width:0.11761414;stroke-linecap:butt;stroke-linejoin:miter;stroke-miterlimit:4;stroke-dasharray:none;stroke-dashoffset:0;stroke-opacity:1;marker:none;marker-start:none;marker-mid:none;marker-end:none;enable-background:accumulate"
        id="path3177" inkscape:connector-curvature="0" />
    <path
        d="m 45.6717,43.18746 c -5.3414,0.059 -10.59868,0.28531 -15.79881,0.60839 -0.1802,2.52467 -0.21486,5.00487 -0.19807,7.45003 1.44754,0.16488 3.05762,0.11793 4.58016,0.13303 -2.3021,4.93683 -1.95002,9.41831 -1.03917,13.90096 -1.46174,-0.0274 -2.92534,-0.0436 -4.46323,0.0433 -0.34755,3.19648 -0.42375,6.18551 -0.43798,9.15856 11.56366,0.25212 23.20641,0.11089 34.88322,-0.1964 0.0327,-2.82918 0.11985,-5.64334 -0.0337,-8.50932 -1.15392,-0.14686 -3.02514,-0.14393 -4.58025,-0.10359 0.67866,-4.15502 2.14686,-7.79839 -0.89885,-13.86551 1.59649,0.0243 3.19929,-0.0396 4.75711,-0.13251 -0.0546,-2.70211 -0.13079,-5.41293 -0.41682,-8.03702 C 56.4385,43.23757 51.01313,43.12853 45.67172,43.18749 Z m -1.88181,0.88916 c 1.82308,-0.25559 3.38527,-0.1456 4.93294,-0.0153 0.34857,-0.001 0.61583,0.26688 0.6148,0.61642 l -0.0101,3.44503 c -0.001,0.34955 -0.26986,0.61916 -0.61843,0.62024 -1.66487,0.22476 -3.32488,0.3975 -4.93295,0.0153 -0.34858,10e-4 -0.61583,-0.26688 -0.6148,-0.61643 l 0.0101,-3.44502 c 10e-4,-0.34956 0.26986,-0.61917 0.61844,-0.62025 z m 2.30382,5.38118 c 5.22241,-0.0162 9.44214,4.28344 9.42661,9.56966 -0.0155,5.28622 -4.26052,9.58261 -9.48293,9.59879 -5.2224,0.0162 -9.44223,-4.25399 -9.42669,-9.54021 0.0155,-5.28622 4.2606,-9.61206 9.48301,-9.62824 z M 43.4804,69.45862 c 1.782,-0.22792 3.56319,-0.17966 5.34403,-0.0166 0.34858,-0.001 0.61574,0.29633 0.61471,0.64587 l -0.009,3.12113 c -0.001,0.34955 -0.26994,0.64862 -0.61852,0.6497 -1.74618,0.0942 -3.48973,0.19504 -5.34402,0.0165 -0.34859,0.001 -0.61574,-0.29632 -0.61472,-0.64587 l 0.009,-3.12113 c 10e-4,-0.34956 0.26995,-0.64861 0.61852,-0.64969 z"
        style="display:inline;fill:#cccccc;fill-rule:evenodd;stroke:#000000;stroke-width:0.11761414;stroke-linecap:butt;stroke-linejoin:miter;stroke-miterlimit:4;stroke-dasharray:none;stroke-opacity:1"
        id="path3160" inkscape:connector-curvature="0" />
    <path
        d="m 27.60767,89.26479 c 12.09834,-0.28318 24.44533,-0.4045 36.43082,-0.35082 0.22432,0.032 0.0734,0.5649 -0.002,0.83282 -0.28919,0.20303 -0.58643,0.37343 -0.91439,0.41924 0.23946,0.15057 0.44456,0.31844 0.91212,0.3541 0.13195,0.39083 0.10158,0.61891 -0.002,0.77332 -0.25464,0.22682 -0.54228,0.40946 -0.91457,0.47873 0.17359,0.28954 0.54474,0.49931 0.91107,0.71102 0.0658,0.46972 0.0876,0.91747 -0.004,1.30872 -0.25238,0.23864 -0.58545,0.23269 -0.91387,0.24077 0.27002,0.18381 0.30667,0.4449 0.7931,0.48364 0.1016,0.37095 0.05,0.62687 -0.003,0.88211 l -0.79557,0.35938 c 0.3993,0.0435 0.78493,0.0948 0.9123,0.29461 0.22428,0.61733 0.21117,1.15599 0.20474,1.69684 -12.09316,0.23255 -24.7889,0.32398 -37.03826,0.0829 -0.0438,-0.54638 0.0612,-1.01853 0.17216,-1.48769 0.19608,-0.32309 0.5318,-0.36491 0.8319,-0.47847 -0.27656,-0.0932 -0.55348,-0.0634 -0.82928,-0.41384 -0.0281,-0.30315 -0.0473,-0.59741 0.002,-0.82261 0.127,-0.3029 0.48939,-0.4291 0.83218,-0.57001 -0.30916,-0.0816 -0.72499,-0.003 -0.82935,-0.39201 l 0.0446,-0.89244 c 0.078,-0.32012 0.37805,-0.41753 0.78974,-0.40305 -0.2764,-0.14676 -0.46949,-0.0941 -0.74517,-0.48938 l 0.003,-0.89231 c 0.23547,-0.35709 0.46169,-0.25695 0.74751,-0.30579 -0.0553,-0.23346 -0.17898,-0.31667 -0.59807,-0.58698 -0.19342,-0.0667 -0.26898,-0.68054 0.002,-0.83278 z"
        style="color:#000000;display:inline;overflow:visible;visibility:visible;fill:#cccccc;fill-opacity:1;fill-rule:evenodd;stroke:#000000;stroke-width:0.11761414;stroke-linecap:butt;stroke-linejoin:miter;stroke-miterlimit:4;stroke-dasharray:none;stroke-dashoffset:0;stroke-opacity:1;marker:none;marker-start:none;marker-mid:none;marker-end:none;enable-background:accumulate"
        id="path3185" inkscape:connector-curvature="0" />
    <path
        d="m 26.43802,150.24275 c 12.0969,0.20822 26.02362,0.20609 38.00965,0.0781 0.22451,-0.0334 0.0573,-1.11213 -0.0169,-1.3796 -0.288,-0.20124 -0.68892,-0.43256 -1.01662,-0.47634 0.24035,-0.15206 0.5508,-0.15327 1.01859,-0.19183 0.13424,-0.39165 -0.0202,-0.74535 -0.12319,-0.89912 -0.17305,-0.23192 -0.52278,-0.44907 -0.91177,-0.47308 0.17529,-0.29061 0.71441,-0.14567 1.082,-0.35966 0.0686,-0.47013 0.13425,-0.6868 0.0451,-1.07749 -0.25099,-0.23708 -0.58409,-0.22906 -0.91247,-0.23511 0.2711,-0.18549 0.30928,-0.44681 0.79595,-0.48857 0.10378,-0.37158 0.13754,-0.62744 0.0865,-0.88236 0.0399,-0.23345 -0.40159,-0.28455 -0.79347,-0.35446 0.39955,-0.0459 0.7016,-0.0994 0.83014,-0.30001 0.22791,-0.61873 0.21797,-1.15731 0.21472,-1.69814 -12.09201,-0.15763 -26.74506,-0.16434 -38.99607,0.15266 -0.047,0.54667 0.0552,1.01817 0.16342,1.48666 0.19419,0.32188 0.52967,0.36162 0.82911,0.47333 -0.27711,0.0949 -0.55386,0.0669 -0.83173,0.41898 -0.0298,0.30333 -0.0508,0.59771 -0.002,0.82261 0.12522,0.30212 0.48687,0.42607 0.82884,0.56487 -0.30964,0.0835 -0.72502,0.008 -0.83167,0.39715 l 0.0393,0.89217 c 0.0761,0.31965 0.3756,0.41521 0.78738,0.39817 -0.27727,0.14848 -0.47005,0.097 -0.74805,0.49401 l -0.003,0.89231 c 0.23336,0.35564 0.46018,0.2541 0.74572,0.30116 -0.0567,0.23381 -0.20144,0.19166 -0.62213,0.46457 -0.19382,0.0679 0.0621,0.8284 0.33269,0.97897 z"
        style="color:#000000;display:inline;overflow:visible;visibility:visible;fill:#cccccc;fill-opacity:1;fill-rule:evenodd;stroke:#000000;stroke-width:0.11761414;stroke-linecap:butt;stroke-linejoin:miter;stroke-miterlimit:4;stroke-dasharray:none;stroke-dashoffset:0;stroke-opacity:1;marker:none;marker-start:none;marker-mid:none;marker-end:none;enable-background:accumulate"
        id="path3188" inkscape:connector-curvature="0" />
    <path
        d="m 10.31976,676.82658 c -1.02917,-0.0358 -8.66986,0.23504 -10.25726,7.60318 0.044,9.71027 23.0088,12.99787 35.40476,13.60298 10.70285,0.5946 21.62919,0.042 31.0019,-1.18969 9.88036,-1.6445 21.40997,-2.01244 30.23236,-10.52538 0.88059,-1.09286 1.30745,-2.33614 0.85031,-3.87246 -2.20885,-7.21648 -11.15447,-8.07479 -12.71244,-8.22022 2.68345,2.03486 8.78188,3.13839 7.72472,6.88965 -1.04419,2.12539 -3.55358,3.05028 -5.75907,4.22417 -6.42347,2.41355 -13.83629,3.40688 -20.98725,4.77611 -12.40257,1.26915 -24.44065,1.42629 -36.91369,0.28262 -7.31894,-0.30038 -27.7239,-4.12268 -24.1307,-10.35696 1.36061,-1.88328 3.82709,-2.27171 5.54636,-3.214 z"
        style="color:#000000;display:inline;overflow:visible;visibility:visible;fill:#e6e6e6;fill-opacity:1;fill-rule:evenodd;stroke:#000000;stroke-width:0.11761414;stroke-linecap:butt;stroke-linejoin:miter;stroke-miterlimit:4;stroke-dasharray:none;stroke-dashoffset:0;stroke-opacity:1;marker:none;marker-start:none;marker-mid:none;marker-end:none;enable-background:accumulate"
        id="path3192" inkscape:connector-curvature="0" />
    <path
        d="m 27.29297,582.17164 c 4.80127,6.33563 39.72727,2.76434 40.04358,-0.59994 0.49222,0.53028 1.48454,9.25778 1.15532,10.58503 -4.8217,4.53673 -35.83374,5.93199 -41.70563,0.96202 -0.67033,-0.67211 0.0803,-9.92162 0.50673,-10.94711 z"
        style="color:#000000;display:inline;overflow:visible;visibility:visible;fill:#e6e6e6;fill-opacity:1;fill-rule:evenodd;stroke:#000000;stroke-width:0.11761414;stroke-linecap:butt;stroke-linejoin:miter;stroke-miterlimit:4;stroke-dasharray:none;stroke-dashoffset:0;stroke-opacity:1;marker:none;marker-start:none;marker-mid:none;marker-end:none;enable-background:accumulate"
        id="path3195" inkscape:connector-curvature="0" />
    <g transform="matrix(0.9396085,-0.00291082,-0.00276868,0.9422281,-327.1216,-114.30387)"
        style="display:inline" id="g3250" />
    <path inkscape:connector-curvature="0" id="path3198"
        style="opacity:1;fill:#cccccc;fill-opacity:1;stroke:#000000;stroke-width:0.11761414;stroke-linecap:square;stroke-linejoin:round;stroke-miterlimit:4;stroke-dasharray:none;stroke-dashoffset:0;stroke-opacity:1"
        d="m 53.958037,208.63223 a 6.8680162,6.9138218 32.617368 1 1 -13.762653,0.0426 6.8680162,6.9138218 32.617368 0 1 13.762653,-0.0426 z" />
    <path inkscape:connector-curvature="0" id="path3206"
        style="opacity:1;fill:#cccccc;fill-opacity:1;stroke:#000000;stroke-width:0.10800663;stroke-linecap:square;stroke-linejoin:round;stroke-miterlimit:4;stroke-dasharray:none;stroke-dashoffset:0;stroke-opacity:1"
        d="m 50.130643,241.6271 a 6.3069903,6.3490543 32.617338 1 1 -12.638426,0.0391 6.3069903,6.3490543 32.617338 0 1 12.638426,-0.0391 z" />
    <path inkscape:connector-curvature="0" id="path3267"
        style="color:#000000;display:inline;overflow:visible;visibility:visible;opacity:1;fill:#cccccc;fill-opacity:1;fill-rule:evenodd;stroke:#000000;stroke-width:0.11761414;stroke-linecap:butt;stroke-linejoin:miter;stroke-miterlimit:4;stroke-dasharray:none;stroke-dashoffset:0;stroke-opacity:1;marker:none;marker-start:none;marker-mid:none;marker-end:none;enable-background:accumulate"
        d="m 44.55488,214.99298 c -0.07414,1.02466 0.975071,1.14744 0.927045,1.55451 -0.517902,0.70487 -0.615738,2.04309 -0.889018,3.11679 l 1.078351,2.90308 0.480057,12.76601 c -1.220877,4.50182 -3.241372,9.16639 -3.662622,13.50546 -0.04258,3.61943 1.785914,8.8645 4.114304,8.91413 7.006775,-0.32282 7.605849,-7.07458 7.179312,-12.58215 -0.319337,-2.78036 -2.179323,-5.90711 -4.221471,-7.66818 l -0.579895,-14.01131 0.885654,-1.97496 0.576029,-2.28541 -0.716963,-2.5928 c -0.231042,-0.73423 -0.834151,-0.80811 -0.925827,-1.96935 -1.106645,-15.7665 -3.738331,-10.4366 -4.244956,0.32418 z" />
    <path inkscape:connector-curvature="0" id="path3385"
        style="color:#000000;display:inline;overflow:visible;visibility:visible;opacity:1;fill:#e6e6e6;fill-opacity:1;fill-rule:evenodd;stroke:#000000;stroke-width:0.11761414;stroke-linecap:butt;stroke-linejoin:miter;stroke-miterlimit:4;stroke-dasharray:none;stroke-dashoffset:0;stroke-opacity:1;marker:none;marker-start:none;marker-mid:none;marker-end:none;enable-background:accumulate"
        d="m 6.8056926,353.76891 c 0.083547,-2.30808 2.4804854,-3.84283 2.8651647,-3.6054 l 1.5546987,0.23374 c 4.750566,0.54517 7.262933,9.29092 3.172345,10.17418 -4.07855,0.096 -7.3379909,-2.48551 -7.5922084,-6.80252 z" />
    <path inkscape:connector-curvature="0" id="path3367"
        style="color:#000000;display:inline;overflow:visible;visibility:visible;opacity:1;fill:#e6e6e6;fill-opacity:1;fill-rule:evenodd;stroke:#000000;stroke-width:0.11761414;stroke-linecap:butt;stroke-linejoin:miter;stroke-miterlimit:4;stroke-dasharray:none;stroke-dashoffset:0;stroke-opacity:1;marker:none;marker-start:none;marker-mid:none;marker-end:none;enable-background:accumulate"
        d="m 12.821615,324.09737 c -0.787107,1.19407 -1.117247,2.23414 -2.426001,3.60402 l -1.2484117,1.39844 0.057667,5.2845 c 1.4065977,1.81058 1.3337657,4.12677 0.9696887,6.27255 -1.9158032,0.90395 -2.0095111,2.33703 -0.9994523,3.8565 l 0.1284897,6.09166 c 0.1437771,0.77719 1.6814486,0.73953 2.0483766,0.36064 -0.157051,-3.72297 -0.345685,-7.96313 1.790966,-11.67587 4.558796,-6.09719 7.318696,-9.32494 8.588611,-8.4674 l 0.332457,-13.50632 -9.242391,6.78128 z" />
    <path inkscape:connector-curvature="0" id="path3291"
        style="opacity:1;fill:#cccccc;fill-opacity:1;stroke:#000000;stroke-width:0.11761414;stroke-linecap:square;stroke-linejoin:round;stroke-miterlimit:4;stroke-dasharray:none;stroke-dashoffset:0;stroke-opacity:1"
        d="m 27.68472,178.97482 a 2.3290126,6.5914672 0.21769965 1 1 -4.658099,0.0144 2.3290126,6.5914672 0.21769965 0 1 4.658099,-0.0144 z" />
    <path inkscape:connector-curvature="0" id="path3343"
        style="color:#000000;display:inline;overflow:visible;visibility:visible;opacity:1;fill:#e6e6e6;fill-opacity:1;fill-rule:evenodd;stroke:#000000;stroke-width:0.11761414;stroke-linecap:butt;stroke-linejoin:miter;stroke-miterlimit:4;stroke-dasharray:none;stroke-dashoffset:0;stroke-opacity:1;marker:none;marker-start:none;marker-mid:none;marker-end:none;enable-background:accumulate"
        d="m 22.37109,187.18487 0.138696,3.33432 -0.185644,13.35906 c -0.121322,1.32397 -0.94831,1.51254 -1.506744,2.13322 l -0.986539,24.37128 c -0.05104,2.24484 -2.281733,3.59041 -3.345681,5.22164 -1.027771,1.12854 -1.489415,7.56827 -1.086991,8.73776 0.878101,2.60029 2.740785,4.43844 3.348201,6.37528 0.688988,3.15026 0.764938,6.05624 0.998199,9.0249 -0.110462,3.25301 -1.652224,6.06059 -3.063584,8.85398 l -1.214078,2.16901 c -0.737733,1.00592 -0.603107,5.07977 0.01779,6.3856 1.537347,2.32407 2.445616,4.70152 2.137259,7.48 -0.559824,2.27063 -2.114282,3.82888 -2.94484,5.80759 -0.535161,1.89706 -0.362235,3.31949 -0.343614,4.84535 0.189049,2.97641 2.247725,3.49634 2.655656,5.42325 0.304967,1.94395 0.604922,4.04898 -0.0537,5.83532 -0.114666,0.55246 -1.036312,0.29086 -1.064452,1.06757 -0.159297,1.78009 -0.331384,3.55765 -0.01596,5.43153 0.231309,1.1773 0.09733,2.20903 -0.155773,3.19331 -1.090379,3.44772 -3.543832,4.51482 -6.7818503,3.87441 l -0.053158,5.65183 c 2.9086143,0.36518 7.9401783,0.60291 8.5268863,0.0837 2.946304,-2.49742 3.474393,-6.69125 4.386369,-10.65634 l 1.40157,-78.43041 4.188606,-5.62794 -0.547223,-45.43828 -1.508467,-0.26674 c 0.380647,-5.0542 0.224907,-11.16439 -0.237675,-11.41117 -0.879263,0.27645 -2.378341,8.39918 -2.70321,13.17098 z" />
    <path inkscape:connector-curvature="0" id="path3295"
        style="color:#000000;display:inline;overflow:visible;visibility:visible;opacity:1;fill:#e6e6e6;fill-opacity:1;fill-rule:evenodd;stroke:#000000;stroke-width:0.11761414;stroke-linecap:butt;stroke-linejoin:miter;stroke-miterlimit:4;stroke-dasharray:none;stroke-dashoffset:0;stroke-opacity:1;marker:none;marker-start:none;marker-mid:none;marker-end:none;enable-background:accumulate"
        d="m 28.849415,172.26476 -3.465152,0.12852 c 1.285638,-0.004 2.310969,2.94994 2.300278,6.58841 -0.01068,3.63846 -1.053402,6.5988 -2.33904,6.60278 l 3.140345,0.49082 c 4.426925,-3.75059 4.476205,-12.44097 0.363569,-13.81053 z" />
    <path inkscape:connector-curvature="0" id="path3321"
        style="color:#000000;display:inline;overflow:visible;visibility:visible;opacity:1;fill:#e6e6e6;fill-opacity:1;fill-rule:evenodd;stroke:#000000;stroke-width:0.11761414;stroke-linecap:butt;stroke-linejoin:miter;stroke-miterlimit:4;stroke-dasharray:none;stroke-dashoffset:0;stroke-opacity:1;marker:none;marker-start:none;marker-mid:none;marker-end:none;enable-background:accumulate"
        d="m 20.478207,236.03571 0.955788,203.13528 4.450151,0.29762 -0.847086,-204.90024 -4.558853,1.46734 z" />
    <path inkscape:connector-curvature="0" id="path3299"
        style="color:#000000;display:inline;overflow:visible;visibility:visible;opacity:1;fill:#cccccc;fill-opacity:1;fill-rule:evenodd;stroke:#000000;stroke-width:0.11761414;stroke-linecap:butt;stroke-linejoin:miter;stroke-miterlimit:4;stroke-dasharray:none;stroke-dashoffset:0;stroke-opacity:1;marker:none;marker-start:none;marker-mid:none;marker-end:none;enable-background:accumulate"
        d="m 19.455395,267.07534 c 13.806355,0.32422 15.423457,-0.0478 15.423457,-0.0478 1.828008,-0.45649 2.680714,-1.39969 3.422953,-2.39802 l -0.02683,9.13455 c -1.066264,-0.89667 -1.769247,-2.3153 -3.200983,-2.68889 -5.51736,-0.69032 -10.459172,-0.51285 -15.628356,-0.6782 -1.977117,-0.0857 -2.099909,-3.27206 0.0098,-3.32165 z" />
    <path inkscape:connector-curvature="0" id="path3204"
        style="opacity:1;fill:#cccccc;fill-opacity:1;stroke:#000000;stroke-width:0.14836119;stroke-linecap:square;stroke-linejoin:round;stroke-miterlimit:4;stroke-dasharray:none;stroke-dashoffset:0;stroke-opacity:1"
        d="m 53.655672,269.07151 a 8.4741444,8.9161052 3.407857 1 1 -16.951412,0.0525 8.4741444,8.9161052 3.407857 0 1 16.951412,-0.0525 z" />
    <path inkscape:connector-curvature="0" id="path3202"
        style="opacity:1;fill:#000000;fill-opacity:1;stroke:#000000;stroke-width:0.1125275;stroke-linecap:square;stroke-linejoin:round;stroke-miterlimit:4;stroke-dasharray:none;stroke-dashoffset:0;stroke-opacity:1"
        d="m 51.79408,268.85711 a 6.5589766,6.6269191 17.923758 1 1 -13.130825,0.0407 6.5589766,6.6269191 17.923758 0 1 13.130825,-0.0407 z" />
    <path inkscape:connector-curvature="0" id="path3303"
        style="color:#000000;display:inline;overflow:visible;visibility:visible;opacity:1;fill:#cccccc;fill-opacity:1;fill-rule:evenodd;stroke:#000000;stroke-width:0.11761414;stroke-linecap:butt;stroke-linejoin:miter;stroke-miterlimit:4;stroke-dasharray:none;stroke-dashoffset:0;stroke-opacity:1;marker:none;marker-start:none;marker-mid:none;marker-end:none;enable-background:accumulate"
        d="m 19.739892,240.70904 c 4.550968,0.92523 15.304241,1.54466 18.631761,0.14988 8.699324,-0.83143 4.854092,2.76081 0.09284,3.63274 -3.05143,-1.09859 -14.139898,-0.88906 -18.796444,0.18255 -2.454091,-0.59266 -2.471272,-3.47501 0.07188,-3.96517 z" />
    <path inkscape:connector-curvature="0" id="path3307"
        style="color:#000000;display:inline;overflow:visible;visibility:visible;opacity:1;fill:#cccccc;fill-opacity:1;fill-rule:evenodd;stroke:#000000;stroke-width:0.11761414;stroke-linecap:butt;stroke-linejoin:miter;stroke-miterlimit:4;stroke-dasharray:none;stroke-dashoffset:0;stroke-opacity:1;marker:none;marker-start:none;marker-mid:none;marker-end:none;enable-background:accumulate"
        d="m 20.551997,281.74456 36.535834,0.99191 -0.321216,3.63403 -36.021063,-0.40742 c -2.721391,-0.78677 -2.190199,-3.85281 -0.193555,-4.21852 z" />
    <path inkscape:connector-curvature="0" id="path3208"
        style="opacity:1;fill:#cccccc;fill-opacity:1;stroke:#000000;stroke-width:0.10675263;stroke-linecap:square;stroke-linejoin:round;stroke-miterlimit:4;stroke-dasharray:none;stroke-dashoffset:0;stroke-opacity:1"
        d="m 67.087555,284.54815 a 5.3391447,7.3268264 0.560003 0 1 -10.678653,0.0331 5.3391447,7.3268264 0.560003 1 1 10.678653,-0.0331 z" />
    <path inkscape:connector-curvature="0" id="path3311"
        style="color:#000000;display:inline;overflow:visible;visibility:visible;opacity:1;fill:#cccccc;fill-opacity:1;fill-rule:evenodd;stroke:#000000;stroke-width:0.11761414;stroke-linecap:butt;stroke-linejoin:miter;stroke-miterlimit:4;stroke-dasharray:none;stroke-dashoffset:0;stroke-opacity:1;marker:none;marker-start:none;marker-mid:none;marker-end:none;enable-background:accumulate"
        d="m 19.570304,298.42283 c 5.386198,0.35561 10.631323,0.79203 15.240912,0.17298 2.510455,-1.03419 3.442414,-2.8561 5.163081,-4.28443 l -0.857676,12.56994 c -0.649143,-1.33939 -3.003665,-3.4732 -4.376566,-3.66984 -5.655657,-1.02389 -10.143738,-0.84877 -15.801508,-1.15366 -1.905594,-0.67435 -1.909512,-3.58106 0.631757,-3.63499 z" />
    <path inkscape:connector-curvature="0" id="path3218"
        style="opacity:1;fill:#cccccc;fill-opacity:1;stroke:#000000;stroke-width:0.15014695;stroke-linecap:square;stroke-linejoin:round;stroke-miterlimit:4;stroke-dasharray:none;stroke-dashoffset:0;stroke-opacity:1"
        d="m 53.975223,300.92538 a 8.6788404,8.9166501 6.4484494 1 1 -17.363682,0.0538 8.6788404,8.9166501 6.4484494 0 1 17.363682,-0.0538 z" />
    <path inkscape:connector-curvature="0" id="path3216"
        style="opacity:1;fill:#000000;fill-opacity:1;stroke:#000000;stroke-width:0.1125275;stroke-linecap:square;stroke-linejoin:round;stroke-miterlimit:4;stroke-dasharray:none;stroke-dashoffset:0;stroke-opacity:1"
        d="m 51.70047,300.71225 a 6.5589766,6.6269191 17.923758 1 1 -13.130825,0.0407 6.5589766,6.6269191 17.923758 0 1 13.130825,-0.0407 z" />
    <path inkscape:connector-curvature="0" id="path3220"
        style="opacity:1;fill:#000000;fill-opacity:1;stroke:#000000;stroke-width:0.11761414;stroke-linecap:square;stroke-linejoin:round;stroke-miterlimit:4;stroke-dasharray:none;stroke-dashoffset:0;stroke-opacity:1"
        d="m 55.188827,328.25993 a 6.273792,6.4795648 84.603432 1 1 -12.955491,0.0401 6.273792,6.4795648 84.603432 1 1 12.955491,-0.0401 z" />
    <path inkscape:connector-curvature="0" id="path3313"
        style="color:#000000;display:inline;overflow:visible;visibility:visible;opacity:1;fill:#e6e6e6;fill-opacity:1;fill-rule:evenodd;stroke:#000000;stroke-width:0.11761414;stroke-linecap:butt;stroke-linejoin:miter;stroke-miterlimit:4;stroke-dasharray:none;stroke-dashoffset:0;stroke-opacity:1;marker:none;marker-start:none;marker-mid:none;marker-end:none;enable-background:accumulate"
        d="m 20.951244,357.58503 c 1.469368,0.0565 12.081443,0.6069 18.423242,-0.0571 l -0.116623,4.46379 c -6.026299,-1.00226 -14.072077,0.0441 -18.217713,-0.15116 -1.958644,-0.0283 -1.757648,-4.33759 -0.08891,-4.25556 z" />
    <path inkscape:connector-curvature="0" id="path3222"
        style="opacity:1;fill:#cccccc;fill-opacity:1;stroke:#000000;stroke-width:0.11761414;stroke-linecap:square;stroke-linejoin:round;stroke-miterlimit:4;stroke-dasharray:none;stroke-dashoffset:0;stroke-opacity:1"
        d="m 53.632635,359.6792 a 7.6096544,7.8196011 6.4042455 1 1 -15.224533,0.0472 7.6096544,7.8196011 6.4042455 1 1 15.224533,-0.0472 z" />
    <path inkscape:connector-curvature="0" id="path3315"
        style="color:#000000;display:inline;overflow:visible;visibility:visible;opacity:1;fill:#cccccc;fill-opacity:1;fill-rule:evenodd;stroke:#000000;stroke-width:0.11761414;stroke-linecap:butt;stroke-linejoin:miter;stroke-miterlimit:4;stroke-dasharray:none;stroke-dashoffset:0;stroke-opacity:1;marker:none;marker-start:none;marker-mid:none;marker-end:none;enable-background:accumulate"
        d="m 21.072781,376.47641 c 1.218242,0.44318 3.199951,0.8146 4.563448,0.72315 2.091397,1.06229 5.155402,0.2859 7.77945,0.27662 2.160802,-0.72391 3.54612,-2.74788 5.291373,-4.16843 l -0.760895,12.35466 c -1.356661,-1.50274 -2.542694,-3.1577 -4.568431,-4.06353 -2.330757,-0.29271 -5.081942,-0.66076 -7.71529,-0.12481 -0.745563,0.87618 -3.250376,0.90472 -4.462509,0.68154 -1.513079,-0.27359 -4.663275,-3.70497 -0.127146,-5.6792 z" />
    <path inkscape:connector-curvature="0" id="path3230"
        style="opacity:1;fill:#cccccc;fill-opacity:1;stroke:#000000;stroke-width:0.17909266;stroke-linecap:square;stroke-linejoin:round;stroke-miterlimit:4;stroke-dasharray:none;stroke-dashoffset:0;stroke-opacity:1"
        d="m 56.24157,380.1518 a 10.359482,10.627911 6.8211746 1 1 -20.72654,0.0642 10.359482,10.627911 6.8211746 0 1 20.72654,-0.0642 z" />
    <path inkscape:connector-curvature="0" id="path3228"
        style="opacity:1;fill:#000000;fill-opacity:1;stroke:#000000;stroke-width:0.13583638;stroke-linecap:square;stroke-linejoin:round;stroke-miterlimit:4;stroke-dasharray:none;stroke-dashoffset:0;stroke-opacity:1"
        d="m 53.965282,379.89648 a 7.886042,8.0316271 80.360475 1 1 -16.055095,0.0497 7.886042,8.0316271 80.360475 0 1 16.055095,-0.0497 z" />
    <path inkscape:connector-curvature="0" id="path3317"
        style="color:#000000;display:inline;overflow:visible;visibility:visible;opacity:1;fill:#cccccc;fill-opacity:1;fill-rule:evenodd;stroke:#000000;stroke-width:0.11761414;stroke-linecap:butt;stroke-linejoin:miter;stroke-miterlimit:4;stroke-dasharray:none;stroke-dashoffset:0;stroke-opacity:1;marker:none;marker-start:none;marker-mid:none;marker-end:none;enable-background:accumulate"
        d="m 20.289437,405.95827 c 4.265064,0.43051 8.518269,0.95396 12.938542,0.16752 1.862312,-0.52971 3.112574,-2.29231 4.668155,-3.43989 l -0.860436,11.00556 c -1.213845,-1.23931 -2.02653,-2.88096 -3.79961,-3.5594 -4.027603,-1.11001 -8.421417,-0.40947 -12.751827,-0.0224 -3.137678,-0.33707 -2.637089,-4.00711 -0.194824,-4.15142 z" />
    <path inkscape:connector-curvature="0" id="path3234"
        style="opacity:1;fill:#cccccc;fill-opacity:1;stroke:#000000;stroke-width:0.17909266;stroke-linecap:square;stroke-linejoin:round;stroke-miterlimit:4;stroke-dasharray:none;stroke-dashoffset:0;stroke-opacity:1"
        d="m 56.15896,408.26359 a 10.359482,10.627911 6.8211746 1 1 -20.72654,0.0642 10.359482,10.627911 6.8211746 0 1 20.72654,-0.0642 z" />
    <path inkscape:connector-curvature="0" id="path3232"
        style="opacity:1;fill:#000000;fill-opacity:1;stroke:#000000;stroke-width:0.13583638;stroke-linecap:square;stroke-linejoin:round;stroke-miterlimit:4;stroke-dasharray:none;stroke-dashoffset:0;stroke-opacity:1"
        d="m 53.882672,408.00828 a 7.886042,8.0316271 80.360475 1 1 -16.055095,0.0497 7.886042,8.0316271 80.360475 0 1 16.055095,-0.0497 z" />
    <path inkscape:connector-curvature="0" id="path3319"
        style="color:#000000;display:inline;overflow:visible;visibility:visible;opacity:1;fill:#cccccc;fill-opacity:1;fill-rule:evenodd;stroke:#000000;stroke-width:0.11761414;stroke-linecap:butt;stroke-linejoin:miter;stroke-miterlimit:4;stroke-dasharray:none;stroke-dashoffset:0;stroke-opacity:1;marker:none;marker-start:none;marker-mid:none;marker-end:none;enable-background:accumulate"
        d="m 20.731968,431.49191 c 3.795703,0.0222 7.750156,1.53581 11.591347,0.69069 1.534551,-0.16181 2.074131,-1.32123 3.111192,-1.98185 l -0.128528,8.51207 c -1.071896,-0.90186 -1.788571,-2.15997 -3.225864,-2.69536 -1.930461,-0.94124 -7.537198,-0.27488 -11.050722,-0.063 -3.10289,-0.31594 -2.807695,-4.37062 -0.297425,-4.46251 z" />
    <path inkscape:connector-curvature="0" id="path3238"
        style="opacity:1;fill:#cccccc;fill-opacity:1;stroke:#000000;stroke-width:0.20701292;stroke-linecap:square;stroke-linejoin:round;stroke-miterlimit:4;stroke-dasharray:none;stroke-dashoffset:0;stroke-opacity:1"
        d="m 57.969872,434.82816 a 12.085596,12.171869 29.026404 1 1 -24.21182,0.075 12.085596,12.171869 29.026404 0 1 24.21182,-0.075 z" />
    <path inkscape:connector-curvature="0" id="path3236"
        style="opacity:1;fill:#000000;fill-opacity:1;stroke:#000000;stroke-width:0.16076651;stroke-linecap:square;stroke-linejoin:round;stroke-miterlimit:4;stroke-dasharray:none;stroke-dashoffset:0;stroke-opacity:1"
        d="m 55.307676,434.97666 a 9.3671218,9.4714266 16.512041 0 1 -18.751098,0.0581 9.3671218,9.4714266 16.512041 0 1 18.751098,-0.0581 z" />
    <path inkscape:connector-curvature="0" id="path3200"
        style="display:inline;opacity:1;fill:#cccccc;fill-opacity:1;stroke:#000000;stroke-width:0.11158212;stroke-linecap:square;stroke-linejoin:round;stroke-miterlimit:4;stroke-dasharray:none;stroke-dashoffset:0;stroke-opacity:1"
        d="m 40.404909,219.14384 a 6.5157794,6.5592358 32.61735 1 1 -13.056814,0.0404 6.5157794,6.5592358 32.61735 0 1 13.056814,-0.0404 z" />
    <path inkscape:connector-curvature="0" id="path3920"
        style="color:#000000;display:inline;overflow:visible;visibility:visible;opacity:1;fill:#e6e6e6;fill-opacity:1;fill-rule:evenodd;stroke:#000000;stroke-width:0.11761414;stroke-linecap:butt;stroke-linejoin:miter;stroke-miterlimit:4;stroke-dasharray:none;stroke-dashoffset:0;stroke-opacity:1;marker:none;marker-start:none;marker-mid:none;marker-end:none;enable-background:accumulate"
        d="m 58.637777,202.66478 c 0.214132,10.1087 1.106492,22.3576 0.429968,32.29032 1.252112,0.70302 2.637785,0.19536 4.666991,-0.26776 l 0.0069,-2.34877 c 4.544891,1.64708 4.439616,5.98374 4.802828,9.5269 0.121249,3.72085 -1.7932,4.97583 -2.663058,9.55002 -1.639135,8.30856 0.350334,12.88193 2.005457,14.96704 0.985423,1.01095 2.032572,1.71668 3.215398,1.7516 1.991585,-0.2526 3.400755,-3.63087 3.819941,-4.70933 1.123249,-1.33175 1.718231,-13.22649 1.65083,-13.80398 -0.04335,-3.69936 -3.595816,-13.04466 -4.021226,-13.96992 -0.50464,-1.50311 -5.762724,-10.54326 -6.005907,-11.10124 -1.255188,-4.96113 -1.374515,-14.98958 -2.005457,-14.96703 -0.770473,0.01 -1.515923,0.007 -1.902525,-0.1776 0.163707,-0.0673 0.44271,0.0197 0.476418,-0.22167 -0.06672,-1.88271 -0.229032,-3.86132 -0.166489,-5.61446 -1.379192,0.2367 -3.916175,-0.91227 -4.31007,-0.90412 z" />
    <path inkscape:connector-curvature="0" id="path3922"
        style="color:#000000;display:inline;overflow:visible;visibility:visible;opacity:1;fill:#cccccc;fill-opacity:1;fill-rule:evenodd;stroke:#000000;stroke-width:0.11761414;stroke-linecap:butt;stroke-linejoin:miter;stroke-miterlimit:4;stroke-dasharray:none;stroke-dashoffset:0;stroke-opacity:1;marker:none;marker-start:none;marker-mid:none;marker-end:none;enable-background:accumulate"
        d="m 40.360253,218.46533 c 8.236989,-0.50377 17.374755,-0.51882 25.26397,-0.67379 3.086614,0.0703 3.236243,2.76683 0.126609,3.33256 -7.83668,0.6278 -17.998166,0.77299 -25.838379,0.27855 -9.88691,-0.39424 -9.683155,-1.9556 0.4478,-2.93732 z" />
    <path inkscape:connector-curvature="0" id="path3329"
        style="opacity:1;fill:#b3b3b3;fill-opacity:1;stroke:#000000;stroke-width:0.11761414;stroke-linecap:square;stroke-linejoin:round;stroke-miterlimit:4;stroke-dasharray:none;stroke-dashoffset:0;stroke-opacity:1"
        d="m 27.017149,441.38539 a 3.7244751,3.7907649 10.000667 1 1 -7.452946,0.0231 3.7244751,3.7907649 10.000667 1 1 7.452946,-0.0231 z" />
    <path inkscape:connector-curvature="0" id="path3345"
        style="color:#000000;display:inline;overflow:visible;visibility:visible;opacity:1;fill:#e6e6e6;fill-opacity:1;fill-rule:evenodd;stroke:#000000;stroke-width:0.11761414;stroke-linecap:butt;stroke-linejoin:miter;stroke-miterlimit:4;stroke-dasharray:none;stroke-dashoffset:0;stroke-opacity:1;marker:none;marker-start:none;marker-mid:none;marker-end:none;enable-background:accumulate"
        d="m 5.5073451,325.36412 c 0.7746638,0.88211 1.4767204,1.26049 2.414271,1.64136 1.2498276,0.23346 1.7728503,-1.30911 2.1168639,-2.31231 0.0982,-1.50685 0.02611,-3.03453 -0.4256177,-4.60865 -2.6713368,-5.4463 -8.1194212,1.06472 -4.1055172,5.2796 z" />
    <path inkscape:connector-curvature="0" id="path3347"
        style="color:#000000;display:inline;overflow:visible;visibility:visible;opacity:1;fill:#cccccc;fill-opacity:1;fill-rule:evenodd;stroke:#000000;stroke-width:0.11761414;stroke-linecap:butt;stroke-linejoin:miter;stroke-miterlimit:4;stroke-dasharray:none;stroke-dashoffset:0;stroke-opacity:1;marker:none;marker-start:none;marker-mid:none;marker-end:none;enable-background:accumulate"
        d="m 64.711505,295.06516 4.813065,0.0889 -0.01411,22.42102 -4.037324,0.11632 -0.761611,-22.62623 z" />
    <path inkscape:connector-curvature="0" id="path3353"
        style="color:#000000;display:inline;overflow:visible;visibility:visible;opacity:1;fill:#cccccc;fill-opacity:1;fill-rule:evenodd;stroke:#000000;stroke-width:0.11761414;stroke-linecap:butt;stroke-linejoin:miter;stroke-miterlimit:4;stroke-dasharray:none;stroke-dashoffset:0;stroke-opacity:1;marker:none;marker-start:none;marker-mid:none;marker-end:none;enable-background:accumulate"
        d="m 40.941103,317.55978 c -0.158484,-0.64522 0.249179,-1.15016 0.625962,-1.66276 5.096615,-2.47177 13.606694,-4.11212 19.485801,-8.67583 1.156114,-1.19028 2.406248,-2.33364 2.496211,-4.05596 l 0.744415,-6.74936 c 0.165156,-0.5959 2.507616,-0.74605 2.691339,-0.008 l 0.708432,5.49925 c 0.451253,0.53074 1.637094,0.46349 2.482486,0.61512 1.322493,0.39753 1.255776,1.77103 0.142906,2.57005 -0.791085,0.34154 -1.996207,0.15927 -2.690566,1.38227 -2.258652,4.91301 -6.580765,6.24006 -10.22168,8.75094 -3.569203,1.56398 -5.882237,3.00678 -14.811841,3.2637 -0.662163,-0.11554 -1.509269,0.0924 -1.653465,-0.92908 z" />
    <path inkscape:connector-curvature="0" id="path3371"
        style="color:#000000;display:inline;overflow:visible;visibility:visible;opacity:1;fill:#e6e6e6;fill-opacity:1;fill-rule:evenodd;stroke:#000000;stroke-width:0.11761414;stroke-linecap:butt;stroke-linejoin:miter;stroke-miterlimit:4;stroke-dasharray:none;stroke-dashoffset:0;stroke-opacity:1;marker:none;marker-start:none;marker-mid:none;marker-end:none;enable-background:accumulate"
        d="m 20.838547,351.15188 4.925097,0.0716 c 1.064154,0.0317 1.1923,6.18589 0.04853,6.28247 l -5.03186,-0.13702 c -1.360151,-0.39171 -1.514323,-5.74668 0.0582,-6.21702 z" />
    <path inkscape:connector-curvature="0" id="path3381"
        style="color:#000000;display:inline;overflow:visible;visibility:visible;opacity:1;fill:#e6e6e6;fill-opacity:1;fill-rule:evenodd;stroke:#000000;stroke-width:0.11761414;stroke-linecap:butt;stroke-linejoin:miter;stroke-miterlimit:4;stroke-dasharray:none;stroke-dashoffset:0;stroke-opacity:1;marker:none;marker-start:none;marker-mid:none;marker-end:none;enable-background:accumulate"
        d="m 28.424204,319.93872 c 0.676578,-0.0353 1.33102,0.0602 2.199081,-1.10778 4.271736,-0.44593 3.696351,5.1793 1.665577,6.0869 -0.560656,-0.92519 -1.506443,-1.36821 -2.850714,-1.31234 l -1.013944,-3.66678 z" />
    <path inkscape:connector-curvature="0" id="path3379"
        style="color:#000000;display:inline;overflow:visible;visibility:visible;opacity:1;fill:#e6e6e6;fill-opacity:1;fill-rule:evenodd;stroke:#000000;stroke-width:0.11761414;stroke-linecap:butt;stroke-linejoin:miter;stroke-miterlimit:4;stroke-dasharray:none;stroke-dashoffset:0;stroke-opacity:1;marker:none;marker-start:none;marker-mid:none;marker-end:none;enable-background:accumulate"
        d="m 30.624924,323.24889 c -0.27549,3.18112 0.87897,9.91467 1.978395,13.64368 4.635203,12.05595 22.588597,5.01901 24.106375,4.07735 2.351922,-2.68274 4.654639,-5.61568 7.266358,-6.97716 2.072174,-0.65508 4.970408,-0.62025 7.038594,0.082 4.1523,1.75181 4.379758,4.38982 3.60161,7.25489 -1.800129,4.40504 -5.111262,5.54725 -8.815706,5.84016 -2.520161,0.46467 -5.037695,0.0325 -7.554633,-0.5994 -11.94755,2.69246 -24.890728,4.05496 -29.27349,-6.96777 -1.695082,-4.05886 -1.644828,-13.41669 -1.86467,-17.12136 -0.351191,-0.73652 -0.74706,-1.45053 -0.563325,-2.45651 1.383192,-1.38692 2.607058,-1.39326 3.982948,-0.29212 0.372851,1.15468 0.871292,2.27342 0.09754,3.51624 z" />
    <path inkscape:connector-curvature="0" id="path3573"
        style="color:#000000;display:inline;overflow:visible;visibility:visible;opacity:1;fill:#e6e6e6;fill-opacity:1;fill-rule:evenodd;stroke:#000000;stroke-width:0.11761414;stroke-linecap:butt;stroke-linejoin:miter;stroke-miterlimit:4;stroke-dasharray:none;stroke-dashoffset:0;stroke-opacity:1;marker:none;marker-start:none;marker-mid:none;marker-end:none;enable-background:accumulate"
        d="m 28.597813,460.1289 c -0.762239,1.51795 -16.973063,-3.08637 -16.512063,-10.15121 2.560346,-6.13398 20.177176,-3.13048 25.756836,2.56255 l -9.244773,7.58866 z" />
    <path inkscape:connector-curvature="0" id="path3568"
        style="color:#000000;display:inline;overflow:visible;visibility:visible;opacity:1;fill:#ececec;fill-opacity:1;fill-rule:evenodd;stroke:#000000;stroke-width:0.11761414;stroke-linecap:butt;stroke-linejoin:miter;stroke-miterlimit:4;stroke-dasharray:none;stroke-dashoffset:0;stroke-opacity:1;marker:none;marker-start:none;marker-mid:none;marker-end:none;enable-background:accumulate"
        d="m 18.102362,462.17778 c -3.362867,0.11521 -6.212542,1.02667 -7.585371,3.35071 -2.5384163,4.26649 13.490964,12.54413 21.263698,11.25357 5.151252,1.80075 5.355031,4.79726 6.634195,7.53384 0,0 1.255286,17.39857 1.181237,17.6924 -0.07406,0.29383 1.673677,-0.005 1.673677,-0.005 l 0.235981,69.14833 4.845519,0.1911 -0.234112,-90.20106 c -0.700917,-5.22049 -2.51042,-10.13114 -8.826977,-13.78205 l 0.0589,-0.0591 c -2.003845,-1.66024 -11.848437,-5.37604 -19.246746,-5.12258 z" />
    <path inkscape:connector-curvature="0" id="path3566"
        style="color:#000000;display:inline;overflow:visible;visibility:visible;opacity:1;fill:#e6e6e6;fill-opacity:1;fill-rule:evenodd;stroke:#000000;stroke-width:0.11761414;stroke-linecap:butt;stroke-linejoin:miter;stroke-miterlimit:4;stroke-dasharray:none;stroke-dashoffset:0;stroke-opacity:1;marker:none;marker-start:none;marker-mid:none;marker-end:none;enable-background:accumulate"
        d="m 22.644652,468.44135 c 0.02903,-3.22961 17.418799,-4.44038 27.505539,5.27286 2.371252,2.41987 2.905484,24.18797 2.670758,37.64505 -2.372201,0.72034 -3.47659,0.4619 -4.904699,0.23539 -0.347517,-9.07909 0.07586,-19.87021 -1.159768,-28.76853 0.04799,-1.2701 -0.933744,-2.02151 -2.041484,-2.70942 -8.038258,-0.5952 -22.115482,-0.17101 -22.070346,-11.67535 z" />
    <path inkscape:connector-curvature="0" id="path3581"
        style="opacity:1;fill:#e6e6e6;fill-opacity:1;stroke:#000000;stroke-width:0.11207988;stroke-linecap:square;stroke-linejoin:round;stroke-miterlimit:4;stroke-dasharray:none;stroke-dashoffset:0;stroke-opacity:1"
        d="m 29.968703,494.678 a 5.0748272,12.355292 0.2385516 1 1 -10.149828,0.0314 5.0748272,12.355292 0.2385516 1 1 10.149828,-0.0314 z" />
    <path inkscape:connector-curvature="0" id="path3577"
        style="color:#000000;display:inline;overflow:visible;visibility:visible;opacity:1;fill:#b3b3b3;fill-opacity:1;fill-rule:evenodd;stroke:#000000;stroke-width:0.11761414;stroke-linecap:butt;stroke-linejoin:miter;stroke-miterlimit:4;stroke-dasharray:none;stroke-dashoffset:0;stroke-opacity:1;marker:none;marker-start:none;marker-mid:none;marker-end:none;enable-background:accumulate"
        d="m 29.134374,482.29719 c -1.282229,0.0236 -2.626918,0.10983 -3.846696,0.0708 2.556168,0.62515 4.533937,5.8705 4.51515,12.26431 -0.02004,6.82004 -2.276614,12.40065 -5.077963,12.40933 l 5.15821,0.25149 c 5.081057,-2.2868 6.853408,-20.75077 -0.748701,-24.99594 z" />
    <path inkscape:connector-curvature="0" id="path3583"
        style="color:#000000;display:inline;overflow:visible;visibility:visible;opacity:1;fill:#e6e6e6;fill-opacity:1;fill-rule:evenodd;stroke:#000000;stroke-width:0.11761414;stroke-linecap:butt;stroke-linejoin:miter;stroke-miterlimit:4;stroke-dasharray:none;stroke-dashoffset:0;stroke-opacity:1;marker:none;marker-start:none;marker-mid:none;marker-end:none;enable-background:accumulate"
        d="m 29.908021,495.29874 c 4.459915,1.26294 7.972164,1.72474 13.331245,1.60397 3.645626,0.10982 6.669862,-0.4056 9.940463,-0.86121 1.749845,-0.0894 2.401635,2.76654 0.711423,3.82926 -4.141501,1.40941 -7.617479,1.56724 -12.144256,1.41401 -7.383015,-0.26072 -12.660542,-3.85437 -19.342624,-4.81872 -0.655915,-0.11851 -1.296004,-0.36627 -1.446746,-0.82592 -4.06e-4,-0.50145 0.27224,-0.85375 1.011997,-0.93734 2.154093,0.23551 5.651806,0.69083 7.938498,0.59595 z" />
    <path inkscape:connector-curvature="0" id="path3587"
        style="opacity:1;fill:#e6e6e6;fill-opacity:1;stroke:#000000;stroke-width:0.10162325;stroke-linecap:square;stroke-linejoin:round;stroke-miterlimit:4;stroke-dasharray:none;stroke-dashoffset:0;stroke-opacity:1"
        d="m 28.025787,558.8329 a 4.9248569,12.152948 0.23631667 1 1 -9.849881,0.0305 4.9248569,12.152948 0.23631667 1 1 9.849881,-0.0305 z" />
    <path inkscape:connector-curvature="0" id="path3595"
        style="color:#000000;display:inline;overflow:visible;visibility:visible;opacity:1;fill:#cccccc;fill-opacity:1;fill-rule:evenodd;stroke:#000000;stroke-width:0.11761414;stroke-linecap:butt;stroke-linejoin:miter;stroke-miterlimit:4;stroke-dasharray:none;stroke-dashoffset:0;stroke-opacity:1;marker:none;marker-start:none;marker-mid:none;marker-end:none;enable-background:accumulate"
        d="m 27.855531,546.23367 -4.334731,0.52097 c 2.536137,0.48048 4.534434,5.70124 4.515668,12.08764 -0.01876,6.38643 -2.047695,11.59017 -4.586702,12.0864 l 5.989485,0.15811 c 4.990782,-2.85 6.168451,-20.6362 -1.58372,-24.85312 z" />
    <path inkscape:connector-curvature="0" id="path3600"
        style="color:#000000;display:inline;overflow:visible;visibility:visible;opacity:1;fill:#cccccc;fill-opacity:1;fill-rule:evenodd;stroke:#000000;stroke-width:0.11761414;stroke-linecap:butt;stroke-linejoin:miter;stroke-miterlimit:4;stroke-dasharray:none;stroke-dashoffset:0;stroke-opacity:1;marker:none;marker-start:none;marker-mid:none;marker-end:none;enable-background:accumulate"
        d="m 20.621616,559.09449 c 4.964609,0.60835 9.813009,1.7346 15.149181,0.68705 4.175772,0.51114 6.636967,1.21858 5.55591,2.33153 1.428887,1.08374 3.491483,0.48416 5.4894,0.0564 1.494343,-0.13889 2.004689,0.3818 2.339217,1.02033 -0.664802,0.20071 -1.341389,0.45973 -2.200591,1.62159 -5.813649,2.01956 -6.702397,-1.08857 -10.68192,-1.50828 -7.845798,-1.20648 -13.270137,-2.59386 -15.651197,-4.20861 z" />
    <path inkscape:connector-curvature="0" id="path3602"
        style="opacity:1;fill:#cccccc;fill-opacity:1;stroke:#000000;stroke-width:0.11761414;stroke-linecap:square;stroke-linejoin:round;stroke-miterlimit:4;stroke-dasharray:none;stroke-dashoffset:0;stroke-opacity:1"
        d="m 47.950902,574.53355 a 4.242098,4.2970496 13.980802 1 1 -8.490612,0.0263 4.242098,4.2970496 13.980802 0 1 8.490612,-0.0263 z" />
    <path inkscape:connector-curvature="0" id="path3610"
        style="opacity:1;fill:#e6e6e6;fill-opacity:1;stroke:#000000;stroke-width:0.11327125;stroke-linecap:square;stroke-linejoin:round;stroke-miterlimit:4;stroke-dasharray:none;stroke-dashoffset:0;stroke-opacity:1"
        d="m 71.803261,528.47567 a 6.0771697,12.259843 0.28102927 1 1 -12.154574,0.0377 6.0771697,12.259843 0.28102927 1 1 12.154574,-0.0377 z" />
    <path inkscape:connector-curvature="0" id="path3612"
        style="color:#000000;display:inline;overflow:visible;visibility:visible;opacity:1;fill:#b3b3b3;fill-opacity:1;fill-rule:evenodd;stroke:#000000;stroke-width:0.11761414;stroke-linecap:butt;stroke-linejoin:miter;stroke-miterlimit:4;stroke-dasharray:none;stroke-dashoffset:0;stroke-opacity:1;marker:none;marker-start:none;marker-mid:none;marker-end:none;enable-background:accumulate"
        d="m 65.399682,516.27136 c -1.767448,0.14864 -4.766214,0.11184 -5.302345,0.4459 -9.989311,8.039 -3.282421,23.03038 -0.180151,24.50687 l 5.921764,-0.43205 c -4.898395,-0.60515 -5.774425,-7.25496 -6.178014,-12.28712 0.01864,-6.34441 2.673626,-11.59592 5.738746,-12.2336 z" />
    <path inkscape:connector-curvature="0" id="path3617"
        style="color:#000000;display:inline;overflow:visible;visibility:visible;opacity:1;fill:#e6e6e6;fill-opacity:1;fill-rule:evenodd;stroke:#000000;stroke-width:0.11761414;stroke-linecap:butt;stroke-linejoin:miter;stroke-miterlimit:4;stroke-dasharray:none;stroke-dashoffset:0;stroke-opacity:1;marker:none;marker-start:none;marker-mid:none;marker-end:none;enable-background:accumulate"
        d="m 39.73597,530.55675 c 0.15664,-0.83744 1.077116,-1.21685 2.20016,-1.47479 3.17095,0.0393 4.447906,0.28471 9.609173,-0.28037 5.209216,-1.04186 11.933875,-1.10209 17.915552,-0.97927 0.487967,-0.002 0.63407,0.0959 0.43831,0.29224 -3.710314,0.6151 -7.63005,2.04663 -11.34323,3.63686 -3.049175,-0.11363 -6.437885,0.2718 -9.681572,0.7388 -0.520962,1.03305 -0.545627,1.09407 -1.827535,0.9798 l -3.804835,-0.4286 c -1.237866,-0.74504 -3.137331,-0.69471 -3.506023,-2.48467 z" />
    <path inkscape:connector-curvature="0" id="path3651"
        style="color:#000000;display:inline;overflow:visible;visibility:visible;opacity:1;fill:#e6e6e6;fill-opacity:1;fill-rule:evenodd;stroke:#000000;stroke-width:0.11761414;stroke-linecap:butt;stroke-linejoin:miter;stroke-miterlimit:4;stroke-dasharray:none;stroke-dashoffset:0;stroke-opacity:1;marker:none;marker-start:none;marker-mid:none;marker-end:none;enable-background:accumulate"
        d="m 66.017768,354.46625 c 3.013643,-7.26139 17.18337,-12.8847 18.897642,-4.60924 -0.284197,7.16158 -8.823188,7.43363 -13.353811,11.05111 l -5.543831,-6.44187 z" />
    <path inkscape:connector-curvature="0" id="path3653"
        style="color:#000000;display:inline;overflow:visible;visibility:visible;opacity:1;fill:#ececec;fill-opacity:1;fill-rule:evenodd;stroke:#000000;stroke-width:0.11761414;stroke-linecap:butt;stroke-linejoin:miter;stroke-miterlimit:4;stroke-dasharray:none;stroke-dashoffset:0;stroke-opacity:1;marker:none;marker-start:none;marker-mid:none;marker-end:none;enable-background:accumulate"
        d="m 70.531686,362.67288 c 0.523197,-1.24384 1.607789,-2.32844 4.839061,-2.80413 7.86037,2.94645 7.958246,9.47983 6.538364,16.71455 -1.823675,5.29086 -6.140013,8.77105 -6.628086,13.81941 -0.307748,6.90395 0.481405,14.53924 -0.939158,20.70122 -2.540102,5.09922 -2.174702,8.44437 -2.964457,12.4869 l -0.874303,48.44557 -0.01682,5.72512 c 0.01221,1.53531 -0.660306,2.71236 -1.912122,3.08864 -0.83002,0.16487 -1.659089,0.006 -2.488629,0.008 l 1.093584,-73.25486 2.948938,-7.20217 0.403631,-37.72796 z" />
    <path inkscape:connector-curvature="0" id="path3625"
        style="color:#000000;display:inline;overflow:visible;visibility:visible;opacity:1;fill:#cccccc;fill-opacity:1;fill-rule:evenodd;stroke:#000000;stroke-width:0.11761414;stroke-linecap:butt;stroke-linejoin:miter;stroke-miterlimit:4;stroke-dasharray:none;stroke-dashoffset:0;stroke-opacity:1;marker:none;marker-start:none;marker-mid:none;marker-end:none;enable-background:accumulate"
        d="m 59.558062,360.79851 4.978551,-0.45582 0.805624,149.28961 -4.611926,0.23448 -1.172249,-149.06827 z" />
    <path inkscape:connector-curvature="0" id="path3619"
        style="color:#000000;display:inline;overflow:visible;visibility:visible;opacity:1;fill:#e6e6e6;fill-opacity:1;fill-rule:evenodd;stroke:#000000;stroke-width:0.11761414;stroke-linecap:butt;stroke-linejoin:miter;stroke-miterlimit:4;stroke-dasharray:none;stroke-dashoffset:0;stroke-opacity:1;marker:none;marker-start:none;marker-mid:none;marker-end:none;enable-background:accumulate"
        d="m 47.586069,504.76963 c -1.057068,0.10229 -0.734923,3.97679 -0.01119,4.0954 2.943729,-0.15683 8.59796,-0.75788 12.794854,-0.83208 2.708664,0.83971 7.096651,0.38898 7.253191,-2.37122 -0.263092,-3.92861 -5.201151,-2.81568 -7.973715,-1.51666 -4.021318,0.30049 -8.042916,0.69583 -12.063142,0.62456 z" />
    <path inkscape:connector-curvature="0" id="path3665"
        style="color:#000000;display:inline;overflow:visible;visibility:visible;opacity:1;fill:#ececec;fill-opacity:1;fill-rule:evenodd;stroke:#000000;stroke-width:0.11761414;stroke-linecap:butt;stroke-linejoin:miter;stroke-miterlimit:4;stroke-dasharray:none;stroke-dashoffset:0;stroke-opacity:1;marker:none;marker-start:none;marker-mid:none;marker-end:none;enable-background:accumulate"
        d="m 56.841414,472.27757 c 3.525754,0.55333 7.204104,0.65114 11.284161,-0.45015 1.454186,-0.66037 2.148868,-1.49761 2.503719,-2.70659 1.786848,-0.71035 3.938939,0.79123 3.605998,1.85725 -0.940328,2.31654 -3.932914,3.72279 -8.087448,4.59229 l -10.148871,1.58846 0.842441,-4.88126 z" />
    <path inkscape:connector-curvature="0" id="path3564"
        style="color:#000000;display:inline;overflow:visible;visibility:visible;opacity:1;fill:#ececec;fill-opacity:1;fill-rule:evenodd;stroke:#000000;stroke-width:0.11761414;stroke-linecap:butt;stroke-linejoin:miter;stroke-miterlimit:4;stroke-dasharray:none;stroke-dashoffset:0;stroke-opacity:1;marker:none;marker-start:none;marker-mid:none;marker-end:none;enable-background:accumulate"
        d="m 26.46283,453.89514 c 2.79541,-7.14219 22.06986,-0.007 30.099944,5.02339 1.521786,1.59869 0.695455,5.64339 0.487563,8.43676 0.06679,3.04269 0.657606,0.35563 0.806612,6.57995 l 0.537698,12.74804 c -0.0357,0.4124 -3.929057,0.87851 -4.142366,0.63563 -0.343941,-0.0255 -0.06123,-12.37483 -0.09185,-18.56225 -0.143798,-2.62485 -6.90684,-1.8961 -12.060306,-2.63628 -5.746821,-0.78589 -18.281679,-1.44391 -15.6373,-12.22524 z" />
</svg>
