<?xml version="1.0" encoding="UTF-8" standalone="no"?><!-- Created with Inkscape (http://www.inkscape.org/) -->

<!--suppress ALL -->
<svg xmlns:dc="http://purl.org/dc/elements/1.1/" xmlns:cc="http://creativecommons.org/ns#"
    xmlns:rdf="http://www.w3.org/1999/02/22-rdf-syntax-ns#" xmlns="http://www.w3.org/2000/svg"
    xmlns:sodipodi="http://sodipodi.sourceforge.net/DTD/sodipodi-0.dtd"
    xmlns:inkscape="http://www.inkscape.org/namespaces/inkscape" version="1.0"
    viewBox="0 0 97.799873 698.33527" id="svg2525" inkscape:version="0.91 r13725"
    sodipodi:docname="woodwind_ambient_minute_hand.svg">
    <metadata id="metadata148">
        <rdf:RDF>
            <cc:Work rdf:about="">
                <dc:format>image/svg+xml</dc:format>
                <dc:type rdf:resource="http://purl.org/dc/dcmitype/StillImage" />
            </cc:Work>
        </rdf:RDF>
    </metadata>
    <sodipodi:namedview pagecolor="#ffffff" bordercolor="#666666" borderopacity="1"
        objecttolerance="10" gridtolerance="10" guidetolerance="10" inkscape:pageopacity="0"
        inkscape:pageshadow="2" inkscape:window-width="1228" inkscape:window-height="598"
        id="namedview146" showgrid="false" inkscape:zoom="0.33794656" inkscape:cx="40.392674"
        inkscape:cy="628.47473" inkscape:window-x="0" inkscape:window-y="0"
        inkscape:window-maximized="0" inkscape:current-layer="svg2525" />
    <defs id="defs2527" />
    <path
        d="m 24.18294,41.62671 c -8.26974,0.0133 -7.951,14.09694 -1.72138,14.81165 8.88755,-0.71714 7.86785,-13.78595 1.72138,-14.81165 z"
        style="color:#000000;display:inline;overflow:visible;visibility:visible;fill:#e6e6e6;fill-opacity:1;fill-rule:evenodd;stroke:#000000;stroke-width:0.11761414;stroke-linecap:butt;stroke-linejoin:miter;stroke-miterlimit:4;stroke-dasharray:none;stroke-dashoffset:0;stroke-opacity:1;marker:none;marker-start:none;marker-mid:none;marker-end:none;enable-background:accumulate"
        id="path3173" inkscape:connector-curvature="0" />
    <path
        d="m 3.71471,680.59909 c 1.11707,-3.39999 4.58912,-1.52309 7.615,-4.86929 5.06604,-7.94249 7.16715,-17.339 8.97652,-28.54677 3.40563,-21.02571 5.83796,-42.80099 7.23717,-64.71589 0.94026,-142.39143 0.19983,-288.91975 -1.01061,-432.1262 -0.0459,-0.24648 0.70694,-0.243 0.7115,-0.51713 0.0358,-2.15727 1.44283,-5.07607 1.22625,-7.26463 -0.0601,-0.60686 -2.7575,-0.46923 -2.80848,-1.09002 -1.10112,-13.40788 -0.12147,-29.9238 1.39417,-43.47671 0.41966,-0.2016 0.54986,-1.10653 0.6501,-1.9465 0.29918,-2.50688 0.29899,-5.07158 0.61675,-7.32109 1.05152,-20.98956 2.26957,-42.96407 3.54757,-65.29334 0.7205,-5.70416 1.66029,-11.32095 3.48835,-16.58377 5.30775,-9.91703 18.06594,-8.13787 22.06377,0.0158 2.43426,5.73045 2.32328,11.3528 3.1395,16.47912 2.01166,27.62715 1.80561,38.08336 3.02479,65.31504 -1.53198,1.78805 -0.89835,5.12942 -0.51559,8.3318 0.0458,0.38295 1.47592,0.51626 1.52041,0.91289 1.34956,12.03058 2.39776,30.56724 0.32278,43.36554 -0.0616,0.37999 -2.50417,0.29409 -2.54353,0.66928 -0.2646,2.52282 0.0686,5.96728 0.2138,8.12975 0.0204,0.30325 1.69657,-0.15281 1.63145,0.12751 -0.15963,144.6028 1.91057,288.15141 2.87565,432.15017 2.71837,20.93052 4.48361,42.19237 8.78728,62.9735 1.83521,9.84408 3.56701,19.70651 8.94491,28.9221 3.11388,1.09848 5.6189,1.99673 7.03668,3.51152 1.07931,1.50125 1.13217,2.84725 0.15592,4.0376 -9.94748,12.46495 -76.01866,12.36066 -86.91774,1.61529 -0.45316,-0.95312 -1.90149,-2.24347 -1.38437,-2.80554 z"
        style="display:inline;fill:#333333;fill-opacity:1;fill-rule:evenodd;stroke:#000000;stroke-width:0.11761414;stroke-linecap:butt;stroke-linejoin:miter;stroke-miterlimit:4;stroke-dasharray:none;stroke-opacity:1"
        id="path3155" inkscape:connector-curvature="0" />
    <path
        d="m 36.96004,4.14995 -0.184,34.0719 c 5.84426,3.79276 12.0597,4.38001 18.87655,-0.22673 L 56.08742,4.21813 C 51.75924,-0.87407 41.77278,-0.87076 36.96004,4.14993 Z"
        style="display:inline;fill:#444444;fill-rule:evenodd;stroke:#000000;stroke-width:0.11761414;stroke-linecap:butt;stroke-linejoin:miter;stroke-miterlimit:4;stroke-dasharray:none;stroke-opacity:1"
        id="path3158" inkscape:connector-curvature="0" />
    <path
        d="m 29.44295,64.4929 c 0,0 -1.92165,-2.45897 -4.64745,-2.93004 -7.94926,-1.37378 -7.33595,15.99948 -0.96324,13.7577 5.09067,-1.79079 5.29839,-4.47513 5.55601,-6.49497 0.21468,-1.6832 0.0127,-4.33256 0.0547,-4.33269 z"
        style="color:#000000;display:inline;overflow:visible;visibility:visible;fill:#e6e6e6;fill-opacity:1;fill-rule:evenodd;stroke:#000000;stroke-width:0.11761414;stroke-linecap:butt;stroke-linejoin:miter;stroke-miterlimit:4;stroke-dasharray:none;stroke-dashoffset:0;stroke-opacity:1;marker:none;marker-start:none;marker-mid:none;marker-end:none;enable-background:accumulate"
        id="path3177" inkscape:connector-curvature="0" />
    <path
        d="m 27.60767,89.26479 c 12.09834,-0.28318 24.44533,-0.4045 36.43082,-0.35082 0.22432,0.032 0.0734,0.5649 -0.002,0.83282 -0.28919,0.20303 -0.58643,0.37343 -0.91439,0.41924 0.23946,0.15057 0.44456,0.31844 0.91212,0.3541 0.13195,0.39083 0.10158,0.61891 -0.002,0.77332 -0.25464,0.22682 -0.54228,0.40946 -0.91457,0.47873 0.17359,0.28954 0.54474,0.49931 0.91107,0.71102 0.0658,0.46972 0.0876,0.91747 -0.004,1.30872 -0.25238,0.23864 -0.58545,0.23269 -0.91387,0.24077 0.27002,0.18381 0.30667,0.4449 0.7931,0.48364 0.1016,0.37095 0.05,0.62687 -0.003,0.88211 l -0.79557,0.35938 c 0.3993,0.0435 0.78493,0.0948 0.9123,0.29461 0.22428,0.61733 0.21117,1.15599 0.20474,1.69684 -12.09316,0.23255 -24.7889,0.32398 -37.03826,0.0829 -0.0438,-0.54638 0.0612,-1.01853 0.17216,-1.48769 0.19608,-0.32309 0.5318,-0.36491 0.8319,-0.47847 -0.27656,-0.0932 -0.55348,-0.0634 -0.82928,-0.41384 -0.0281,-0.30315 -0.0473,-0.59741 0.002,-0.82261 0.127,-0.3029 0.48939,-0.4291 0.83218,-0.57001 -0.30916,-0.0816 -0.72499,-0.003 -0.82935,-0.39201 l 0.0446,-0.89244 c 0.078,-0.32012 0.37805,-0.41753 0.78974,-0.40305 -0.2764,-0.14676 -0.46949,-0.0941 -0.74517,-0.48938 l 0.003,-0.89231 c 0.23547,-0.35709 0.46169,-0.25695 0.74751,-0.30579 -0.0553,-0.23346 -0.17898,-0.31667 -0.59807,-0.58698 -0.19342,-0.0667 -0.26898,-0.68054 0.002,-0.83278 z"
        style="color:#000000;display:inline;overflow:visible;visibility:visible;fill:#444444;fill-opacity:1;fill-rule:evenodd;stroke:#000000;stroke-width:0.11761414;stroke-linecap:butt;stroke-linejoin:miter;stroke-miterlimit:4;stroke-dasharray:none;stroke-dashoffset:0;stroke-opacity:1;marker:none;marker-start:none;marker-mid:none;marker-end:none;enable-background:accumulate"
        id="path3185" inkscape:connector-curvature="0" />
    <path
        d="m 26.43802,150.24275 c 12.0969,0.20822 26.02362,0.20609 38.00965,0.0781 0.22451,-0.0334 0.0573,-1.11213 -0.0169,-1.3796 -0.288,-0.20124 -0.68892,-0.43256 -1.01662,-0.47634 0.24035,-0.15206 0.5508,-0.15327 1.01859,-0.19183 0.13424,-0.39165 -0.0202,-0.74535 -0.12319,-0.89912 -0.17305,-0.23192 -0.52278,-0.44907 -0.91177,-0.47308 0.17529,-0.29061 0.71441,-0.14567 1.082,-0.35966 0.0686,-0.47013 0.13425,-0.6868 0.0451,-1.07749 -0.25099,-0.23708 -0.58409,-0.22906 -0.91247,-0.23511 0.2711,-0.18549 0.30928,-0.44681 0.79595,-0.48857 0.10378,-0.37158 0.13754,-0.62744 0.0865,-0.88236 0.0399,-0.23345 -0.40159,-0.28455 -0.79347,-0.35446 0.39955,-0.0459 0.7016,-0.0994 0.83014,-0.30001 0.22791,-0.61873 0.21797,-1.15731 0.21472,-1.69814 -12.09201,-0.15763 -26.74506,-0.16434 -38.99607,0.15266 -0.047,0.54667 0.0552,1.01817 0.16342,1.48666 0.19419,0.32188 0.52967,0.36162 0.82911,0.47333 -0.27711,0.0949 -0.55386,0.0669 -0.83173,0.41898 -0.0298,0.30333 -0.0508,0.59771 -0.002,0.82261 0.12522,0.30212 0.48687,0.42607 0.82884,0.56487 -0.30964,0.0835 -0.72502,0.008 -0.83167,0.39715 l 0.0393,0.89217 c 0.0761,0.31965 0.3756,0.41521 0.78738,0.39817 -0.27727,0.14848 -0.47005,0.097 -0.74805,0.49401 l -0.003,0.89231 c 0.23336,0.35564 0.46018,0.2541 0.74572,0.30116 -0.0567,0.23381 -0.20144,0.19166 -0.62213,0.46457 -0.19382,0.0679 0.0621,0.8284 0.33269,0.97897 z"
        style="color:#000000;display:inline;overflow:visible;visibility:visible;fill:#444444;fill-opacity:1;fill-rule:evenodd;stroke:#000000;stroke-width:0.11761414;stroke-linecap:butt;stroke-linejoin:miter;stroke-miterlimit:4;stroke-dasharray:none;stroke-dashoffset:0;stroke-opacity:1;marker:none;marker-start:none;marker-mid:none;marker-end:none;enable-background:accumulate"
        id="path3188" inkscape:connector-curvature="0" />
    <path
        d="m 10.31976,676.82658 c -1.02917,-0.0358 -8.66986,0.23504 -10.25726,7.60318 0.044,9.71027 23.0088,12.99787 35.40476,13.60298 10.70285,0.5946 21.62919,0.042 31.0019,-1.18969 9.88036,-1.6445 21.40997,-2.01244 30.23236,-10.52538 0.88059,-1.09286 1.30745,-2.33614 0.85031,-3.87246 -2.20885,-7.21648 -11.15447,-8.07479 -12.71244,-8.22022 2.68345,2.03486 8.78188,3.13839 7.72472,6.88965 -1.04419,2.12539 -3.55358,3.05028 -5.75907,4.22417 -6.42347,2.41355 -13.83629,3.40688 -20.98725,4.77611 -12.40257,1.26915 -24.44065,1.42629 -36.91369,0.28262 -7.31894,-0.30038 -27.7239,-4.12268 -24.1307,-10.35696 1.36061,-1.88328 3.82709,-2.27171 5.54636,-3.214 z"
        style="color:#000000;display:inline;overflow:visible;visibility:visible;fill:#e6e6e6;fill-opacity:1;fill-rule:evenodd;stroke:#000000;stroke-width:0.11761414;stroke-linecap:butt;stroke-linejoin:miter;stroke-miterlimit:4;stroke-dasharray:none;stroke-dashoffset:0;stroke-opacity:1;marker:none;marker-start:none;marker-mid:none;marker-end:none;enable-background:accumulate"
        id="path3192" inkscape:connector-curvature="0" />
    <path
        d="m 27.29297,582.17164 c 4.80127,6.33563 39.72727,2.76434 40.04358,-0.59994 0.49222,0.53028 1.48454,9.25778 1.15532,10.58503 -4.8217,4.53673 -35.83374,5.93199 -41.70563,0.96202 -0.67033,-0.67211 0.0803,-9.92162 0.50673,-10.94711 z"
        style="color:#000000;display:inline;overflow:visible;visibility:visible;fill:#e6e6e6;fill-opacity:1;fill-rule:evenodd;stroke:#000000;stroke-width:0.11761414;stroke-linecap:butt;stroke-linejoin:miter;stroke-miterlimit:4;stroke-dasharray:none;stroke-dashoffset:0;stroke-opacity:1;marker:none;marker-start:none;marker-mid:none;marker-end:none;enable-background:accumulate"
        id="path3195" inkscape:connector-curvature="0" />
    <g transform="matrix(0.9396085,-0.00291082,-0.00276868,0.9422281,-327.1216,-114.30387)"
        style="display:inline" id="g3250" />
    <path inkscape:connector-curvature="0" id="path3385"
        style="color:#000000;display:inline;overflow:visible;visibility:visible;opacity:1;fill:#e6e6e6;fill-opacity:1;fill-rule:evenodd;stroke:#000000;stroke-width:0.11761414;stroke-linecap:butt;stroke-linejoin:miter;stroke-miterlimit:4;stroke-dasharray:none;stroke-dashoffset:0;stroke-opacity:1;marker:none;marker-start:none;marker-mid:none;marker-end:none;enable-background:accumulate"
        d="m 6.8056926,353.76891 c 0.083547,-2.30808 2.4804854,-3.84283 2.8651647,-3.6054 l 1.5546987,0.23374 c 4.750566,0.54517 7.262933,9.29092 3.172345,10.17418 -4.07855,0.096 -7.3379909,-2.48551 -7.5922084,-6.80252 z" />
    <path inkscape:connector-curvature="0" id="path3367"
        style="color:#000000;display:inline;overflow:visible;visibility:visible;opacity:1;fill:#e6e6e6;fill-opacity:1;fill-rule:evenodd;stroke:#000000;stroke-width:0.11761414;stroke-linecap:butt;stroke-linejoin:miter;stroke-miterlimit:4;stroke-dasharray:none;stroke-dashoffset:0;stroke-opacity:1;marker:none;marker-start:none;marker-mid:none;marker-end:none;enable-background:accumulate"
        d="m 12.821615,324.09737 c -0.787107,1.19407 -1.117247,2.23414 -2.426001,3.60402 l -1.2484117,1.39844 0.057667,5.2845 c 1.4065977,1.81058 1.3337657,4.12677 0.9696887,6.27255 -1.9158032,0.90395 -2.0095111,2.33703 -0.9994523,3.8565 l 0.1284897,6.09166 c 0.1437771,0.77719 1.6814486,0.73953 2.0483766,0.36064 -0.157051,-3.72297 -0.345685,-7.96313 1.790966,-11.67587 4.558796,-6.09719 7.318696,-9.32494 8.588611,-8.4674 l 0.332457,-13.50632 -9.242391,6.78128 z" />
    <path inkscape:connector-curvature="0" id="path3291"
        style="opacity:1;fill:#444444;fill-opacity:1;stroke:#000000;stroke-width:0.11761414;stroke-linecap:square;stroke-linejoin:round;stroke-miterlimit:4;stroke-dasharray:none;stroke-dashoffset:0;stroke-opacity:1"
        d="m 27.68472,178.97482 a 2.3290126,6.5914672 0.21769965 1 1 -4.658099,0.0144 2.3290126,6.5914672 0.21769965 0 1 4.658099,-0.0144 z" />
    <path inkscape:connector-curvature="0" id="path3343"
        style="color:#000000;display:inline;overflow:visible;visibility:visible;opacity:1;fill:#e6e6e6;fill-opacity:1;fill-rule:evenodd;stroke:#000000;stroke-width:0.11761414;stroke-linecap:butt;stroke-linejoin:miter;stroke-miterlimit:4;stroke-dasharray:none;stroke-dashoffset:0;stroke-opacity:1;marker:none;marker-start:none;marker-mid:none;marker-end:none;enable-background:accumulate"
        d="m 22.37109,187.18487 0.138696,3.33432 -0.185644,13.35906 c -0.121322,1.32397 -0.94831,1.51254 -1.506744,2.13322 l -0.986539,24.37128 c -0.05104,2.24484 -2.281733,3.59041 -3.345681,5.22164 -1.027771,1.12854 -1.489415,7.56827 -1.086991,8.73776 0.878101,2.60029 2.740785,4.43844 3.348201,6.37528 0.688988,3.15026 0.764938,6.05624 0.998199,9.0249 -0.110462,3.25301 -1.652224,6.06059 -3.063584,8.85398 l -1.214078,2.16901 c -0.737733,1.00592 -0.603107,5.07977 0.01779,6.3856 1.537347,2.32407 2.445616,4.70152 2.137259,7.48 -0.559824,2.27063 -2.114282,3.82888 -2.94484,5.80759 -0.535161,1.89706 -0.362235,3.31949 -0.343614,4.84535 0.189049,2.97641 2.247725,3.49634 2.655656,5.42325 0.304967,1.94395 0.604922,4.04898 -0.0537,5.83532 -0.114666,0.55246 -1.036312,0.29086 -1.064452,1.06757 -0.159297,1.78009 -0.331384,3.55765 -0.01596,5.43153 0.231309,1.1773 0.09733,2.20903 -0.155773,3.19331 -1.090379,3.44772 -3.543832,4.51482 -6.7818503,3.87441 l -0.053158,5.65183 c 2.9086143,0.36518 7.9401783,0.60291 8.5268863,0.0837 2.946304,-2.49742 3.474393,-6.69125 4.386369,-10.65634 l 1.40157,-78.43041 4.188606,-5.62794 -0.547223,-45.43828 -1.508467,-0.26674 c 0.380647,-5.0542 0.224907,-11.16439 -0.237675,-11.41117 -0.879263,0.27645 -2.378341,8.39918 -2.70321,13.17098 z" />
    <path inkscape:connector-curvature="0" id="path3295"
        style="color:#000000;display:inline;overflow:visible;visibility:visible;opacity:1;fill:#e6e6e6;fill-opacity:1;fill-rule:evenodd;stroke:#000000;stroke-width:0.11761414;stroke-linecap:butt;stroke-linejoin:miter;stroke-miterlimit:4;stroke-dasharray:none;stroke-dashoffset:0;stroke-opacity:1;marker:none;marker-start:none;marker-mid:none;marker-end:none;enable-background:accumulate"
        d="m 28.849415,172.26476 -3.465152,0.12852 c 1.285638,-0.004 2.310969,2.94994 2.300278,6.58841 -0.01068,3.63846 -1.053402,6.5988 -2.33904,6.60278 l 3.140345,0.49082 c 4.426925,-3.75059 4.476205,-12.44097 0.363569,-13.81053 z" />
    <path inkscape:connector-curvature="0" id="path3321"
        style="color:#000000;display:inline;overflow:visible;visibility:visible;opacity:1;fill:#e6e6e6;fill-opacity:1;fill-rule:evenodd;stroke:#000000;stroke-width:0.11761414;stroke-linecap:butt;stroke-linejoin:miter;stroke-miterlimit:4;stroke-dasharray:none;stroke-dashoffset:0;stroke-opacity:1;marker:none;marker-start:none;marker-mid:none;marker-end:none;enable-background:accumulate"
        d="m 20.478207,236.03571 0.955788,203.13528 4.450151,0.29762 -0.847086,-204.90024 -4.558853,1.46734 z" />
    <path inkscape:connector-curvature="0" id="path3313"
        style="color:#000000;display:inline;overflow:visible;visibility:visible;opacity:1;fill:#e6e6e6;fill-opacity:1;fill-rule:evenodd;stroke:#000000;stroke-width:0.11761414;stroke-linecap:butt;stroke-linejoin:miter;stroke-miterlimit:4;stroke-dasharray:none;stroke-dashoffset:0;stroke-opacity:1;marker:none;marker-start:none;marker-mid:none;marker-end:none;enable-background:accumulate"
        d="m 20.951244,357.58503 c 1.469368,0.0565 12.081443,0.6069 18.423242,-0.0571 l -0.116623,4.46379 c -6.026299,-1.00226 -14.072077,0.0441 -18.217713,-0.15116 -1.958644,-0.0283 -1.757648,-4.33759 -0.08891,-4.25556 z" />
    <path inkscape:connector-curvature="0" id="path3914"
        style="display:inline;opacity:1;fill:#b3b3b3;fill-opacity:1;stroke:#000000;stroke-width:0.11761414;stroke-linecap:square;stroke-linejoin:round;stroke-miterlimit:4;stroke-dasharray:none;stroke-dashoffset:0;stroke-opacity:1"
        d="m 60.320811,200.86131 a 3.146774,3.3035585 3.5639824 1 1 -6.294756,0.0195 3.146774,3.3035585 3.5639824 1 1 6.294756,-0.0195 z" />
    <path inkscape:connector-curvature="0" id="path3271"
        style="opacity:1;fill:#b3b3b3;fill-opacity:1;stroke:#000000;stroke-width:0.1240602;stroke-linecap:square;stroke-linejoin:round;stroke-miterlimit:4;stroke-dasharray:none;stroke-dashoffset:0;stroke-opacity:1"
        d="m 60.635364,236.84549 a 3.2053695,3.5263538 1.8140976 1 1 -6.41138,0.0199 3.2053695,3.5263538 1.8140976 1 1 6.41138,-0.0199 z" />
    <path inkscape:connector-curvature="0" id="path3920"
        style="color:#000000;display:inline;overflow:visible;visibility:visible;opacity:1;fill:#e6e6e6;fill-opacity:1;fill-rule:evenodd;stroke:#000000;stroke-width:0.11761414;stroke-linecap:butt;stroke-linejoin:miter;stroke-miterlimit:4;stroke-dasharray:none;stroke-dashoffset:0;stroke-opacity:1;marker:none;marker-start:none;marker-mid:none;marker-end:none;enable-background:accumulate"
        d="m 58.637777,202.66478 c 0.214132,10.1087 1.106492,22.3576 0.429968,32.29032 1.252112,0.70302 2.637785,0.19536 4.666991,-0.26776 l 0.0069,-2.34877 c 4.544891,1.64708 4.439616,5.98374 4.802828,9.5269 0.121249,3.72085 -1.7932,4.97583 -2.663058,9.55002 -1.639135,8.30856 0.350334,12.88193 2.005457,14.96704 0.985423,1.01095 2.032572,1.71668 3.215398,1.7516 1.991585,-0.2526 3.400755,-3.63087 3.819941,-4.70933 1.123249,-1.33175 1.718231,-13.22649 1.65083,-13.80398 -0.04335,-3.69936 -3.595816,-13.04466 -4.021226,-13.96992 -0.50464,-1.50311 -5.762724,-10.54326 -6.005907,-11.10124 -1.255188,-4.96113 -1.374515,-14.98958 -2.005457,-14.96703 -0.770473,0.01 -1.515923,0.007 -1.902525,-0.1776 0.163707,-0.0673 0.44271,0.0197 0.476418,-0.22167 -0.06672,-1.88271 -0.229032,-3.86132 -0.166489,-5.61446 -1.379192,0.2367 -3.916175,-0.91227 -4.31007,-0.90412 z" />
    <path inkscape:connector-curvature="0" id="path3240"
        style="display:inline;opacity:1;fill:#444444;fill-opacity:1;stroke:#000000;stroke-width:0.11761414;stroke-linecap:square;stroke-linejoin:round;stroke-miterlimit:4;stroke-dasharray:none;stroke-dashoffset:0;stroke-opacity:1"
        d="m 64.27268,201.06927 a 3.0738751,3.376667 1.8427501 1 1 -6.148375,0.0191 3.0738751,3.376667 1.8427501 1 1 6.148375,-0.0191 z" />
    <path inkscape:connector-curvature="0" id="path3269"
        style="opacity:1;fill:#444444;fill-opacity:1;stroke:#000000;stroke-width:0.11761414;stroke-linecap:square;stroke-linejoin:round;stroke-miterlimit:4;stroke-dasharray:none;stroke-dashoffset:0;stroke-opacity:1"
        d="m 64.778645,236.98839 a 3.1638975,3.2109659 77.930852 1 1 -6.417818,0.0199 3.1638975,3.2109659 77.930852 1 1 6.417818,-0.0199 z" />
    <path inkscape:connector-curvature="0" id="path3297"
        style="color:#000000;display:inline;overflow:visible;visibility:visible;opacity:1;fill:#e6e6e6;fill-opacity:1;fill-rule:evenodd;stroke:#000000;stroke-width:0.12285126;stroke-linecap:butt;stroke-linejoin:miter;stroke-miterlimit:4;stroke-dasharray:none;stroke-dashoffset:0;stroke-opacity:1;marker:none;marker-start:none;marker-mid:none;marker-end:none;enable-background:accumulate"
        d="m 21.717194,188.18231 7.466158,-0.0231 c 2.084727,2.63192 2.024298,5.93934 0.08189,7.91484 l -7.570326,-0.31098 0.02228,-7.58073 z" />
    <path inkscape:connector-curvature="0" id="path3287"
        style="opacity:1;fill:#444444;fill-opacity:1;stroke:#000000;stroke-width:0.110007;stroke-linecap:square;stroke-linejoin:round;stroke-miterlimit:4;stroke-dasharray:none;stroke-dashoffset:0;stroke-opacity:1"
        d="m 23.467974,192.03923 a 1.6177413,3.7651655 0.24666417 1 1 -3.235536,0.01 1.6177413,3.7651655 0.24666417 1 1 3.235536,-0.01 z" />
    <path inkscape:connector-curvature="0" id="path3331"
        style="color:#000000;display:inline;overflow:visible;visibility:visible;opacity:1;fill:#999999;fill-opacity:1;fill-rule:evenodd;stroke:#000000;stroke-width:0.11761414;stroke-linecap:butt;stroke-linejoin:miter;stroke-miterlimit:4;stroke-dasharray:none;stroke-dashoffset:0;stroke-opacity:1;marker:none;marker-start:none;marker-mid:none;marker-end:none;enable-background:accumulate"
        d="m 24.242756,437.97012 c 1.296952,0.94206 3.737299,0.39854 4.776195,0.0282 3.371066,0.73303 2.544394,4.84612 0.927489,5.56674 -1.240723,-0.4828 -3.03855,-0.22508 -4.283244,0.64346 l -1.42044,-6.2384 z" />
    <path inkscape:connector-curvature="0" id="path3329"
        style="opacity:1;fill:#b3b3b3;fill-opacity:1;stroke:#000000;stroke-width:0.11761414;stroke-linecap:square;stroke-linejoin:round;stroke-miterlimit:4;stroke-dasharray:none;stroke-dashoffset:0;stroke-opacity:1"
        d="m 27.017149,441.38539 a 3.7244751,3.7907649 10.000667 1 1 -7.452946,0.0231 3.7244751,3.7907649 10.000667 1 1 7.452946,-0.0231 z" />
    <path inkscape:connector-curvature="0" id="path3345"
        style="color:#000000;display:inline;overflow:visible;visibility:visible;opacity:1;fill:#e6e6e6;fill-opacity:1;fill-rule:evenodd;stroke:#000000;stroke-width:0.11761414;stroke-linecap:butt;stroke-linejoin:miter;stroke-miterlimit:4;stroke-dasharray:none;stroke-dashoffset:0;stroke-opacity:1;marker:none;marker-start:none;marker-mid:none;marker-end:none;enable-background:accumulate"
        d="m 5.5073451,325.36412 c 0.7746638,0.88211 1.4767204,1.26049 2.414271,1.64136 1.2498276,0.23346 1.7728503,-1.30911 2.1168639,-2.31231 0.0982,-1.50685 0.02611,-3.03453 -0.4256177,-4.60865 -2.6713368,-5.4463 -8.1194212,1.06472 -4.1055172,5.2796 z" />
    <path inkscape:connector-curvature="0" id="path3365"
        style="color:#000000;display:inline;overflow:visible;visibility:visible;opacity:1;fill:#e6e6e6;fill-opacity:1;fill-rule:evenodd;stroke:#000000;stroke-width:0.11761414;stroke-linecap:butt;stroke-linejoin:miter;stroke-miterlimit:4;stroke-dasharray:none;stroke-dashoffset:0;stroke-opacity:1;marker:none;marker-start:none;marker-mid:none;marker-end:none;enable-background:accumulate"
        d="m 5.4913376,327.78998 c -1.7460047,0.32062 -3.5058933,5.82023 0.9286703,7.77735 2.8294604,0.23792 2.9959106,-1.07632 3.5928061,-2.13968 l 0.157175,-3.6704 c -1.3760908,-1.73966 -2.4699276,-2.05569 -4.6786514,-1.96727 z" />
    <path inkscape:connector-curvature="0" id="path3381"
        style="color:#000000;display:inline;overflow:visible;visibility:visible;opacity:1;fill:#e6e6e6;fill-opacity:1;fill-rule:evenodd;stroke:#000000;stroke-width:0.11761414;stroke-linecap:butt;stroke-linejoin:miter;stroke-miterlimit:4;stroke-dasharray:none;stroke-dashoffset:0;stroke-opacity:1;marker:none;marker-start:none;marker-mid:none;marker-end:none;enable-background:accumulate"
        d="m 28.424204,319.93872 c 0.676578,-0.0353 1.33102,0.0602 2.199081,-1.10778 4.271736,-0.44593 3.696351,5.1793 1.665577,6.0869 -0.560656,-0.92519 -1.506443,-1.36821 -2.850714,-1.31234 l -1.013944,-3.66678 z" />
    <path inkscape:connector-curvature="0" id="path3383"
        style="color:#000000;display:inline;overflow:visible;visibility:visible;opacity:1;fill:#444444;fill-opacity:1;fill-rule:evenodd;stroke:#000000;stroke-width:0.11761414;stroke-linecap:butt;stroke-linejoin:miter;stroke-miterlimit:4;stroke-dasharray:none;stroke-dashoffset:0;stroke-opacity:1;marker:none;marker-start:none;marker-mid:none;marker-end:none;enable-background:accumulate"
        d="m 29.903125,327.27398 c 0.538222,-0.0545 0.916901,0.36719 1.721487,-0.48243 0.838361,1.03821 0.983136,1.76974 0.942905,2.93301 -0.285956,0.83395 -1.17266,0.93409 -1.797046,1.29003 l -0.867346,-3.74061 z" />
    <path inkscape:connector-curvature="0" id="path3379"
        style="color:#000000;display:inline;overflow:visible;visibility:visible;opacity:1;fill:#e6e6e6;fill-opacity:1;fill-rule:evenodd;stroke:#000000;stroke-width:0.11761414;stroke-linecap:butt;stroke-linejoin:miter;stroke-miterlimit:4;stroke-dasharray:none;stroke-dashoffset:0;stroke-opacity:1;marker:none;marker-start:none;marker-mid:none;marker-end:none;enable-background:accumulate"
        d="m 30.624924,323.24889 c -0.27549,3.18112 0.87897,9.91467 1.978395,13.64368 4.635203,12.05595 22.588597,5.01901 24.106375,4.07735 2.351922,-2.68274 4.654639,-5.61568 7.266358,-6.97716 2.072174,-0.65508 4.970408,-0.62025 7.038594,0.082 4.1523,1.75181 4.379758,4.38982 3.60161,7.25489 -1.800129,4.40504 -5.111262,5.54725 -8.815706,5.84016 -2.520161,0.46467 -5.037695,0.0325 -7.554633,-0.5994 -11.94755,2.69246 -24.890728,4.05496 -29.27349,-6.96777 -1.695082,-4.05886 -1.644828,-13.41669 -1.86467,-17.12136 -0.351191,-0.73652 -0.74706,-1.45053 -0.563325,-2.45651 1.383192,-1.38692 2.607058,-1.39326 3.982948,-0.29212 0.372851,1.15468 0.871292,2.27342 0.09754,3.51624 z" />
    <path inkscape:connector-curvature="0" id="path3377"
        style="color:#000000;display:inline;overflow:visible;visibility:visible;opacity:1;fill:#e6e6e6;fill-opacity:1;fill-rule:evenodd;stroke:#000000;stroke-width:0.11761414;stroke-linecap:butt;stroke-linejoin:miter;stroke-miterlimit:4;stroke-dasharray:none;stroke-dashoffset:0;stroke-opacity:1;marker:none;marker-start:none;marker-mid:none;marker-end:none;enable-background:accumulate"
        d="m 31.382074,325.37446 c 0.351247,0.0941 0.15266,1.38353 -0.146792,1.51854 l -4.994051,-0.14023 c -0.541852,0.0111 -0.639677,-1.39801 0.146488,-1.41475 l 4.994355,0.0365 z" />
    <path inkscape:connector-curvature="0" id="path3575"
        style="color:#000000;display:inline;overflow:visible;visibility:visible;opacity:1;fill:#ececec;fill-opacity:1;fill-rule:evenodd;stroke:#000000;stroke-width:0.11761414;stroke-linecap:butt;stroke-linejoin:miter;stroke-miterlimit:4;stroke-dasharray:none;stroke-dashoffset:0;stroke-opacity:1;marker:none;marker-start:none;marker-mid:none;marker-end:none;enable-background:accumulate"
        d="m 17.829756,463.02479 c 1.027962,0.69645 6.92934,-3.61529 6.16217,-4.71658 l 3.584394,0.72288 c -0.92805,1.62708 -1.773947,3.28139 -1.552625,5.28948 l -8.193939,-1.29578 z" />
    <path inkscape:connector-curvature="0" id="path3573"
        style="color:#000000;display:inline;overflow:visible;visibility:visible;opacity:1;fill:#e6e6e6;fill-opacity:1;fill-rule:evenodd;stroke:#000000;stroke-width:0.11761414;stroke-linecap:butt;stroke-linejoin:miter;stroke-miterlimit:4;stroke-dasharray:none;stroke-dashoffset:0;stroke-opacity:1;marker:none;marker-start:none;marker-mid:none;marker-end:none;enable-background:accumulate"
        d="m 28.597813,460.1289 c -0.762239,1.51795 -16.973063,-3.08637 -16.512063,-10.15121 2.560346,-6.13398 20.177176,-3.13048 25.756836,2.56255 l -9.244773,7.58866 z" />
    <path inkscape:connector-curvature="0" id="path3568"
        style="color:#000000;display:inline;overflow:visible;visibility:visible;opacity:1;fill:#ececec;fill-opacity:1;fill-rule:evenodd;stroke:#000000;stroke-width:0.11761414;stroke-linecap:butt;stroke-linejoin:miter;stroke-miterlimit:4;stroke-dasharray:none;stroke-dashoffset:0;stroke-opacity:1;marker:none;marker-start:none;marker-mid:none;marker-end:none;enable-background:accumulate"
        d="m 18.102362,462.17778 c -3.362867,0.11521 -6.212542,1.02667 -7.585371,3.35071 -2.5384163,4.26649 13.490964,12.54413 21.263698,11.25357 5.151252,1.80075 5.355031,4.79726 6.634195,7.53384 0,0 1.255286,17.39857 1.181237,17.6924 -0.07406,0.29383 1.673677,-0.005 1.673677,-0.005 l 0.235981,69.14833 4.845519,0.1911 -0.234112,-90.20106 c -0.700917,-5.22049 -2.51042,-10.13114 -8.826977,-13.78205 l 0.0589,-0.0591 c -2.003845,-1.66024 -11.848437,-5.37604 -19.246746,-5.12258 z" />
    <path inkscape:connector-curvature="0" id="path3581"
        style="opacity:1;fill:#e6e6e6;fill-opacity:1;stroke:#000000;stroke-width:0.11207988;stroke-linecap:square;stroke-linejoin:round;stroke-miterlimit:4;stroke-dasharray:none;stroke-dashoffset:0;stroke-opacity:1"
        d="m 29.968703,494.678 a 5.0748272,12.355292 0.2385516 1 1 -10.149828,0.0314 5.0748272,12.355292 0.2385516 1 1 10.149828,-0.0314 z" />
    <path inkscape:connector-curvature="0" id="path3577"
        style="color:#000000;display:inline;overflow:visible;visibility:visible;opacity:1;fill:#b3b3b3;fill-opacity:1;fill-rule:evenodd;stroke:#000000;stroke-width:0.11761414;stroke-linecap:butt;stroke-linejoin:miter;stroke-miterlimit:4;stroke-dasharray:none;stroke-dashoffset:0;stroke-opacity:1;marker:none;marker-start:none;marker-mid:none;marker-end:none;enable-background:accumulate"
        d="m 29.134374,482.29719 c -1.282229,0.0236 -2.626918,0.10983 -3.846696,0.0708 2.556168,0.62515 4.533937,5.8705 4.51515,12.26431 -0.02004,6.82004 -2.276614,12.40065 -5.077963,12.40933 l 5.15821,0.25149 c 5.081057,-2.2868 6.853408,-20.75077 -0.748701,-24.99594 z" />
    <path inkscape:connector-curvature="0" id="path3583"
        style="color:#000000;display:inline;overflow:visible;visibility:visible;opacity:1;fill:#e6e6e6;fill-opacity:1;fill-rule:evenodd;stroke:#000000;stroke-width:0.11761414;stroke-linecap:butt;stroke-linejoin:miter;stroke-miterlimit:4;stroke-dasharray:none;stroke-dashoffset:0;stroke-opacity:1;marker:none;marker-start:none;marker-mid:none;marker-end:none;enable-background:accumulate"
        d="m 29.908021,495.29874 c 4.459915,1.26294 7.972164,1.72474 13.331245,1.60397 3.645626,0.10982 6.669862,-0.4056 9.940463,-0.86121 1.749845,-0.0894 2.401635,2.76654 0.711423,3.82926 -4.141501,1.40941 -7.617479,1.56724 -12.144256,1.41401 -7.383015,-0.26072 -12.660542,-3.85437 -19.342624,-4.81872 -0.655915,-0.11851 -1.296004,-0.36627 -1.446746,-0.82592 -4.06e-4,-0.50145 0.27224,-0.85375 1.011997,-0.93734 2.154093,0.23551 5.651806,0.69083 7.938498,0.59595 z" />
    <path inkscape:connector-curvature="0" id="path3587"
        style="opacity:1;fill:#e6e6e6;fill-opacity:1;stroke:#000000;stroke-width:0.10162325;stroke-linecap:square;stroke-linejoin:round;stroke-miterlimit:4;stroke-dasharray:none;stroke-dashoffset:0;stroke-opacity:1"
        d="m 28.025787,558.8329 a 4.9248569,12.152948 0.23631667 1 1 -9.849881,0.0305 4.9248569,12.152948 0.23631667 1 1 9.849881,-0.0305 z" />
    <path inkscape:connector-curvature="0" id="path3595"
        style="color:#000000;display:inline;overflow:visible;visibility:visible;opacity:1;fill:#444444;fill-opacity:1;fill-rule:evenodd;stroke:#000000;stroke-width:0.11761414;stroke-linecap:butt;stroke-linejoin:miter;stroke-miterlimit:4;stroke-dasharray:none;stroke-dashoffset:0;stroke-opacity:1;marker:none;marker-start:none;marker-mid:none;marker-end:none;enable-background:accumulate"
        d="m 27.855531,546.23367 -4.334731,0.52097 c 2.536137,0.48048 4.534434,5.70124 4.515668,12.08764 -0.01876,6.38643 -2.047695,11.59017 -4.586702,12.0864 l 5.989485,0.15811 c 4.990782,-2.85 6.168451,-20.6362 -1.58372,-24.85312 z" />
    <path inkscape:connector-curvature="0" id="path3610"
        style="opacity:1;fill:#e6e6e6;fill-opacity:1;stroke:#000000;stroke-width:0.11327125;stroke-linecap:square;stroke-linejoin:round;stroke-miterlimit:4;stroke-dasharray:none;stroke-dashoffset:0;stroke-opacity:1"
        d="m 71.803261,528.47567 a 6.0771697,12.259843 0.28102927 1 1 -12.154574,0.0377 6.0771697,12.259843 0.28102927 1 1 12.154574,-0.0377 z" />
    <path inkscape:connector-curvature="0" id="path3617"
        style="color:#000000;display:inline;overflow:visible;visibility:visible;opacity:1;fill:#e6e6e6;fill-opacity:1;fill-rule:evenodd;stroke:#000000;stroke-width:0.11761414;stroke-linecap:butt;stroke-linejoin:miter;stroke-miterlimit:4;stroke-dasharray:none;stroke-dashoffset:0;stroke-opacity:1;marker:none;marker-start:none;marker-mid:none;marker-end:none;enable-background:accumulate"
        d="m 39.73597,530.55675 c 0.15664,-0.83744 1.077116,-1.21685 2.20016,-1.47479 3.17095,0.0393 4.447906,0.28471 9.609173,-0.28037 5.209216,-1.04186 11.933875,-1.10209 17.915552,-0.97927 0.487967,-0.002 0.63407,0.0959 0.43831,0.29224 -3.710314,0.6151 -7.63005,2.04663 -11.34323,3.63686 -3.049175,-0.11363 -6.437885,0.2718 -9.681572,0.7388 -0.520962,1.03305 -0.545627,1.09407 -1.827535,0.9798 l -3.804835,-0.4286 c -1.237866,-0.74504 -3.137331,-0.69471 -3.506023,-2.48467 z" />
    <path inkscape:connector-curvature="0" id="path3651"
        style="color:#000000;display:inline;overflow:visible;visibility:visible;opacity:1;fill:#e6e6e6;fill-opacity:1;fill-rule:evenodd;stroke:#000000;stroke-width:0.11761414;stroke-linecap:butt;stroke-linejoin:miter;stroke-miterlimit:4;stroke-dasharray:none;stroke-dashoffset:0;stroke-opacity:1;marker:none;marker-start:none;marker-mid:none;marker-end:none;enable-background:accumulate"
        d="m 66.017768,354.46625 c 3.013643,-7.26139 17.18337,-12.8847 18.897642,-4.60924 -0.284197,7.16158 -8.823188,7.43363 -13.353811,11.05111 l -5.543831,-6.44187 z" />
    <path inkscape:connector-curvature="0" id="path3619"
        style="color:#000000;display:inline;overflow:visible;visibility:visible;opacity:1;fill:#e6e6e6;fill-opacity:1;fill-rule:evenodd;stroke:#000000;stroke-width:0.11761414;stroke-linecap:butt;stroke-linejoin:miter;stroke-miterlimit:4;stroke-dasharray:none;stroke-dashoffset:0;stroke-opacity:1;marker:none;marker-start:none;marker-mid:none;marker-end:none;enable-background:accumulate"
        d="m 47.586069,504.76963 c -1.057068,0.10229 -0.734923,3.97679 -0.01119,4.0954 2.943729,-0.15683 8.59796,-0.75788 12.794854,-0.83208 2.708664,0.83971 7.096651,0.38898 7.253191,-2.37122 -0.263092,-3.92861 -5.201151,-2.81568 -7.973715,-1.51666 -4.021318,0.30049 -8.042916,0.69583 -12.063142,0.62456 z" />
    <path inkscape:connector-curvature="0" id="path3649"
        style="color:#000000;display:inline;overflow:visible;visibility:visible;opacity:1;fill:#e6e6e6;fill-opacity:1;fill-rule:evenodd;stroke:#000000;stroke-width:0.11761414;stroke-linecap:butt;stroke-linejoin:miter;stroke-miterlimit:4;stroke-dasharray:none;stroke-dashoffset:0;stroke-opacity:1;marker:none;marker-start:none;marker-mid:none;marker-end:none;enable-background:accumulate"
        d="m 64.031333,482.479 c 1.11373,-0.25677 2.613754,0.52643 2.642784,-2.65052 l 0.614455,-9.83728 1.242293,-24.22527 -0.231961,-20.6976 4.752198,-23.06179 c 0.785271,-14.42477 0.648935,-28.53893 0.271484,-42.57183 -0.147633,-2.95369 -0.240689,-6.8169 -6.420011,-7.17315 -6.6942,0.69752 -5.95224,7.35338 -6.036493,11.76243 0.32656,7.44977 4.796436,10.15425 7.568699,14.803 0.946872,5.82 1.757404,12.81479 0.529057,19.22871 -0.747981,1.07846 -3.281172,5.00255 -4.567604,4.01354 L 64.031333,482.479 Z" />
    <path inkscape:connector-curvature="0" id="path3665"
        style="color:#000000;display:inline;overflow:visible;visibility:visible;opacity:1;fill:#ececec;fill-opacity:1;fill-rule:evenodd;stroke:#000000;stroke-width:0.11761414;stroke-linecap:butt;stroke-linejoin:miter;stroke-miterlimit:4;stroke-dasharray:none;stroke-dashoffset:0;stroke-opacity:1;marker:none;marker-start:none;marker-mid:none;marker-end:none;enable-background:accumulate"
        d="m 56.841414,472.27757 c 3.525754,0.55333 7.204104,0.65114 11.284161,-0.45015 1.454186,-0.66037 2.148868,-1.49761 2.503719,-2.70659 1.786848,-0.71035 3.938939,0.79123 3.605998,1.85725 -0.940328,2.31654 -3.932914,3.72279 -8.087448,4.59229 l -10.148871,1.58846 0.842441,-4.88126 z" />
    <path inkscape:connector-curvature="0" id="path3564"
        style="color:#000000;display:inline;overflow:visible;visibility:visible;opacity:1;fill:#ececec;fill-opacity:1;fill-rule:evenodd;stroke:#000000;stroke-width:0.11761414;stroke-linecap:butt;stroke-linejoin:miter;stroke-miterlimit:4;stroke-dasharray:none;stroke-dashoffset:0;stroke-opacity:1;marker:none;marker-start:none;marker-mid:none;marker-end:none;enable-background:accumulate"
        d="m 26.46283,453.89514 c 2.79541,-7.14219 22.06986,-0.007 30.099944,5.02339 1.521786,1.59869 0.695455,5.64339 0.487563,8.43676 0.06679,3.04269 0.657606,0.35563 0.806612,6.57995 l 0.537698,12.74804 c -0.0357,0.4124 -3.929057,0.87851 -4.142366,0.63563 -0.343941,-0.0255 -0.06123,-12.37483 -0.09185,-18.56225 -0.143798,-2.62485 -6.90684,-1.8961 -12.060306,-2.63628 -5.746821,-0.78589 -18.281679,-1.44391 -15.6373,-12.22524 z" />
</svg>
