<?xml version="1.0" encoding="UTF-8" standalone="no"?>
<!--suppress ALL -->
<svg xmlns:dc="http://purl.org/dc/elements/1.1/" xmlns:cc="http://creativecommons.org/ns#"
    xmlns:rdf="http://www.w3.org/1999/02/22-rdf-syntax-ns#" xmlns="http://www.w3.org/2000/svg"
    xmlns:sodipodi="http://sodipodi.sourceforge.net/DTD/sodipodi-0.dtd"
    xmlns:inkscape="http://www.inkscape.org/namespaces/inkscape" viewBox="0 0 279.24039 456.48108"
    id="svg2" version="1.1" inkscape:version="0.91 r13725"
    sodipodi:docname="woodwind_ambient_hour_hand.svg">
    <metadata id="metadata208">
        <rdf:RDF>
            <cc:Work rdf:about="">
                <dc:format>image/svg+xml</dc:format>
                <dc:type rdf:resource="http://purl.org/dc/dcmitype/StillImage" />
                <dc:title />
            </cc:Work>
        </rdf:RDF>
    </metadata>
    <defs id="defs206" />
    <sodipodi:namedview pagecolor="#ffffff" bordercolor="#666666" borderopacity="1"
        objecttolerance="10" gridtolerance="10" guidetolerance="10" inkscape:pageopacity="0"
        inkscape:pageshadow="2" inkscape:window-width="1177" inkscape:window-height="506"
        id="namedview204" showgrid="true" showguides="false" fit-margin-top="0" fit-margin-left="0"
        fit-margin-right="0" fit-margin-bottom="0" inkscape:zoom="0.5" inkscape:cx="126.24751"
        inkscape:cy="321.58333" inkscape:window-x="20" inkscape:window-y="43"
        inkscape:window-maximized="0" inkscape:current-layer="svg2" />
    <path stroke-miterlimit="4" id="path25480" d="m 196.52667,337.24303 0,0 0,0 z"
        inkscape:connector-curvature="0"
        style="fill:#333333;stroke:#e6e6e6;stroke-linejoin:round;stroke-miterlimit:4" />
    <path style="fill:#333333;stroke:#e6e6e6;stroke-linejoin:round;stroke-miterlimit:4"
        inkscape:connector-curvature="0"
        d="m 130.28445,402.86362 c -16.43369,-0.46573 -13.44259,5.69739 -13.49326,17.72789 -0.016,3.80449 1.1497,10.10969 5.70354,10.85955 8.74072,1.43944 8.80052,3.05013 9.77719,4.38736 l -11.80435,0.32409 c -0.99515,0.0273 -4.34301,0.9065 -4.53626,-4.16302 l -0.29935,-7.85606 -0.29934,-7.85597 c -0.14026,-3.67905 -7.89801,-11.34685 -6.60751,-15.97448 0.84268,-3.02178 5.28999,-22.51563 6.1224,-22.55545 6.65933,-0.31858 -16.990692,25.38264 15.437,25.10609 z"
        id="path9116" stroke-miterlimit="4" />
    <g id="g9878"
        transform="matrix(0.99885765,-0.04778498,0.04778498,0.99885765,-72.511123,-28.911265)">
        <path style="fill:#333333;stroke:#e6e6e6;stroke-linejoin:round;stroke-miterlimit:4"
            inkscape:connector-curvature="0" d="M 235.57459,252.41862" id="path9880"
            stroke-miterlimit="4" />
        <path style="fill:#333333;stroke:#e6e6e6;stroke-linejoin:round;stroke-miterlimit:4"
            inkscape:connector-curvature="0" d="M 235.28738,252.39548" id="path9882"
            stroke-miterlimit="4" />
    </g>
    <path style="fill:#333333;stroke:#e6e6e6;stroke-linejoin:round;stroke-miterlimit:4"
        inkscape:connector-curvature="0"
        d="m 122.48392,240.95015 c -0.25225,4.31918 -0.40811,6.74675 -3.72985,6.73714 -3.32178,-0.01 -2.45245,-4.35224 -2.41214,-6.75486 0.31034,-18.49588 0.71445,-25.0018 4.03622,-24.99214 0.83043,0.002 6.52058,-2.70534 6.61665,-1.096 l -0.0801,1.47059 c -6.66039,0.87719 -6.94054,7.37391 -3.53583,9.31325 l -0.89497,15.32202 z"
        id="path9863" stroke-miterlimit="4" />
    <path style="fill:#333333;stroke:#e6e6e6;stroke-linejoin:round;stroke-miterlimit:4"
        inkscape:connector-curvature="0"
        d="m 122.74512,197.35531 c -0.25225,4.31914 -0.40811,6.74671 -3.72989,6.73708 -3.32175,-0.01 -2.45239,-4.35229 -2.41209,-6.75487 0.31035,-18.49586 0.71442,-25.00178 4.0362,-24.99216 0.83041,0.002 6.52056,-2.70527 6.61667,-1.09601 l -0.0801,1.47061 c -6.66039,0.87725 -6.94054,7.37396 -3.53588,9.3133 l -0.89493,15.32205 z"
        id="path9867" stroke-miterlimit="4" />
    <path style="fill:#333333;stroke:#e6e6e6;stroke-linejoin:round;stroke-miterlimit:4"
        inkscape:connector-curvature="0"
        d="m 121.5668,158.21127 c -0.38966,1.87619 0.59667,2.87283 -2.86825,2.96587 -3.46492,0.0931 -3.65087,-1.753 -3.53849,-2.79383 0.86517,-8.01217 1.47715,-10.83903 4.94207,-10.93211 0.86622,-0.0233 6.88128,-1.36142 6.93447,-0.66795 l -0.12662,0.63868 c -6.97364,0.5745 -7.45607,3.39383 -3.96116,4.13331 l -1.38202,6.65603 z"
        id="path9871" stroke-miterlimit="4" />
    <path style="fill:#333333;stroke:#e6e6e6;stroke-linejoin:round;stroke-miterlimit:4"
        inkscape:connector-curvature="0"
        d="m 112.00735,374.5652 2.74059,-0.0843 0.51259,50.72156 -2.74061,0.0842 -0.51257,-50.72144 z"
        id="path5329" stroke-miterlimit="4" />
    <path style="fill:#333333;stroke:#e6e6e6;stroke-linejoin:round;stroke-miterlimit:4"
        inkscape:connector-curvature="0"
        d="m 154.75437,133.33048 -7.89617,-0.97462 0.10826,3.93296 8.17782,-0.70541 -0.38992,-2.25294 z"
        id="path7630" stroke-miterlimit="4" />
    <path style="fill:#333333;stroke:#e6e6e6;stroke-linejoin:round;stroke-miterlimit:4"
        inkscape:connector-curvature="0"
        d="m 176.27642,407.40711 5.10465,-1.24045 0.19092,2.89212 -5.40089,0.0269 0.10532,-1.67855 z"
        id="path7626" stroke-miterlimit="4" />
    <path style="fill:#333333;stroke:#e6e6e6;stroke-linejoin:round;stroke-miterlimit:4"
        inkscape:connector-curvature="0"
        d="m 119.7289,72.197702 4.52015,-0.898271 0.0189,2.897838 -4.71676,-0.33213 0.17772,-1.667437 z"
        id="path7622" stroke-miterlimit="4" />
    <path style="fill:#333333;stroke:#e6e6e6;stroke-linejoin:round;stroke-miterlimit:4"
        inkscape:connector-curvature="0"
        d="m 170.27636,304.12045 -15.02432,-0.27762 -0.0139,2.90205 15.65643,-0.98052 -0.61816,-1.64391 z"
        id="path7614" stroke-miterlimit="4" />
    <path style="fill:#333333;stroke:#e6e6e6;stroke-linejoin:round;stroke-miterlimit:4"
        inkscape:connector-curvature="0"
        d="m 159.64899,277.67043 -5.19972,-0.7476 0.086,2.89718 5.37877,-0.48873 -0.26509,-1.66085 z"
        id="path7618" stroke-miterlimit="4" />
    <path style="fill:#333333;stroke:#e6e6e6;stroke-linejoin:round;stroke-miterlimit:4"
        inkscape:connector-curvature="0"
        d="m 174.29178,361.5858 -14.73369,-1.84441 -0.65391,2.88314 15.63369,0.65989 -0.24609,-1.69862 z"
        id="path7610" stroke-miterlimit="4" />
    <path style="fill:#333333;stroke:#e6e6e6;stroke-linejoin:round;stroke-miterlimit:4"
        inkscape:connector-curvature="0"
        d="m 170.98907,327.79691 -13.68464,-0.34165 -3.2e-4,2.90131 14.25494,-0.91344 -0.56998,-1.64622 z"
        id="path7606" stroke-miterlimit="4" />
    <path style="fill:#333333;stroke:#e6e6e6;stroke-linejoin:round;stroke-miterlimit:4"
        inkscape:connector-curvature="0"
        d="m 115.14614,422.80666 11.47132,-4.90359 0.8888,3.89759 -11.80386,2.84574 -0.55626,-1.83974 z"
        id="path7578" stroke-miterlimit="4" />
    <path style="fill:#333333;stroke:#e6e6e6;stroke-linejoin:round;stroke-miterlimit:4"
        inkscape:connector-curvature="0"
        d="m 115.83922,268.45316 2.74059,-0.0842 -1.05235,74.90646 -2.7406,0.0842 1.05236,-74.90646 z"
        id="path5337" stroke-miterlimit="4" />
    <path style="fill:#333333;stroke:#e6e6e6;stroke-linejoin:round;stroke-miterlimit:4"
        inkscape:connector-curvature="0"
        d="m 117.55669,343.60701 8.26722,-1.01758 0.13857,2.89661 -8.67228,-0.20729 0.26649,-1.67174 z"
        id="path7570" stroke-miterlimit="4" />
    <path style="fill:#333333;stroke:#e6e6e6;stroke-linejoin:round;stroke-miterlimit:4"
        inkscape:connector-curvature="0" d="M 118.76705,343.96364" id="path6825"
        stroke-miterlimit="4" />
    <path style="fill:#333333;stroke:#e6e6e6;stroke-linejoin:round;stroke-miterlimit:4"
        inkscape:connector-curvature="0"
        d="m 112.31179,308.5132 2.74055,-0.0843 -0.34939,53.39288 -2.74063,0.0843 0.34947,-53.39284 z"
        id="path5333" stroke-miterlimit="4" />
    <path style="fill:#333333;stroke:#e6e6e6;stroke-linejoin:round;stroke-miterlimit:4"
        inkscape:connector-curvature="0"
        d="m 169.84422,223.23537 2.74062,-0.0842 8.60769,152.69249 -2.7406,0.0842 -8.60772,-152.69253 z"
        id="rect5278" stroke-miterlimit="4" />
    <path style="fill:#333333;stroke:#e6e6e6;stroke-linejoin:round;stroke-miterlimit:4"
        inkscape:connector-curvature="0"
        d="m 114.1525,361.43347 11.18231,-1.1571 0.13857,2.89657 -11.70885,-0.062 0.38797,-1.67751 z"
        id="rect6829" stroke-miterlimit="4" />
    <path style="fill:#333333;stroke:#e6e6e6;stroke-linejoin:round;stroke-miterlimit:4"
        inkscape:connector-curvature="0"
        d="m 113.91512,372.60596 11.83358,-2.22505 0.43156,4.12679 -11.70884,-0.062 -0.5563,-1.83978 z"
        id="path7566" stroke-miterlimit="4" />
    <path style="fill:#333333;stroke:#e6e6e6;stroke-linejoin:round;stroke-miterlimit:4"
        inkscape:connector-curvature="0"
        d="m 165.38896,220.52495 -13.68462,-0.34174 -2.9e-4,2.90137 14.25493,-0.91339 -0.57001,-1.64624 z"
        id="path7602" stroke-miterlimit="4" />
    <path stroke-miterlimit="4" id="path2640"
        d="m 144.80212,73.31041 16.33689,322.10383 c 0.36081,7.11295 -0.73796,24.81571 8.04548,24.61937 9.22786,-0.20626 12.05958,-6.21214 11.37808,-20.5458 -0.69201,-14.54883 0.25113,-72.13952 2.50079,-90.93359 2.34275,-19.57175 7.48345,-47.32767 -0.52578,-70.4021 -3.81702,-10.99667 25.78819,-17.43347 64.71679,3.91717 31.33572,17.18632 44.44189,37.31592 15.04816,37.94152 -16.25939,0.34601 -20.56614,26.36241 -25.78614,56.59103 -5.21989,30.22872 -4.20309,61.45109 -4.10393,63.88272 2.34928,57.33819 -60.06572,54.58513 -64.81153,54.07863 -40.43698,-4.31548 -43.19271,-30.92324 -43.32139,-58.5617 L 122.73444,64.15097 C 122.66774,49.825114 118.65163,43.646058 104.15289,36.761458 89.654223,29.87677 65.031008,22.82903 60.69704,21.465674 49.551858,17.959761 52.290209,11.187192 68.108394,14.812281 96.901559,21.410861 142.2406,19.766559 144.80212,73.31041 Z"
        inkscape:connector-curvature="0"
        style="fill:#333333;stroke:#e6e6e6;stroke-linejoin:round;stroke-miterlimit:4" />
    <path stroke-miterlimit="4" id="path26464"
        d="m 180.45057,403.31718 c -0.68551,-14.54903 0.0933,-75.43894 2.34294,-94.23304 2.34278,-19.57178 7.48346,-47.32764 -0.52577,-70.40207 -3.81703,-10.99673 25.78813,-17.4335 64.71682,3.9172 31.33565,17.18626 44.44182,37.31583 15.04809,37.94143 -16.2593,0.34604 -20.56613,26.36241 -25.78607,56.59106 -5.21999,30.22867 -3.32008,64.74802 -3.64953,67.16805 -0.29141,2.14009 -51.85909,5.11283 -52.14648,-0.98263 z"
        inkscape:connector-curvature="0"
        style="opacity:0.67272698;fill:#333333;stroke:#e6e6e6;stroke-linejoin:round;stroke-miterlimit:4" />
    <path stroke-miterlimit="4" id="path28430"
        d="m 272.73181,275.73326 c -9.08643,4.61172 -35.56474,-1.66046 -59.10353,-14.00026 -23.53874,-12.33989 -32.82254,-25.67758 -23.73616,-30.28935 9.08629,-4.61161 33.11893,1.24037 56.65774,13.58028 23.53869,12.33981 35.26819,26.09761 26.18195,30.70933 z"
        inkscape:connector-curvature="0"
        style="fill:#333333;stroke:#e6e6e6;stroke-linejoin:round;stroke-miterlimit:4" />
    <path style="fill:#333333;stroke:#e6e6e6;stroke-linejoin:round;stroke-miterlimit:4"
        inkscape:connector-curvature="0" d="M 161.18933,164.13749" id="path2643"
        stroke-miterlimit="4" />
    <path style="fill:#333333;stroke:#e6e6e6;stroke-linejoin:round;stroke-miterlimit:4"
        inkscape:connector-curvature="0"
        d="m 156.46593,129.61275 c 0.0462,0.96579 1.98839,3.77429 4.32746,13.48584 1.16951,4.85572 -2.31379,4.11803 -0.94525,6.12416 0.58381,0.85574 4.49238,1.34952 5.21885,2.06129 3.47895,3.40808 2.44872,15.73919 -0.19252,16.26144 -2.26815,0.44852 1.04277,-7.16616 -2.12736,-12.25409 -0.61261,-0.98326 -8.31673,-3.49583 -8.76653,-6.60854 l -2.08697,-38.52048 c 1.42689,-0.69792 1.77018,-5.12257 1.49565,-7.38652 3.51808,3.61424 2.64065,17.72278 3.07667,26.8369 z"
        id="path18410" stroke-miterlimit="4" />
    <path style="fill:#333333;stroke:#e6e6e6;stroke-linejoin:round;stroke-miterlimit:4"
        inkscape:connector-curvature="0"
        d="m 153.62022,155.50072 c -11.9012,0.0512 -11.74404,18.58476 0.20644,17.81345 l -6.06039,0.40468 c -4.55027,0.30388 -8.44579,-3.64475 -8.68391,-8.62211 -0.23811,-4.97725 3.26253,-9.28649 7.82118,-9.41161 l 6.71668,-0.18441 z"
        id="path2649" stroke-miterlimit="4" />
    <g id="g12158"
        transform="matrix(0.99885765,-0.04778498,0.04778498,0.99885765,-72.511123,-28.911265)">
        <path style="fill:#333333;stroke:#e6e6e6;stroke-linejoin:round;stroke-miterlimit:4"
            inkscape:connector-curvature="0" d="M 225.90651,194.1478" id="path9950"
            stroke-miterlimit="4" />
        <path style="fill:#333333;stroke:#e6e6e6;stroke-linejoin:round;stroke-miterlimit:4"
            inkscape:connector-curvature="0" d="M 225.16702,194.20552" id="path10688"
            stroke-miterlimit="4" />
    </g>
    <g id="g12162"
        transform="matrix(0.99885765,-0.04778498,0.04778498,0.99885765,-72.511123,-28.911265)">
        <path style="fill:#333333;stroke:#e6e6e6;stroke-linejoin:round;stroke-miterlimit:4"
            inkscape:connector-curvature="0" d="M 226.86557,206.49925" id="path12164"
            stroke-miterlimit="4" />
        <path style="fill:#333333;stroke:#e6e6e6;stroke-linejoin:round;stroke-miterlimit:4"
            inkscape:connector-curvature="0" d="M 226.12608,206.55702" id="path12166"
            stroke-miterlimit="4" />
    </g>
    <path style="fill:#333333;stroke:#e6e6e6;stroke-linejoin:round;stroke-miterlimit:4"
        inkscape:connector-curvature="0" d="M 179.98995,353.16037" id="path5317"
        stroke-miterlimit="4" />
    <path style="fill:#333333;stroke:#e6e6e6;stroke-linejoin:round;stroke-miterlimit:4"
        inkscape:connector-curvature="0" d="M 177.76795,353.26667" id="path5321"
        stroke-miterlimit="4" />
    <path style="fill:#333333;stroke:#e6e6e6;stroke-linejoin:round;stroke-miterlimit:4"
        inkscape:connector-curvature="0"
        d="m 165.70111,222.54824 2.74058,-0.0843 5.96935,133.74987 -2.74061,0.0842 -5.96932,-133.74986 z"
        id="path5289" stroke-miterlimit="4" />
    <path stroke-miterlimit="4" id="path21816"
        d="m 166.54019,349.92116 c 0.31561,6.59722 -4.36924,12.12836 -9.64803,12.71423 -8.67508,0.96279 -12.03141,-4.79096 -12.34702,-11.3881 -0.3156,-6.59706 5.11128,-12.49706 10.41923,-12.751 6.35157,-0.30385 10.81904,3.25999 11.55614,11.02395 l -10.9844,0.92735 11.00408,-0.52643 z"
        inkscape:connector-curvature="0"
        style="fill:#333333;stroke:#e6e6e6;stroke-linejoin:round;stroke-miterlimit:4" />
    <path stroke-miterlimit="4" id="path21818"
        d="m 156.18051,338.48935 c -17.93217,-0.10274 -23.64012,23.23919 0.45115,24.15001 l -4.75637,0.3797 c -5.51371,0.44003 -15.36863,-7.23494 -15.49717,-12.6067 -0.13841,-5.78441 8.46615,-11.77897 14.63598,-11.85736 l 5.16641,-0.0657 z"
        inkscape:connector-curvature="0"
        style="fill:#333333;stroke:#e6e6e6;stroke-linejoin:round;stroke-miterlimit:4" />
    <path stroke-miterlimit="4" id="path21820"
        d="m 174.12098,349.2384 c 0.11527,1.8277 -4.56468,1.33152 -9.66503,2.00964 -5.1004,0.67815 -11.09643,0.97016 -15.44968,0.17113 4.11755,-1.69909 9.69457,-2.20976 14.79502,-2.88797 5.1004,-0.67816 10.1333,-1.09797 10.31969,0.7072 z"
        inkscape:connector-curvature="0"
        style="fill:#333333;stroke:#e6e6e6;stroke-linejoin:round;stroke-miterlimit:4" />
    <g id="g12222"
        transform="matrix(0.99885765,-0.04778498,0.04778498,0.99885765,-72.511123,-28.911265)">
        <path style="fill:#333333;stroke:#e6e6e6;stroke-linejoin:round;stroke-miterlimit:4"
            inkscape:connector-curvature="0" d="M 214.51231,390.73212" id="path12224"
            stroke-miterlimit="4" />
        <path style="fill:#333333;stroke:#e6e6e6;stroke-linejoin:round;stroke-miterlimit:4"
            inkscape:connector-curvature="0" d="M 213.77278,390.78992" id="path12226"
            stroke-miterlimit="4" />
    </g>
    <g id="g12234"
        transform="matrix(0.99885765,-0.04778498,0.04778498,0.99885765,-72.511123,-28.911265)">
        <path style="fill:#333333;stroke:#e6e6e6;stroke-linejoin:round;stroke-miterlimit:4"
            inkscape:connector-curvature="0" d="M 208.95334,412.34262" id="path12236"
            stroke-miterlimit="4" />
        <path style="fill:#333333;stroke:#e6e6e6;stroke-linejoin:round;stroke-miterlimit:4"
            inkscape:connector-curvature="0" d="M 208.21385,412.40039" id="path12238"
            stroke-miterlimit="4" />
    </g>
    <g id="g12246"
        transform="matrix(0.99885765,-0.04778498,0.04778498,0.99885765,-72.511123,-28.911265)">
        <path style="fill:#333333;stroke:#e6e6e6;stroke-linejoin:round;stroke-miterlimit:4"
            inkscape:connector-curvature="0" d="M 192.58525,402.49487" id="path12248"
            stroke-miterlimit="4" />
        <path style="fill:#333333;stroke:#e6e6e6;stroke-linejoin:round;stroke-miterlimit:4"
            inkscape:connector-curvature="0" d="M 191.71901,402.55264" id="path12250"
            stroke-miterlimit="4" />
    </g>
    <path style="fill:#333333;stroke:#e6e6e6;stroke-linejoin:round;stroke-miterlimit:4"
        inkscape:connector-curvature="0" d="M 161.96534,186.51028" id="path12265"
        stroke-miterlimit="4" />
    <path style="fill:#333333;stroke:#e6e6e6;stroke-linejoin:round;stroke-miterlimit:4"
        inkscape:connector-curvature="0"
        d="m 154.39623,177.87352 c -11.90117,0.0512 -11.74406,18.58474 0.20646,17.81345 l -6.0604,0.40467 c -4.55028,0.30388 -8.4458,-3.64476 -8.68392,-8.62208 -0.23811,-4.97731 3.26251,-9.28652 7.82119,-9.41165 l 6.71667,-0.18439 z"
        id="path12267" stroke-miterlimit="4" />
    <g id="g12174"
        transform="matrix(0.99885765,-0.04778498,0.04778498,0.99885765,-72.511123,-28.911265)">
        <path style="fill:#333333;stroke:#e6e6e6;stroke-linejoin:round;stroke-miterlimit:4"
            inkscape:connector-curvature="0" d="M 228.71852,217.57805" id="path12176"
            stroke-miterlimit="4" />
        <path style="fill:#333333;stroke:#e6e6e6;stroke-linejoin:round;stroke-miterlimit:4"
            inkscape:connector-curvature="0" d="M 228.1692,217.62282" id="path12178"
            stroke-miterlimit="4" />
    </g>
    <g id="g12186"
        transform="matrix(0.99885765,-0.04778498,0.04778498,0.99885765,-72.511123,-28.911265)">
        <path style="fill:#333333;stroke:#e6e6e6;stroke-linejoin:round;stroke-miterlimit:4"
            inkscape:connector-curvature="0" d="M 230.26271,230.29813" id="path12188"
            stroke-miterlimit="4" />
        <path style="fill:#333333;stroke:#e6e6e6;stroke-linejoin:round;stroke-miterlimit:4"
            inkscape:connector-curvature="0" d="M 229.52324,230.35594" id="path12190"
            stroke-miterlimit="4" />
    </g>
    <path style="fill:#333333;stroke:#e6e6e6;stroke-linejoin:round;stroke-miterlimit:4"
        inkscape:connector-curvature="0" d="M 163.81099,212.16515" id="path12281"
        stroke-miterlimit="4" />
    <path style="fill:#333333;stroke:#e6e6e6;stroke-linejoin:round;stroke-miterlimit:4"
        inkscape:connector-curvature="0"
        d="m 156.2419,203.52843 c -11.90113,0.0512 -11.74402,18.58471 0.20649,17.81338 l -6.06044,0.40475 c -3.62281,0.24189 -8.30057,-4.74875 -8.68389,-8.6221 -0.38322,-3.87181 3.26253,-9.28655 7.82116,-9.41168 l 6.71668,-0.18435 z"
        id="path12283" stroke-miterlimit="4" />
    <path style="fill:#333333;stroke:#e6e6e6;stroke-linejoin:round;stroke-miterlimit:4"
        inkscape:connector-curvature="0" d="M 163.9705,234.88822" id="path12297"
        stroke-miterlimit="4" />
    <path style="fill:#333333;stroke:#e6e6e6;stroke-linejoin:round;stroke-miterlimit:4"
        inkscape:connector-curvature="0"
        d="m 156.38234,225.85302 c -11.90225,0.0283 -11.70586,19.38268 0.24426,18.60263 l -6.0602,0.40971 c -3.93399,0.26599 -9.33925,-3.35563 -9.78271,-8.97058 -0.46181,-5.90283 5.40309,-9.77106 8.8817,-9.86338 l 6.71695,-0.17838 z"
        id="path12299" stroke-miterlimit="4" />
    <g id="g21809"
        transform="matrix(0.99885765,-0.04778498,0.04778498,0.99885765,-72.511123,-28.911265)">
        <path style="fill:#333333;stroke:#e6e6e6;stroke-linejoin:round;stroke-miterlimit:4"
            inkscape:connector-curvature="0" d="M 220.80348,355.48666" id="path12313"
            stroke-miterlimit="4" />
        <path style="fill:#333333;stroke:#e6e6e6;stroke-linejoin:round;stroke-miterlimit:4"
            inkscape:connector-curvature="0"
            d="m 212.3916,343.57266 c -12.96545,-0.68594 -13.14239,24.54501 -0.70332,24.14401 l -4.92355,-0.12161 c -4.6471,-0.11478 -14.8509,-7.68744 -14.72263,-13.0592 0.13815,-5.78443 10.21605,-11.31885 15.18591,-11.14444 l 5.16359,0.18124 z"
            id="path12315" stroke-miterlimit="4" />
        <path style="fill:#333333;stroke:#e6e6e6;stroke-linejoin:round;stroke-miterlimit:4"
            inkscape:connector-curvature="0"
            d="m 233.37791,355.12079 c 0.0278,2.37817 -6.42045,1.52215 -11.54742,1.9559 -5.127,0.43362 -12.91266,0.0744 -17.22276,-0.93173 4.19401,-1.50037 13.35422,-1.50107 18.48124,-1.93482 5.12699,-0.43368 10.03458,-1.44842 10.28894,0.91065 z"
            id="path12317" stroke-miterlimit="4" />
    </g>
    <g id="g12210"
        transform="matrix(0.99885765,-0.04778498,0.04778498,0.99885765,-72.511123,-28.911265)">
        <path style="fill:#333333;stroke:#e6e6e6;stroke-linejoin:round;stroke-miterlimit:4"
            inkscape:connector-curvature="0" d="M 215.4388,366.38617" id="path12212"
            stroke-miterlimit="4" />
        <path style="fill:#333333;stroke:#e6e6e6;stroke-linejoin:round;stroke-miterlimit:4"
            inkscape:connector-curvature="0" d="M 214.69931,366.44394" id="path12214"
            stroke-miterlimit="4" />
    </g>
    <path style="fill:#333333;stroke:#e6e6e6;stroke-linejoin:round;stroke-miterlimit:4"
        inkscape:connector-curvature="0"
        d="m 172.13366,364.12839 2.7406,-0.0842 1.64868,43.43412 -2.74061,0.0843 -1.64867,-43.43416 z"
        id="path5325" stroke-miterlimit="4" />
    <path style="fill:#333333;stroke:#e6e6e6;stroke-linejoin:round;stroke-miterlimit:4"
        inkscape:connector-curvature="0" d="M 176.10984,363.20222" id="path7574"
        stroke-miterlimit="4" />
    <path stroke-miterlimit="4" id="path30641"
        d="m 168.61302,380.40952 c 0.38208,7.98672 -4.76311,14.65767 -10.58925,15.34 -9.57467,1.12109 -14.18275,-5.81843 -14.56483,-13.80515 -0.38208,-7.98668 6.44388,-15.33523 12.31324,-15.42244 7.01839,-0.10419 11.96357,4.00092 12.81704,13.40215 l -12.12486,1.06662 12.14866,-0.58119 z"
        inkscape:connector-curvature="0"
        style="fill:#333333;stroke:#e6e6e6;stroke-linejoin:round;stroke-miterlimit:4" />
    <path stroke-miterlimit="4" id="path30643"
        d="m 157.115,366.51981 c -19.80228,-0.21566 -25.98653,28.00813 0.62115,29.23317 l -5.2504,0.43538 c -9.11311,0.75548 -17.88949,-10.15486 -18.26768,-15.28569 -0.38728,-5.25404 8.86217,-14.25204 17.19225,-14.32969 l 5.70468,-0.0532 z"
        inkscape:connector-curvature="0"
        style="fill:#333333;stroke:#e6e6e6;stroke-linejoin:round;stroke-miterlimit:4" />
    <path stroke-miterlimit="4" id="path30645"
        d="m 176.98068,379.62163 c 0.13659,2.21276 -5.03375,1.58836 -10.66248,2.38325 -5.62873,0.79491 -12.24842,1.11782 -17.05959,0.12857 4.53818,-2.03564 10.69412,-2.62533 16.32282,-3.4203 5.62875,-0.7949 11.18423,-1.27742 11.39925,0.90848 z"
        inkscape:connector-curvature="0"
        style="fill:#333333;stroke:#e6e6e6;stroke-linejoin:round;stroke-miterlimit:4" />
    <path style="fill:#333333;stroke:#e6e6e6;stroke-linejoin:round;stroke-miterlimit:4"
        inkscape:connector-curvature="0"
        d="m 159.0894,269.56495 2.74057,-0.0374 0.84195,26.08665 c 0.0802,1.20912 -2.70204,1.31094 -2.74063,0.0374 l -0.84189,-26.08665 z"
        id="path7594" stroke-miterlimit="4" />
    <path stroke-miterlimit="4" id="path30663"
        d="m 162.32597,290.57082 c 0.29591,6.18546 -3.52011,11.34379 -7.85131,11.86349 -7.11786,0.85407 -9.90584,-4.55765 -10.20174,-10.74301 -0.29591,-6.1855 4.12727,-11.6854 8.48433,-11.89384 5.21361,-0.24942 8.90177,3.11594 9.55024,10.39741 l -9.01417,0.80807 9.03265,-0.43212 z"
        inkscape:connector-curvature="0"
        style="fill:#333333;stroke:#e6e6e6;stroke-linejoin:round;stroke-miterlimit:4" />
    <path stroke-miterlimit="4" id="path30665"
        d="m 152.6651,279.84993 c -10.97051,0.5923 -14.59931,23.55712 0.50504,22.63884 l -3.90339,0.32942 c -4.52494,0.38173 -12.65971,-6.8671 -12.79519,-11.90288 -0.14591,-5.42262 6.88602,-10.99353 11.9517,-11.03257 l 4.24184,-0.0328 z"
        inkscape:connector-curvature="0"
        style="fill:#333333;stroke:#e6e6e6;stroke-linejoin:round;stroke-miterlimit:4" />
    <path style="fill:#333333;stroke:#e6e6e6;stroke-linejoin:round;stroke-miterlimit:4"
        inkscape:connector-curvature="0"
        d="m 169.41904,290.11203 c -0.0151,1.71756 -0.75319,1.0629 -4.96882,1.43983 -4.21559,0.37692 -9.14119,0.3466 -12.65668,-0.62206 3.47229,-1.38265 8.06804,-1.57855 12.28368,-1.95538 4.21562,-0.3769 5.2975,-0.56232 5.34182,1.13761 z"
        id="path30667" stroke-miterlimit="4" />
    <path stroke-miterlimit="4" id="path30706"
        d="m 159.97107,263.89256 c 0.29097,6.08221 -2.47796,11.10753 -5.68253,11.56814 -5.26641,0.75691 -7.39566,-4.5939 -7.68663,-10.67614 -0.29097,-6.08231 2.92408,-11.43627 6.15141,-11.59067 3.8618,-0.18474 6.63468,3.16537 7.19969,10.32893 l -6.67256,0.68981 6.69062,-0.32007 z"
        inkscape:connector-curvature="0"
        style="fill:#333333;stroke:#e6e6e6;stroke-linejoin:round;stroke-miterlimit:4" />
    <path stroke-miterlimit="4" id="path30708"
        d="m 152.68564,253.2444 c -8.12526,0.45508 -10.54925,22.98222 0.63651,22.2547 l -2.88966,0.27851 c -3.34973,0.32276 -9.46372,-6.8954 -9.62252,-11.84605 -0.17092,-5.3308 4.9771,-10.72426 8.7317,-10.70413 l 3.14397,0.017 z"
        inkscape:connector-curvature="0"
        style="fill:#333333;stroke:#e6e6e6;stroke-linejoin:round;stroke-miterlimit:4" />
    <path style="fill:#333333;stroke:#e6e6e6;stroke-linejoin:round;stroke-miterlimit:4"
        inkscape:connector-curvature="0"
        d="m 147.71978,99.604887 1.90746,-0.09125 0.51658,10.798185 -1.9939,0.0217 c -3.18582,-4.04426 -2.8569,-7.59396 -0.43016,-10.728662 z"
        id="rect19882" stroke-miterlimit="4" />
    <g id="g30720"
        transform="matrix(0.99885765,-0.04778498,0.04778498,0.99885765,-72.511123,-28.911265)">
        <path style="fill:#333333;stroke:#e6e6e6;stroke-linejoin:round;stroke-miterlimit:4"
            inkscape:connector-curvature="0"
            d="m 217.41583,132.43616 c 0,3.87155 -1.85008,6.97888 -3.83371,7.17407 -3.25992,0.32072 -4.41156,-3.14215 -4.41156,-7.0137 0,-3.87154 2.13401,-7.17407 4.12262,-7.17407 2.37961,0 3.98578,2.21183 4.12248,6.77844 l -4.12248,0.23526 4.12265,0 z"
            id="path30722" stroke-miterlimit="4" />
        <path style="fill:#333333;stroke:#e6e6e6;stroke-linejoin:round;stroke-miterlimit:4"
            inkscape:connector-curvature="0"
            d="m 213.25011,125.4525 c -5.00859,0.0422 -7.16135,14.27492 -0.26322,14.15277 l -1.78467,0.0891 c -2.06889,0.10321 -5.61532,-4.66662 -5.5673,-7.81546 0.0517,-3.39072 3.3752,-6.6596 5.68284,-6.53266 l 1.93235,0.10628 z"
            id="path30724" stroke-miterlimit="4" />
        <path style="fill:#333333;stroke:#e6e6e6;stroke-linejoin:round;stroke-miterlimit:4"
            inkscape:connector-curvature="0"
            d="m 209.28314,132.46588 c -0.0578,7.63269 4.17395,7.21579 3.26488,7.21579 -1.37139,0 -3.96234,-0.86133 -3.95835,-7.21579 0.004,-5.78554 3.2226,-7.21576 4.0739,-7.21576 0.90909,0 -3.43823,0.62538 -3.38043,7.21576 z"
            id="path30726" stroke-miterlimit="4" />
    </g>
    <path style="fill:#333333;stroke:#e6e6e6;stroke-linejoin:round;stroke-miterlimit:4"
        inkscape:connector-curvature="0"
        d="m 174.0497,437.42928 c 0.40817,8.53205 -6.58962,15.80743 -15.62012,16.23945 -9.03048,0.43201 -16.69087,-6.14213 -17.09904,-14.67418 -0.40817,-8.53211 6.58967,-15.80724 15.62015,-16.23926 9.0305,-0.43201 16.69084,6.14188 17.09901,14.67399 z"
        id="path30736" stroke-miterlimit="4" />
    <path style="fill:#333333;stroke:#e6e6e6;stroke-linejoin:round;stroke-miterlimit:4"
        inkscape:connector-curvature="0"
        d="m 215.64908,333.34092 c 3.11982,9.28297 -2.26071,19.01781 -12.0101,21.72955 -9.7494,2.71178 -20.19401,-2.62142 -23.31381,-11.90446 -3.1198,-9.283 2.26074,-19.01787 12.01018,-21.72965 9.7494,-2.71171 20.19397,2.62153 23.31373,11.90456 z"
        id="path30741" stroke-miterlimit="4" />
    <path style="fill:#333333;stroke:#e6e6e6;stroke-linejoin:round;stroke-miterlimit:4"
        inkscape:connector-curvature="0" d="M 149.88561,112.35995" id="path16883"
        stroke-miterlimit="4" />
    <path style="fill:#333333;stroke:#e6e6e6;stroke-linejoin:round;stroke-miterlimit:4"
        inkscape:connector-curvature="0"
        d="m 151.58402,163.77541 c -0.0868,1.79413 -3.11148,1.24428 -7.00972,1.43077 -3.89822,0.18649 -8.69822,0.42994 -8.69715,-1.36402 0.001,-1.65072 4.67475,-1.04523 8.57298,-1.23172 3.89823,-0.18649 7.04846,-0.62092 7.13389,1.16497 z"
        id="path2652" stroke-miterlimit="4" />
    <path style="fill:#333333;stroke:#e6e6e6;stroke-linejoin:round;stroke-miterlimit:4"
        inkscape:connector-curvature="0"
        d="m 153.60087,186.22572 c -1.82707,0.91889 -6.46545,1.26788 -8.26973,1.3542 -3.84072,0.18374 -9.75132,0.61718 -9.75151,-1.17671 -1.8e-4,-1.65061 5.78661,-1.23536 9.62733,-1.41909 1.63461,-0.0782 6.63755,0.0834 8.39391,1.2416 z"
        id="path12269" stroke-miterlimit="4" />
    <path style="fill:#333333;stroke:#e6e6e6;stroke-linejoin:round;stroke-miterlimit:4"
        inkscape:connector-curvature="0"
        d="m 161.06566,212.98119 c -4.49489,0.77257 -10.21318,0.89936 -13.86785,1.07419 -3.65466,0.17484 -10.57046,0.65637 -10.57476,-1.13727 -0.004,-1.65048 6.95085,-1.42799 10.60554,-1.60283 3.65464,-0.17483 9.41778,0.63503 13.83707,1.66591 z"
        id="path12285" stroke-miterlimit="4" />
    <path style="fill:#333333;stroke:#e6e6e6;stroke-linejoin:round;stroke-miterlimit:4"
        inkscape:connector-curvature="0"
        d="m 159.68594,235.80821 c -5.77662,1.28773 -9.57283,1.31603 -11.31011,1.39914 -3.38024,0.16171 -13.78769,1.2521 -13.80194,-0.62072 -0.0131,-1.7232 10.17678,-1.20793 13.55701,-1.36964 1.88666,-0.0903 5.37634,-0.26751 11.55503,0.59122 z"
        id="path12301" stroke-miterlimit="4" />
    <path style="fill:#333333;stroke:#e6e6e6;stroke-linejoin:round;stroke-miterlimit:4"
        inkscape:connector-curvature="0" d="M 138.09415,93.177746" id="path30763"
        stroke-miterlimit="4" />
    <path style="fill:#333333;stroke:#e6e6e6;stroke-linejoin:round;stroke-miterlimit:4"
        inkscape:connector-curvature="0" d="M 140.75488,271.85084" id="path32961"
        stroke-miterlimit="4" />
    <g id="g12198"
        transform="matrix(0.99885765,-0.04778498,0.04778498,0.99885765,-72.511123,-28.911265)">
        <path style="fill:#333333;stroke:#e6e6e6;stroke-linejoin:round;stroke-miterlimit:4"
            inkscape:connector-curvature="0" d="M 235.51285,242.33441" id="path12200"
            stroke-miterlimit="4" />
        <path style="fill:#333333;stroke:#e6e6e6;stroke-linejoin:round;stroke-miterlimit:4"
            inkscape:connector-curvature="0" d="M 234.77338,242.39218" id="path12202"
            stroke-miterlimit="4" />
    </g>
    <path style="fill:#333333;stroke:#e6e6e6;stroke-linejoin:round;stroke-miterlimit:4"
        inkscape:connector-curvature="0"
        d="m 213.24906,373.0567 c 3.0223,9.28764 -2.14522,19.01238 -11.53465,21.70684 -9.38944,2.69457 -19.46276,-2.65647 -22.48509,-11.94414 -3.02231,-9.28767 2.14523,-19.01241 11.5347,-21.70688 9.38942,-2.69445 19.4627,2.65655 22.48504,11.94418 z"
        id="path36679" stroke-miterlimit="4" />
    <path style="fill:#333333;stroke:#e6e6e6;stroke-linejoin:round;stroke-miterlimit:4"
        inkscape:connector-curvature="0"
        d="m 182.78142,327.69576 c 3.25165,4.02455 14.593,10.53052 13.65426,11.39928 -1.28497,1.18904 -7.21045,-2.12779 -15.27519,-9.53954 -0.749,-0.68833 -3.10987,-7.47658 -3.38301,-11.03467 -0.27308,-3.55803 -0.0556,-2.8367 -0.12366,-4.58551 2.36585,0.70028 5.77655,8.70761 7.00979,11.2669 -0.96532,0.68576 -1.63248,1.72909 -1.88222,2.49354 z"
        id="path40336" stroke-miterlimit="4" />
    <path style="fill:#333333;stroke:#e6e6e6;stroke-linejoin:round;stroke-miterlimit:4"
        inkscape:connector-curvature="0"
        d="m 112.41676,412.18028 c -0.51596,-0.0471 -1.04942,-2.86761 0.11243,-2.70323 3.16451,0.44751 16.81615,4.6501 20.49524,7.47569 7.35814,5.6514 18.44975,15.45268 23.08511,22.78527 -7.65562,-6.58673 -16.1432,-13.88053 -23.50136,-19.53196 -7.35816,-5.65127 -13.17036,-7.33875 -20.19142,-8.02577 z"
        id="path11773" stroke-miterlimit="4" />
    <g id="g4429"
        transform="matrix(0.99885765,-0.04778498,0.04778498,0.99885765,-72.511123,-28.911265)">
        <path style="fill:#333333;stroke:#e6e6e6;stroke-linejoin:round;stroke-miterlimit:4"
            inkscape:connector-curvature="0" d="M 209.90721,485.49786" id="path2231"
            stroke-miterlimit="4" />
        <path
            style="fill:#333333;fill-opacity:0.54487197;stroke:#e6e6e6;stroke-linejoin:round;stroke-miterlimit:4"
            inkscape:connector-curvature="0" d="M 205.79361,485.9837" id="path2967"
            stroke-miterlimit="4" />
    </g>
    <g id="g4433"
        transform="matrix(0.99885765,-0.04778498,0.04778498,0.99885765,-72.511123,-28.911265)">
        <path style="fill:#333333;stroke:#e6e6e6;stroke-linejoin:round;stroke-miterlimit:4"
            inkscape:connector-curvature="0" d="M 263.75925,423.85348" id="path4435"
            stroke-miterlimit="4" />
        <path
            style="fill:#333333;fill-opacity:0.54487197;stroke:#e6e6e6;stroke-linejoin:round;stroke-miterlimit:4"
            inkscape:connector-curvature="0" d="M 259.6456,424.33923" id="path4437"
            stroke-miterlimit="4" />
    </g>
    <g id="g4441"
        transform="matrix(0.99885765,-0.04778498,0.04778498,0.99885765,-72.511123,-28.911265)">
        <path style="fill:#333333;stroke:#e6e6e6;stroke-linejoin:round;stroke-miterlimit:4"
            inkscape:connector-curvature="0" d="M 268.69559,382.54712" id="path4443"
            stroke-miterlimit="4" />
        <path
            style="fill:#333333;fill-opacity:0.54487197;stroke:#e6e6e6;stroke-linejoin:round;stroke-miterlimit:4"
            inkscape:connector-curvature="0" d="M 264.58191,383.0329" id="path4445"
            stroke-miterlimit="4" />
    </g>
    <path style="fill:#333333;stroke:#e6e6e6;stroke-linejoin:round;stroke-miterlimit:4"
        inkscape:connector-curvature="0"
        d="m 214.31203,420.91715 c -1.73591,-9.66723 -10.9686,-16.61496 -21.45332,-12.56385 6.00829,-2.2189 15.98896,3.54761 17.86074,12.83061 2.49875,12.39189 -8.71885,16.97362 -15.90762,15.89962 6.51904,1.23644 21.95802,-2.47852 19.5002,-16.16638 z"
        id="path4457" stroke-miterlimit="4" />
    <path style="fill:#333333;stroke:#e6e6e6;stroke-linejoin:round;stroke-miterlimit:4"
        inkscape:connector-curvature="0" d="M 210.22097,417.94393" id="path5213"
        stroke-miterlimit="4" />
    <path style="fill:#333333;stroke:#e6e6e6;stroke-linejoin:round;stroke-miterlimit:4"
        inkscape:connector-curvature="0"
        d="m 173.00623,403.62405 c -0.0805,-2.06964 14.50275,-0.91386 19.10854,8.80198 2.16056,4.55766 5.80378,9.41564 6.71251,13.77567 -3.70677,-2.73756 -6.89038,-7.33064 -9.58763,-11.6535 -7.52754,-12.06454 -16.35014,-9.2061 -16.23342,-10.92415 z"
        id="path4455" stroke-miterlimit="4" />
    <path style="fill:#333333;stroke:#e6e6e6;stroke-linejoin:round;stroke-miterlimit:4"
        inkscape:connector-curvature="0" d="M 153.20522,146.70775" id="path18353"
        stroke-miterlimit="4" />
    <path style="fill:#333333;stroke:#e6e6e6;stroke-linejoin:round;stroke-miterlimit:4"
        inkscape:connector-curvature="0"
        d="m 122.25776,109.06605 2.74062,-0.0843 0.95308,173.26821 -2.74058,0.0842 -0.95313,-173.26816 z"
        id="rect18369" stroke-miterlimit="4" />
    <path style="fill:#333333;stroke:#e6e6e6;stroke-linejoin:round;stroke-miterlimit:4"
        inkscape:connector-curvature="0" d="M 125.78258,107.75524" id="path18404"
        stroke-miterlimit="4" />
    <path style="fill:#333333;stroke:#e6e6e6;stroke-linejoin:round;stroke-miterlimit:4"
        inkscape:connector-curvature="0"
        d="m 119.48187,94.927222 2.74056,-0.08425 1.64401,187.710212 -2.74058,0.0843 -1.64399,-187.710188 z"
        id="rect18357" stroke-miterlimit="4" />
    <path style="fill:#333333;stroke:#e6e6e6;stroke-linejoin:round;stroke-miterlimit:4"
        inkscape:connector-curvature="0" d="M 123.2039,92.892841" id="path18400"
        stroke-miterlimit="4" />
    <path style="fill:#333333;stroke:#e6e6e6;stroke-linejoin:round;stroke-miterlimit:4"
        inkscape:connector-curvature="0" d="M 119.94382,268.50315" id="path5346"
        stroke-miterlimit="4" />
    <path style="fill:#333333;stroke:#e6e6e6;stroke-linejoin:round;stroke-miterlimit:4"
        inkscape:connector-curvature="0"
        d="m 117.13612,71.898797 2.7406,-0.08426 1.65392,212.317339 -2.74063,0.0843 -1.65389,-212.317363 z"
        id="rect18361" stroke-miterlimit="4" />
    <path style="fill:#333333;stroke:#e6e6e6;stroke-linejoin:round;stroke-miterlimit:4"
        inkscape:connector-curvature="0"
        d="m 130.63165,153.72399 c 0,0 1.38082,0.49755 1.38798,1.16806 l 0.5561,138.10407 c 0.007,0.67047 -0.59615,1.22899 -1.35264,1.25222 l -0.01,2.9e-4 c -0.75651,0.0233 -1.37128,-0.49772 -1.37847,-1.16824 l -0.55604,-138.10415 c -0.007,-0.67045 0.5961,-1.22895 1.3526,-1.25223 z"
        id="rect18365" stroke-miterlimit="4" />
    <path style="fill:#333333;stroke:#e6e6e6;stroke-linejoin:round;stroke-miterlimit:4"
        inkscape:connector-curvature="0" d="M 128.0946,284.23375" id="path18380"
        stroke-miterlimit="4" />
    <path style="fill:#333333;stroke:#e6e6e6;stroke-linejoin:round;stroke-miterlimit:4"
        inkscape:connector-curvature="0" d="M 126.11478,284.32846" id="path18384"
        stroke-miterlimit="4" />
    <path style="fill:#333333;stroke:#e6e6e6;stroke-linejoin:round;stroke-miterlimit:4"
        inkscape:connector-curvature="0" d="M 123.7954,284.64614" id="path18388"
        stroke-miterlimit="4" />
    <path style="fill:#333333;stroke:#e6e6e6;stroke-linejoin:round;stroke-miterlimit:4"
        inkscape:connector-curvature="0" d="M 133.83687,295.63614" id="path18392"
        stroke-miterlimit="4" />
    <path style="fill:#333333;stroke:#e6e6e6;stroke-linejoin:round;stroke-miterlimit:4"
        inkscape:connector-curvature="0" d="M 120.61034,72.545059" id="path18396"
        stroke-miterlimit="4" />
    <path style="fill:#333333;stroke:#e6e6e6;stroke-linejoin:round;stroke-miterlimit:4"
        inkscape:connector-curvature="0"
        d="m 153.12511,108.66739 c -0.48748,1.99668 -2.0664,2.70688 -2.91443,1.96094 -0.69217,-0.60886 -0.9947,-11.108145 -0.38314,-11.390211 1.11278,-0.51332 2.39845,0.126545 3.0002,1.757021 0.91402,2.47654 0.90596,5.17939 0.29736,7.67225 z"
        id="path19879" stroke-miterlimit="4" />
    <path style="fill:#333333;stroke:#e6e6e6;stroke-linejoin:round;stroke-miterlimit:4"
        inkscape:connector-curvature="0"
        d="m 115.58147,297.87376 c -0.0134,3.48283 -0.035,5.44106 -3.3542,5.59985 -3.31916,0.15878 -2.69051,-3.37383 -2.78296,-5.30625 -0.71165,-14.87581 -0.66734,-20.12312 2.65181,-20.28191 0.82979,-0.0397 6.36497,-2.50042 6.54988,-1.21226 l 0.001,1.18557 c -6.60564,1.03857 -6.5267,6.27241 -3.01806,7.65986 l -0.0477,12.35514 z"
        id="path2306" stroke-miterlimit="4" />
    <path style="fill:#333333;stroke:#e6e6e6;stroke-linejoin:round;stroke-miterlimit:4"
        inkscape:connector-curvature="0"
        d="m 123.11536,286.89553 c 0.0497,1.0397 -0.42234,12.86462 -1.08673,16.09671 -0.70255,3.41779 -3.75697,2.24154 -4.88706,3.2756 l -0.25936,8.46879 c -0.0874,2.85543 -2.79325,4.53945 -3.36512,4.56681 -2.28745,0.10943 -3.64673,-1.08 -3.69297,-4.08318 l -0.16258,-10.5591 c -0.24878,-0.80953 4.4738,-0.75685 6.07723,-1.04495 4.32959,-0.77802 4.72725,-0.71643 5.19558,-16.61634 l 2.18101,-0.10434 z"
        id="path2309" stroke-miterlimit="4" />
    <path style="fill:#333333;stroke:#e6e6e6;stroke-linejoin:round;stroke-miterlimit:4"
        inkscape:connector-curvature="0"
        d="m 124.15245,285.76207 c 0.0497,1.03967 1.54619,31.16515 0.88178,34.39721 -0.70256,3.41781 -5.77533,1.17634 -6.90548,2.2104 l -0.25933,8.46873 c -0.0874,2.8554 -2.79331,4.53947 -3.36515,4.56683 -2.28747,0.10943 -3.6467,-1.07997 -3.69292,-4.0832 l -0.16259,-10.5591 c -0.24881,-0.80954 4.47379,-0.7568 6.07722,-1.04493 4.3296,-0.77799 5.67358,0.78738 6.14191,-15.1126 l 1.28456,-18.84334 z"
        id="path3780" stroke-miterlimit="4" />
    <path style="fill:#333333;stroke:#e6e6e6;stroke-linejoin:round;stroke-miterlimit:4"
        inkscape:connector-curvature="0"
        d="m 174.44436,357.05371 c 3.25168,4.02457 22.38045,21.83104 21.44174,22.69983 -1.28498,1.18907 -15.86595,-13.75163 -23.93066,-21.16337 -1.49797,-1.37665 -1.9058,-4.01966 0.34347,-4.00967 2.12149,0.009 2.645,0.94424 2.14545,2.47321 z"
        id="path39599" stroke-miterlimit="4" />
    <path style="fill:#333333;stroke:#e6e6e6;stroke-linejoin:round;stroke-miterlimit:4"
        inkscape:connector-curvature="0" d="M 174.00212,220.23767" id="path5297"
        stroke-miterlimit="4" />
    <path style="fill:#333333;stroke:#e6e6e6;stroke-linejoin:round;stroke-miterlimit:4"
        inkscape:connector-curvature="0" d="M 172.1505,220.32628" id="path5301"
        stroke-miterlimit="4" />
    <path style="fill:#333333;stroke:#e6e6e6;stroke-linejoin:round;stroke-miterlimit:4"
        inkscape:connector-curvature="0" d="M 169.92854,220.43258" id="path5305"
        stroke-miterlimit="4" />
    <path style="fill:#333333;stroke:#e6e6e6;stroke-linejoin:round;stroke-miterlimit:4"
        inkscape:connector-curvature="0" d="M 167.96387,220.74579" id="path5309"
        stroke-miterlimit="4" />
    <path style="fill:#333333;stroke:#e6e6e6;stroke-linejoin:round;stroke-miterlimit:4"
        inkscape:connector-curvature="0" d="M 168.61465,249.86591" id="path5313"
        stroke-miterlimit="4" />
    <path style="fill:#333333;stroke:#e6e6e6;stroke-linejoin:round;stroke-miterlimit:4"
        inkscape:connector-curvature="0" d="M 133.80317,180.61323" id="path5342"
        stroke-miterlimit="4" />
    <path style="fill:#333333;stroke:#e6e6e6;stroke-linejoin:round;stroke-miterlimit:4"
        inkscape:connector-curvature="0" d="M 116.26325,362.26116" id="path5350"
        stroke-miterlimit="4" />
    <path style="fill:#333333;stroke:#e6e6e6;stroke-linejoin:round;stroke-miterlimit:4"
        inkscape:connector-curvature="0" d="M 116.53945,373.20686" id="path5354"
        stroke-miterlimit="4" />
    <path style="fill:#333333;stroke:#e6e6e6;stroke-linejoin:round;stroke-miterlimit:4"
        inkscape:connector-curvature="0" d="M 116.99749,424.16179" id="path5358"
        stroke-miterlimit="4" />
    <path style="fill:#333333;stroke:#e6e6e6;stroke-linejoin:round;stroke-miterlimit:4"
        inkscape:connector-curvature="0"
        d="m 135.36739,329.49523 c 0.0946,1.97662 -0.0143,8.08707 -1.37338,12.71792 -1.35917,4.63085 -3.9686,7.78202 -5.61971,9.82172 -1.45002,1.79109 -4.94472,1.15523 -5.7916,-0.11939 -1.7904,-2.69452 4.25723,-11.03063 4.79857,-13.4901 0.59357,-2.69703 1.52549,-5.60847 1.80871,-8.74424 0.21873,-2.42149 6.09208,-1.96945 6.17741,-0.18591 z"
        id="path5362" stroke-miterlimit="4" />
    <path style="fill:#333333;stroke:#e6e6e6;stroke-linejoin:round;stroke-miterlimit:4"
        inkscape:connector-curvature="0" d="M 178.01783,407.97873" id="path7582"
        stroke-miterlimit="4" />
    <path style="fill:#333333;stroke:#e6e6e6;stroke-linejoin:round;stroke-miterlimit:4"
        inkscape:connector-curvature="0" d="M 163.84506,278.11217" id="path7586"
        stroke-miterlimit="4" />
    <path style="fill:#333333;stroke:#e6e6e6;stroke-linejoin:round;stroke-miterlimit:4"
        inkscape:connector-curvature="0" d="M 162.50487,269.67405" id="path7590"
        stroke-miterlimit="4" />
    <path style="fill:#333333;stroke:#e6e6e6;stroke-linejoin:round;stroke-miterlimit:4"
        inkscape:connector-curvature="0" d="M 183.00785,284.09864" id="path11360"
        stroke-miterlimit="4" />
    <path style="fill:#333333;stroke:#e6e6e6;stroke-linejoin:round;stroke-miterlimit:4"
        inkscape:connector-curvature="0"
        d="m 123.91835,68.014901 18.74561,-0.896783 c 0.95656,-0.04576 7.0447,0.346645 7.08523,1.193936 l 0.24188,5.056038 c 0.0405,0.847341 -5.98234,1.819124 -6.9389,1.864886 l -18.7456,0.896782 c -0.95655,0.04576 -1.75927,-0.599488 -1.79981,-1.446829 l -0.24187,-5.056038 c -0.0405,-0.847291 0.69692,-1.566231 1.65346,-1.611992 z"
        id="rect12126" stroke-miterlimit="4" />
    <path style="fill:#333333;stroke:#e6e6e6;stroke-linejoin:round;stroke-miterlimit:4"
        inkscape:connector-curvature="0" d="M 156.53518,69.895605" id="path12863"
        stroke-miterlimit="4" />
    <path style="fill:#333333;stroke:#e6e6e6;stroke-linejoin:round;stroke-miterlimit:4"
        inkscape:connector-curvature="0"
        d="m 64.951719,13.614237 c -5.482218,-2.737795 -9.210642,8.122834 -1.598008,8.394632 -1.204342,2.420513 -3.711255,4.030854 -17.521729,-0.01744 C 32.021546,17.943097 0.42606979,6.9137438 0.50038728,5.4366812 0.69308866,1.6070311 24.08182,8.7130227 35.363223,1.2805475 c 3.150283,-2.07547215 7.984832,0.4965982 17.663903,2.6967504 5.629307,1.2796075 13.397372,5.6220082 11.924593,9.6369391 z"
        id="path14333" stroke-miterlimit="4" />
</svg>
