<?xml version="1.0" encoding="UTF-8" standalone="no"?>
<!-- Generator: Adobe Illustrator 13.0.2, SVG Export Plug-In . SVG Version: 6.00 Build 14948)  -->

<svg
   xmlns:dc="http://purl.org/dc/elements/1.1/"
   xmlns:cc="http://creativecommons.org/ns#"
   xmlns:rdf="http://www.w3.org/1999/02/22-rdf-syntax-ns#"
   xmlns:svg="http://www.w3.org/2000/svg"
   xmlns="http://www.w3.org/2000/svg"
   xmlns:sodipodi="http://sodipodi.sourceforge.net/DTD/sodipodi-0.dtd"
   xmlns:inkscape="http://www.inkscape.org/namespaces/inkscape"
   version="1.1"
   id="violin_bow_xA0_Image_1_"
   x="0px"
   y="0px"
   viewBox="0 0 14.255784 315.602"
   enable-background="new 0 0 325.44 32.64"
   xml:space="preserve"
   inkscape:version="0.91 r13725"
   sodipodi:docname="violin_ambient_minute_hand.svg"><metadata
     id="metadata11"><rdf:RDF><cc:Work
         rdf:about=""><dc:format>image/svg+xml</dc:format><dc:type
           rdf:resource="http://purl.org/dc/dcmitype/StillImage" /><dc:title /></cc:Work></rdf:RDF></metadata><defs
     id="defs9" /><sodipodi:namedview
     pagecolor="#ffffff"
     bordercolor="#666666"
     borderopacity="1"
     objecttolerance="10"
     gridtolerance="10"
     guidetolerance="10"
     inkscape:pageopacity="0"
     inkscape:pageshadow="2"
     inkscape:window-width="1273"
     inkscape:window-height="623"
     id="namedview7"
     showgrid="false"
     fit-margin-top="0"
     fit-margin-left="0"
     fit-margin-right="0"
     fit-margin-bottom="0"
     inkscape:zoom="1.6838741"
     inkscape:cx="-163.60493"
     inkscape:cy="159.87344"
     inkscape:window-x="38"
     inkscape:window-y="0"
     inkscape:window-maximized="0"
     inkscape:current-layer="violin_bow_xA0_Image_1_" /><g
     id="g3"
     transform="matrix(0,1,1,0,-11.264546,-8.88)"><path
       d="m 62.64,15.6 c 12.584,0.734 24.349,0.873 36.24,0.96 7.124,0.052 14.281,0.818 21.36,0.96 0.972,0.02 2.124,-0.303 3.12,-0.24 0.866,0.055 1.58,0.432 2.4,0.48 2.801,0.164 5.906,0.034 8.64,0 14.148,-0.176 28.807,-0.002 40.8,-0.48 0.492,-0.02 0.846,0.11 0.937,0.108 0.428,-0.01 1.018,-0.104 1.464,-0.108 8.997,-0.087 17.424,-0.351 25.92,-0.24 6.818,0.089 13.815,-0.613 20.64,-0.72 1.663,-0.026 3.373,0.284 5.04,0.24 3.56,-0.094 7.152,-0.639 10.8,-0.72 3.158,-0.07 6.279,0.08 8.881,-0.24 1.563,-0.192 4.441,-0.337 6.96,-0.48 0.436,-0.025 0.822,-0.454 1.199,-0.48 3.025,-0.208 5.592,-0.028 8.4,0.24 3.497,0.333 7.587,-0.379 11.521,-0.48 3.39,-0.087 6.771,-0.313 10.08,-0.48 7.665,-0.386 15.545,-0.414 22.56,-0.96 2.128,-0.166 4.379,-1.031 6.72,0 1.478,-0.667 3.945,-0.199 5.28,-0.96 0.401,-0.229 0.407,-1.186 0.96,-0.48 0.992,0.486 1.805,0.434 0.96,1.68 0.101,0.939 0.907,1.172 0.96,2.16 -0.37,1.15 -1.388,1.652 -1.92,2.64 -0.885,0.856 -0.303,-1.107 -1.44,-0.72 -3.774,-0.74 -6.894,0.604 -10.56,0 -1.479,1.722 -0.344,6.057 -1.44,8.16 -12.37,-0.534 -25.459,0.338 -39.84,0 -21.562,-0.507 -45.448,-0.295 -65.28,-0.479 -18.28,-0.171 -36.127,0.095 -53.52,-0.24 C 138.49,24.49 125.957,24.468 114.722,24.241 80.846,23.556 48.5,22.8 16.8,22.8 c -2.578,0 -5.407,-0.259 -7.92,-1.44 0.285,-2.016 2.238,-2.685 3.36,-4.32 0.658,-0.959 0.958,-1.97 1.68,-2.88 2.746,-3.464 7.493,-2.951 12.72,-2.4 1.614,0.17 3.343,0.472 5.04,0.72 3.145,0.459 6.408,0.51 9.6,0.96 6.856,0.966 13.748,1.703 19.68,1.92 0,0 1.666,0.194 1.68,0.24 z m 256.32,0 c 0.515,0.444 1.278,-0.318 2.159,-0.24 0.178,-0.879 -0.59,-1.333 0,-1.92 -1.552,-0.658 -2.368,0.387 -2.159,2.16 z M 312,13.68 c -0.01,0.79 -0.404,1.195 -0.239,2.16 0.574,0.504 1.13,-0.466 2.16,-0.24 0.084,-0.808 0.545,-1.75 -0.24,-2.16 -0.104,0.537 -1.183,0.097 -1.681,0.24 z M 18.48,18 c 0.441,1.995 4.15,1.628 6.96,1.681 2.683,0.05 5.527,0.24 8.4,0.24 7.739,0 10.332,0.239 16.8,0.239 11.384,0 22.285,0.721 34.08,0.721 11.233,0 22.209,0.361 33.36,0.479 10.196,0.108 25.275,0.017 35.28,0.24 11.54,0.258 22.372,0.517 33.36,0.479 23.625,-0.077 48.702,0.009 67.2,0.24 7.284,0.091 16.716,-0.512 24.479,-0.24 2.903,0.102 5.933,0.574 8.641,0.24 0.495,-0.061 0.68,-0.093 0.959,-0.24 1.812,-0.955 6.053,0.13 5.28,-3.119 -0.37,-1.559 -3.103,-0.996 -4.8,-0.961 -5.819,0.124 -12.526,0.472 -18,0.721 -6.415,0.291 -11.416,0.711 -17.52,0.72 -8.606,0.013 -19.4,0.43 -28.801,0.48 -16.698,0.089 -31.255,0.368 -45.359,0.479 -15.37,0.122 -29.614,0.816 -45.36,0.24 -13.572,-0.497 -29.051,-0.578 -44.16,-0.72 -7.529,-0.071 -14.91,-0.724 -22.32,-1.2 -11.267,-0.726 -22.561,-1.641 -33.36,-2.88 -3.775,-0.433 -8.766,-0.963 -11.76,-0.72 -2.768,0.226 -3.881,0.516 -3.359,2.881 z m 274.08,-1.92 c -0.253,0.893 0.81,0.471 0.96,0.96 -0.682,0.225 0.624,4.115 1.68,2.64 -0.304,-0.521 -0.057,-0.534 -0.479,-1.2 1.905,-0.307 3.404,0.369 4.56,-0.48 -1.343,-0.496 -3.062,0.254 -4.8,-0.239 0.596,-0.125 0.854,-0.585 1.2,-0.96 0.631,-0.071 0.188,0.931 0.96,0.72 -0.03,-0.601 -0.458,-0.751 0.24,-0.96 1.945,-0.288 4.232,-0.216 6.479,-0.24 1.318,-0.014 3.612,0.592 3.601,-0.96 -5.924,0.252 -9.034,0.606 -14.401,0.719 z m 7.2,3.12 c 0.187,0.054 0.278,0.201 0.239,0.48 0.914,0.113 1.499,-0.102 1.681,-0.72 -0.43,-0.635 -1.762,-0.654 -1.92,0.24 z m -1.44,0.48 c -0.729,0.15 -2.067,-0.308 -2.399,0.24 0.571,0.17 2.225,0.634 2.399,-0.24 z m -16.8,3.36 c -30.968,0 -65.012,0.405 -92.16,-0.479 -11.977,-0.391 -23.516,0.264 -35.28,0 -11.302,-0.254 -22.547,-0.683 -33.36,-0.48 -10.775,0.203 -21.486,0.063 -32.4,-0.479 -5.546,-0.276 -11.193,0.134 -16.8,0 -16.908,-0.405 -34.065,-0.861 -50.4,-0.96 -1.042,-0.063 -0.102,0.931 0.24,0.96 34.199,0.526 66.996,1.68 99.36,1.68 22.283,0 44.787,0.993 65.279,0.96 30.988,-0.049 65.196,0.24 99.36,0.24 1.274,0 2.887,0.402 4.08,-0.48 -2.334,-1.643 -5.418,-0.962 -7.919,-0.962 z m 16.32,-2.16 c 0.255,0.01 0.609,-0.113 0.239,-0.24 -1.169,-0.11 -2.811,0.251 -3.6,-0.24 -0.819,0.62 -1.776,1.104 -2.4,1.92 3.084,0.255 7.409,0.379 11.04,0 -0.682,-0.491 0.004,-0.956 0,-0.96 -0.292,-0.337 -1.511,0.437 -1.199,-0.96 -0.482,0.252 -2.587,0.115 -2.16,0.48 0.453,0.106 1.446,-0.327 1.2,0.479 -2.242,-0.158 -5.119,0.318 -6.961,-0.24 0.863,-0.497 2.596,-0.123 3.841,-0.239 z m 6.24,1.44 c 1.264,0.144 2.062,-0.178 3.12,-0.24 0,-0.479 0,-0.96 0,-1.439 -0.239,0 -0.479,0 -0.72,0 0.862,1.517 -2.752,-0.054 -2.4,1.679 z"
       id="path5"
       inkscape:connector-curvature="0"
       style="clip-rule:evenodd;fill:#ffffff;fill-rule:evenodd" /></g></svg>