<?xml version="1.0" encoding="UTF-8" standalone="no"?>
<!--suppress ALL -->
<svg xmlns:dc="http://purl.org/dc/elements/1.1/" xmlns:cc="http://creativecommons.org/ns#"
    xmlns:rdf="http://www.w3.org/1999/02/22-rdf-syntax-ns#" xmlns="http://www.w3.org/2000/svg"
    xmlns:xlink="http://www.w3.org/1999/xlink"
    xmlns:sodipodi="http://sodipodi.sourceforge.net/DTD/sodipodi-0.dtd"
    xmlns:inkscape="http://www.inkscape.org/namespaces/inkscape" id="svg2"
    viewBox="0 0 354.94669 1187.5941" version="1.0" inkscape:version="0.91 r13725"
    sodipodi:docname="dStulle_Vilolin.svg">
    <sodipodi:namedview pagecolor="#ffffff" bordercolor="#666666" borderopacity="1"
        objecttolerance="10" gridtolerance="10" guidetolerance="10" inkscape:pageopacity="0"
        inkscape:pageshadow="2" inkscape:window-width="1148" inkscape:window-height="594"
        id="namedview136" showgrid="false" fit-margin-top="0" fit-margin-left="0"
        fit-margin-right="0" fit-margin-bottom="0" inkscape:zoom="0.23071742"
        inkscape:cx="177.37541" inkscape:cy="593.69866" inkscape:window-x="0" inkscape:window-y="0"
        inkscape:window-maximized="0" inkscape:current-layer="svg2" />
    <defs id="defs4">
        <linearGradient id="linearGradient5238">
            <stop id="stop5244" stop-color="#c13709" offset="0" />
            <stop id="stop5242" stop-color="#6f1100" offset="1" />
        </linearGradient>
        <linearGradient id="linearGradient3439">
            <stop id="stop3441" stop-color="#fff" stop-opacity=".39216" offset="0" />
            <stop id="stop3443" stop-color="#fff" stop-opacity="0" offset="1" />
        </linearGradient>
        <linearGradient id="linearGradient3218">
            <stop id="stop5100" stop-color="#6f1100" offset="0" />
            <stop id="stop3222" stop-color="#c13709" offset="1" />
        </linearGradient>
        <linearGradient id="linearGradient3393" y2="5.2656002" xlink:href="#linearGradient3218"
            gradientUnits="userSpaceOnUse" x2="398.62" y1="5.2656002" x1="351.09" />
        <linearGradient id="linearGradient3395" y2="55.041" xlink:href="#linearGradient3218"
            gradientUnits="userSpaceOnUse" x2="361.47" y1="67.056" x1="361.47" />
        <linearGradient id="linearGradient3397" y2="61.333" xlink:href="#linearGradient3218"
            gradientUnits="userSpaceOnUse" x2="322.85999" y1="61.333" x1="290.97" />
        <linearGradient id="linearGradient3399" y2="55.041" xlink:href="#linearGradient3218"
            gradientUnits="userSpaceOnUse" x2="361.47"
            gradientTransform="matrix(-1,0,0,1,750.16,-33.14)" y1="67.056" x1="361.47" />
        <linearGradient id="linearGradient3402" y2="61.331001" xlink:href="#linearGradient3218"
            gradientUnits="userSpaceOnUse" x2="323.35999"
            gradientTransform="matrix(-1,0,0,1,750.16,-33.14)" y1="61.331001" x1="290.94" />
        <linearGradient id="linearGradient3406" y2="61.333" xlink:href="#linearGradient3218"
            gradientUnits="userSpaceOnUse" x2="290.97"
            gradientTransform="matrix(-1,0,0,1,750.16,-33.14)" y1="61.333" x1="322.85999" />
        <linearGradient id="linearGradient3408" y2="55.041" xlink:href="#linearGradient3218"
            gradientUnits="userSpaceOnUse" x2="361.47"
            gradientTransform="matrix(-1,0,0,1,749.4,-113.12)" y1="67.056" x1="361.47" />
        <linearGradient id="linearGradient3410" y2="61.333" xlink:href="#linearGradient3218"
            gradientUnits="userSpaceOnUse" x2="290.97"
            gradientTransform="matrix(-1,0,0,1,749.4,-113.12)" y1="61.333" x1="322.85999" />
        <linearGradient id="linearGradient3412" y2="6.9603" xlink:href="#linearGradient3218"
            gradientUnits="userSpaceOnUse" x2="352.38" y1="7.1922998" x1="360.42999" />
        <linearGradient id="linearGradient3414" y2="6.6251001" xlink:href="#linearGradient3218"
            gradientUnits="userSpaceOnUse" x2="389.53" y1="6.3077002" x1="397.60001" />
        <linearGradient id="linearGradient3416" y2="-36.438" xlink:href="#linearGradient5238"
            gradientUnits="userSpaceOnUse" x2="208.42" y1="-36.438" x1="152.58" />
        <radialGradient id="radialGradient3418" xlink:href="#linearGradient3218"
            gradientUnits="userSpaceOnUse" cy="641.15002" cx="378.32001"
            gradientTransform="matrix(0.49202,0,0,1.9162,186.18,-555.4)" r="177.47" />
        <radialGradient id="radialGradient3420" xlink:href="#linearGradient3439"
            gradientUnits="userSpaceOnUse" cy="628.42999" cx="375.45999"
            gradientTransform="matrix(1,0,0,1.4343,0,-272.96)" r="52.724998" />
        <linearGradient id="linearGradient3422" y2="308.53" gradientUnits="userSpaceOnUse"
            x2="418.04999" gradientTransform="translate(-6,32)" y1="308.53" x1="343.89999">
            <stop id="stop3232" stop-color="#383838" offset="0" />
            <stop id="stop3234" offset="1" />
        </linearGradient>
        <linearGradient id="linearGradient3424" y2="889.72998" gradientUnits="userSpaceOnUse"
            x2="345.98001" y1="889.72998" x1="406.38">
            <stop id="stop3419" stop-color="#6f1100" offset="0" />
            <stop id="stop3423" stop-color="#982404" offset=".5" />
            <stop id="stop3425" stop-color="#ac2d06" offset=".5" />
            <stop id="stop3421" stop-color="#c13709" offset="1" />
        </linearGradient>
        <linearGradient id="linearGradient3426" y2="1029.3" xlink:href="#linearGradient3218"
            gradientUnits="userSpaceOnUse" x2="370.88"
            gradientTransform="matrix(2.0387,0,0,2.0387,-392.31,-1069.5)" y1="1029.3"
            x1="383.14001" />
        <linearGradient id="linearGradient3428" y2="466.17001" xlink:href="#linearGradient3439"
            gradientUnits="userSpaceOnUse" x2="380.98001" gradientTransform="translate(-6,32)"
            y1="668.54999" x1="380.98001" />
        <linearGradient id="linearGradient3430" y2="1012.6" xlink:href="#linearGradient3218"
            gradientUnits="userSpaceOnUse" x2="411.47" y1="939.10999" x1="202.14" />
        <linearGradient id="linearGradient3432" y2="987.03998" gradientUnits="userSpaceOnUse"
            x2="373.12" y1="1027.6" x1="388.54001">
            <stop id="stop3407" stop-color="#6f1100" stop-opacity="0" offset="0" />
            <stop id="stop3413" stop-color="#982404" offset=".5" />
            <stop id="stop3415" stop-color="#ac2d06" offset=".75" />
            <stop id="stop3409" stop-color="#c13709" stop-opacity="0" offset="1" />
        </linearGradient>
        <linearGradient id="linearGradient3434" y2="-109.32" xlink:href="#linearGradient3218"
            gradientUnits="userSpaceOnUse" x2="375.12" gradientTransform="translate(2.6363,-2.6629)"
            y1="-94.892998" x1="375.12" />
        <linearGradient id="linearGradient3436" y2="-88.666" xlink:href="#linearGradient5238"
            gradientUnits="userSpaceOnUse" x2="375.12"
            gradientTransform="translate(2.6363,-0.26629)" y1="-96.827003" x1="375.12" />
        <linearGradient id="linearGradient3438" y2="-14.667" xlink:href="#linearGradient5238"
            gradientUnits="userSpaceOnUse" x2="179.34" gradientTransform="translate(197.48,-73.699)"
            y1="-51.284" x1="179.34" />
        <linearGradient id="linearGradient3440" y2="-36.342999" gradientUnits="userSpaceOnUse"
            x2="168.95" y1="-36.342999" x1="191.60001">
            <stop id="stop5296" stop-color="#c13709" offset="0" />
            <stop id="stop5300" stop-color="#6f1100" offset=".5" />
            <stop id="stop5302" stop-color="#c13709" offset=".5" />
            <stop id="stop5298" stop-color="#6f1100" offset="1" />
        </linearGradient>
        <linearGradient inkscape:collect="always" xlink:href="#linearGradient3218"
            id="linearGradient3464" gradientUnits="userSpaceOnUse"
            gradientTransform="matrix(-1,0,0,1,750.16,-33.14)" x1="361.47" y1="67.056" x2="361.47"
            y2="55.041" />
    </defs>
    <g id="layer1" transform="matrix(0,1,-1,0,578.5958,270.39502)">
        <g id="g5394" transform="matrix(0.89318,-0.44969,0.44969,0.89318,-213.8,253.09)">
            <g id="g2698" transform="matrix(0.58028,0.81442,-0.81442,0.58028,554.88,-137.04)">
                <g id="g2541" transform="matrix(0.88075,-0.47357,0.47357,0.88075,-192.15,209.84)">
                    <g id="g3312"
                        transform="matrix(0.0087265,-0.99996,0.99996,0.0087265,-76.966,795.09)">
                        <path id="path3338"
                            d="m 354.5,-72.438 -2.91,155.41 35.63,-0.034 0,-0.313 10.9,0 -2.65,-155.06 -1.63,-0.003 -39.34,0 z"
                            style="fill:url(#linearGradient3393);fill-rule:evenodd;stroke:#000000;stroke-width:1px"
                            inkscape:connector-curvature="0" />
                        <path id="path3357"
                            d="m 354.5,-72.438 -2.91,155.41 35.63,-0.034 0,-0.313 10.9,0 -2.65,-155.06 -1.63,-0.003 -39.34,0 z"
                            inkscape:connector-curvature="0"
                            style="fill-opacity:0.78430996;fill-rule:evenodd;stroke:#000000;stroke-width:1px" />
                        <g id="g5278" style="fill-rule:evenodd;stroke:#000000;stroke-width:2">
                            <path id="path5088"
                                d="m 322.26,55.541 78.43,1.506 0,8.662 -78.33,0.847 -0.1,-11.015 z"
                                style="fill:url(#linearGradient3395)"
                                inkscape:connector-curvature="0" />
                            <path id="path5090"
                                d="m 322.36,57.424 0,7.908 c -0.02,16.726 -7.69,17.096 -13.69,17.148 -7.06,0.061 -17.03,-5.129 -17.19,-20.914 -0.17,-16.517 9.7,-21.589 16.93,-21.373 5.93,0.177 13.57,0.157 13.95,17.231 z"
                                style="fill:url(#linearGradient3397)"
                                inkscape:connector-curvature="0" />
                        </g>
                        <g id="g5282" style="fill-rule:evenodd;stroke:#000000;stroke-width:2">
                            <path id="path5142"
                                d="m 427.89,22.402 -78.42,1.506 0,8.661 78.33,0.848 0.09,-11.015 z"
                                style="fill:url(#linearGradient3464)"
                                inkscape:connector-curvature="0" />
                            <path id="path5144"
                                d="m 427.8,24.284 0,7.909 c 0,2.9 0.5,4.243 0.92,6.243 5.7,-5.643 7.81,-5.649 12.76,-5.605 5.13,0.044 10.03,0.228 14.46,3.758 1.25,-2.845 2.34,-6.283 2.27,-8.633 -0.08,-2.639 -1.26,-5.809 -2.37,-8.678 -4.38,3.177 -8.76,3.46 -14.09,3.619 -5.08,0.152 -8.36,-0.64 -13.37,-4.95 -0.32,1.795 -0.53,3.891 -0.58,6.337 z"
                                style="fill:url(#linearGradient3402);stroke-linejoin:round"
                                inkscape:connector-curvature="0" />
                        </g>
                        <g id="g5316" transform="matrix(-1,0,0,1,751.2,-47.471)"
                            style="fill-rule:evenodd;stroke:#000000;stroke-width:2">
                            <path id="path5318"
                                d="m 427.89,22.402 -78.42,1.506 0,8.661 78.33,0.848 0.09,-11.015 z"
                                style="fill:url(#linearGradient3399)"
                                inkscape:connector-curvature="0" />
                            <path id="path5320"
                                d="m 427.8,24.284 0,7.909 c 0,2.9 0.5,4.243 0.92,6.243 5.7,-5.643 7.81,-5.649 12.76,-5.605 5.13,0.044 10.03,0.228 14.46,3.758 1.25,-2.845 2.34,-6.283 2.27,-8.633 -0.08,-2.639 -1.26,-5.809 -2.37,-8.678 -4.38,3.177 -8.76,3.46 -14.09,3.619 -5.08,0.152 -8.36,-0.64 -13.37,-4.95 -0.32,1.795 -0.53,3.891 -0.58,6.337 z"
                                style="fill:url(#linearGradient3406);stroke-linejoin:round"
                                inkscape:connector-curvature="0" />
                        </g>
                        <g id="g5290" style="fill-rule:evenodd;stroke:#000000;stroke-width:2">
                            <path id="path5160"
                                d="m 427.14,-57.578 -78.42,1.506 0,8.662 78.33,0.847 0.09,-11.015 z"
                                style="fill:url(#linearGradient3408)"
                                inkscape:connector-curvature="0" />
                            <path id="path5162"
                                d="m 427.05,-55.695 0,7.908 c 0.01,16.726 7.69,17.096 13.68,17.148 7.06,0.061 17.03,-5.129 17.2,-20.914 0.17,-16.517 -9.7,-21.589 -16.93,-21.373 -5.94,0.177 -13.58,0.157 -13.95,17.231 z"
                                style="fill:url(#linearGradient3410)"
                                inkscape:connector-curvature="0" />
                        </g>
                        <path id="path3330"
                            d="m 362.47,-72.438 -8.5,0 -1.61,75.599 -1.7,79.808 8.26,-0.031 3.55,-155.38 z"
                            style="fill:url(#linearGradient3412);fill-rule:evenodd;stroke:#000000;stroke-width:2;stroke-linejoin:round"
                            inkscape:connector-curvature="0" />
                        <path id="path3332"
                            d="m 390.17,82.656 8.89,-0.031 -2.79,-155.06 -7.69,-0.003 1.59,155.09 z"
                            style="fill:url(#linearGradient3414);fill-rule:evenodd;stroke:#000000;stroke-width:2"
                            inkscape:connector-curvature="0" />
                        <path id="path5228"
                            d="m 172.51,-77.978 c 5.76,6.198 11.26,5.521 16.93,0 4.21,10.603 18.68,62.395 12.94,83.081 -14.74,-11.847 -29.94,-11.924 -44.21,1e-4 -4.56,-20.131 8.99,-73.389 14.34,-83.081 z"
                            transform="translate(194.84,-73.433)"
                            style="fill:url(#linearGradient3416);fill-rule:evenodd;stroke:#000000;stroke-width:2;stroke-linejoin:round"
                            inkscape:connector-curvature="0" />
                        <path id="path2383"
                            d="m 400.92,335.59 -51.17,0.44 c -53.07,0 -121.47,33.35 -121.47,124.03 0,36.34 11.51,52.12 12.5,86.03 0.17,5.87 -2.95,12.5 -8,18.55 1.11,2.64 2.8,5.76 4.58,9.03 17.43,-0.2 34.01,7.76 30.8,76.99 -4.11,87.98 -21.75,96.13 -47.07,90.18 -2.12,2.15 -3.92,4.64 -6.04,7.66 3.79,5.79 6.2,11.32 6.76,18.06 3.36,40.73 -24.47,91.08 -24.47,126.94 0,88.32 81.05,133 170.16,133 l 18.42,-0.2 c 89.11,0 161.37,-44.42 161.37,-132.74 0,-35.86 -27.83,-86.21 -24.47,-126.94 0.49,-5.9 2.4,-10.87 5.42,-15.91 -1.9,-3.35 -3.48,-6.36 -5.75,-9.57 -24.75,5.48 -41.96,-3.64 -46.01,-90.39 -3.15,-67.93 12.75,-76.89 29.81,-77.02 1.96,-3.08 4.13,-7.44 5.17,-9.5 -4.82,-5.91 -7.77,-12.34 -7.6,-18.05 0.99,-33.91 12.5,-49.72 12.5,-86.06 0,-90.68 -59.87,-125.03 -115.44,-124.53 z"
                            style="fill:url(#radialGradient3418);stroke:#000000;stroke-width:5;stroke-linecap:round;stroke-linejoin:round"
                            inkscape:connector-curvature="0" />
                        <path id="path3529"
                            d="m 428.19,628.43 a 52.725,75.625 0 1 1 -105.45,0 52.725,75.625 0 1 1 105.45,0 z"
                            style="opacity:0.5;fill:url(#radialGradient3420)"
                            inkscape:connector-curvature="0" />
                        <path id="path3206"
                            d="m 433.91,627.57 -7.49,5.22 c 0,0 2.84,2.25 0.97,6.91 -1.5,3.76 -7.19,2.91 -7.47,-3.32 -0.31,-7.37 5.97,-13.64 14.11,-13.41 22.04,0.6 26.93,78.67 26.93,78.67 l 3.59,0.83 -3.04,2.77 c 0,0 7.62,69.04 20.14,81.17 l 9.04,-6.73 c 0,0 -4.27,-1.34 -3.8,-8.56 0.44,-6.88 10.83,-8.73 12.88,0.48 1.78,8.04 -4.76,18.81 -18.7,18.38 -21.58,-0.66 -30.49,-80.31 -30.49,-80.31 l -3.18,-0.83 2.91,-2.91 c 0,0 -3.95,-62.73 -16.4,-78.36 z"
                            inkscape:connector-curvature="0"
                            style="fill-opacity:0.78430996;fill-rule:evenodd;stroke:#000000;stroke-width:2;stroke-linejoin:round" />
                        <path id="path3240" d="m 334,698.86 84.87,0 0,4 -84.87,0 0,-4 z"
                            inkscape:connector-curvature="0"
                            style="fill:#eedd4d;fill-opacity:0.78430996;fill-rule:evenodd;stroke:#000000;stroke-width:1px" />
                        <path id="path42"
                            d="m 395.75,340.94 c -32.69,1.39 -68.22,-3.48 -99.56,12.37 -31.89,14.46 -55.23,45.74 -60.28,80.35 -5.82,31.14 1.3,62.26 8.5,91.87 0.01,0.04 0.02,0.08 0.03,0.13 2.46,13.21 3.15,27.71 -4.22,38.62 -0.5,0.73 -0.58,1.68 -0.2,2.48 0.38,0.81 1.16,1.35 2.04,1.43 12.48,1.09 23.61,10.56 26.32,22.81 0.01,0.09 0.03,0.19 0.06,0.28 9.1,26.59 4.79,55.69 3.5,84.13 l 0,0.12 c -2.04,21.82 -4.96,44.62 -17.47,62.31 -0.02,0.03 -0.05,0.04 -0.06,0.07 -6.94,7.84 -18.36,11.52 -28.69,9.68 -0.92,-0.16 -1.85,0.2 -2.42,0.93 -0.57,0.74 -0.69,1.73 -0.3,2.57 9.39,20.95 2.84,45.11 -2.62,67.38 -8.97,31.95 -23.05,65.61 -15.13,100.47 7.2,34.95 32.1,64.49 63.91,80 44.96,23.56 97.25,24.66 146.22,20.16 l 0.06,0 c 40.64,-4.8 82.96,-22 106.94,-57.32 21.2,-31.67 24.44,-73.18 11.96,-108.69 -0.01,-0.05 -0.01,-0.1 -0.03,-0.15 -8.76,-31.59 -21.94,-63.83 -15.15,-96 0.02,-0.08 0.04,-0.17 0.06,-0.25 -0.01,0.07 0.18,-0.64 0.56,-1.38 0.39,-0.74 0.91,-1.56 1.31,-2.47 0.21,-0.45 0.4,-0.91 0.5,-1.56 0.11,-0.65 0.1,-1.77 -0.71,-2.69 -0.82,-0.92 -1.91,-1.08 -2.66,-1.06 -0.58,0.02 -1.12,0.19 -1.69,0.35 l 0,-0.04 c -12.51,1.26 -25.82,-5.06 -30.65,-16.81 -0.03,-0.08 -0.06,-0.17 -0.1,-0.25 -12.59,-23.52 -12.12,-51.56 -14.69,-78.47 0,-0.03 0.01,-0.06 0,-0.09 -1.17,-23.95 -1.55,-49.09 9.03,-70.31 4.97,-7.52 13.47,-12.93 22.44,-13.82 0.89,-0.09 1.66,-0.64 2.03,-1.45 0.36,-0.81 0.27,-1.76 -0.25,-2.48 -8.49,-12.06 -6.42,-28.01 -3.18,-42.47 0.01,-0.02 0.02,-0.04 0.03,-0.07 5.12,-25.82 12.78,-52.33 8.9,-79.71 l 0.03,0 c 0,-0.05 -0.02,-0.09 -0.03,-0.13 -3.13,-37.25 -23.67,-75.73 -59.97,-90.75 -17.05,-7.66 -35.84,-10.49 -54.34,-10.09 l -0.03,0 z m 0.16,5 0.03,0 c 17.89,-0.38 36,2.4 52.22,9.68 0.02,0.02 0.04,0.03 0.06,0.04 34.15,14.13 53.93,50.93 56.9,86.68 0.01,0.05 0.02,0.09 0.04,0.13 3.72,26.05 -3.7,52.03 -8.88,78.19 -3.06,13.69 -5.37,29.78 2.19,43.25 -9.22,1.97 -17.51,7.54 -22.63,15.37 -0.05,0.08 -0.11,0.16 -0.15,0.25 -11.39,22.73 -10.78,48.91 -9.6,73.03 l 0,0.13 c 2.54,26.44 1.88,55.23 15.16,80.22 0.04,0.08 0.05,0.17 0.09,0.25 l 0.04,0 c 5.67,13.43 20.11,20.5 34.06,19.72 -0.03,0.04 -0.04,0.07 -0.06,0.12 -0.43,0.82 -0.88,1.7 -1.07,2.88 l -0.03,0 -0.03,0.12 c -0.01,0.05 -0.03,0.07 -0.03,0.12 l 0.03,0 c -7.08,34.07 6.65,67.18 15.28,98.32 l 0.06,0.15 c 12.05,34.13 8.89,74.15 -11.34,104.38 -22.86,33.68 -63.72,50.43 -103.37,55.13 -48.57,4.5 -99.86,3.2 -143.47,-19.63 -0.02,-0.01 -0.05,-0.02 -0.07,-0.03 -30.47,-14.86 -54.37,-43.3 -61.22,-76.56 0.01,-0.03 0.01,-0.05 0,-0.07 -7.47,-32.91 6.02,-65.69 15.1,-98.06 l 0.03,-0.09 c 5.14,-20.91 11.65,-44.73 3.72,-66.69 10.86,0.65 21.97,-3.53 29.25,-11.81 0.05,-0.07 0.11,-0.15 0.16,-0.22 13.63,-19.11 16.47,-43.02 18.53,-65.06 0.01,-0.05 0.02,-0.09 0.03,-0.13 1.26,-28.01 5.81,-57.76 -3.69,-85.81 -0.03,-0.09 -0.03,-0.19 -0.06,-0.28 l -0.03,0 c -3.03,-13.13 -13.96,-23.19 -26.97,-25.82 6.49,-12.15 5.51,-26.66 3.15,-39.25 l -0.03,-0.12 c -7.19,-29.6 -14.05,-60.11 -8.47,-89.97 l 0,-0.09 c 4.8,-32.84 27.26,-62.89 57.5,-76.6 0.04,-0.02 0.07,-0.04 0.1,-0.06 29.58,-14.96 64.16,-10.4 97.47,-11.81 z"
                            inkscape:connector-curvature="0"
                            style="fill:#894300;fill-opacity:0.58824002;stroke:#421402;stroke-width:2;stroke-linejoin:round" />
                        <path id="path3228"
                            d="m 351.61,83.192 46.51,0.032 13.43,514.65 -73.15,-0.25 13.21,-514.43 z"
                            style="fill:url(#linearGradient3422);fill-rule:evenodd;stroke:#000000;stroke-width:1px"
                            inkscape:connector-curvature="0" />
                        <path id="path3244"
                            d="m 337.88,810.53 74.12,0 c -6,51 -23.44,53.77 -22.51,104.02 0.54,27.49 7.25,78.38 7.95,111.65 l -39.66,-0.7 c 0.71,-32.57 6.77,-84.11 6.67,-111.11 -0.55,-49.05 -21.57,-54.36 -26.57,-103.86 z"
                            style="fill:url(#linearGradient3424);fill-rule:evenodd;stroke:#000000;stroke-width:2"
                            inkscape:connector-curvature="0" />
                        <path id="path3356" d="m 338.44,815.25 0.63,5 71.55,0 0.74,-5 -72.92,0 z"
                            inkscape:connector-curvature="0" style="fill-rule:evenodd" />
                        <path id="path2436"
                            d="m 386.74,1028.9 c 0,4.2 -4.69,5.5 -10.46,5.5 -5.77,0 -10.46,-1.3 -10.46,-5.5 0,-4.2 4.69,-5.6 10.46,-5.6 5.77,0 10.46,1.4 10.46,5.6 z"
                            style="fill:url(#linearGradient3426);stroke:#000000;stroke-width:1.57640004;stroke-linecap:round;stroke-linejoin:round"
                            inkscape:connector-curvature="0" />
                        <path id="path3368"
                            d="m 352.95,827.17 0,6.09 c -1.23,0.65 -2.07,1.9 -2.07,3.38 0,2.13 1.72,3.87 3.85,3.87 2.13,0 3.87,-1.74 3.87,-3.87 0,-1.47 -0.85,-2.73 -2.06,-3.38 l 0,-6.09 -3.59,0 z"
                            inkscape:connector-curvature="0"
                            style="fill:#894300;fill-opacity:0.58824002;stroke:#421402;stroke-width:2;stroke-linejoin:round" />
                        <path id="path3427"
                            d="m 351.61,83.192 46.51,0.032 13.43,514.65 -73.15,-0.25 13.21,-514.43 z"
                            style="fill:url(#linearGradient3428);fill-rule:evenodd;stroke:#000000;stroke-width:2"
                            inkscape:connector-curvature="0" />
                        <path id="path3374"
                            d="M 354.33,827.78 346.36,700.47 360.57,83.22 362.82,56.686"
                            inkscape:connector-curvature="0"
                            style="fill:none;stroke:#ece9a5;stroke-width:4;stroke-linecap:round" />
                        <path id="path3379"
                            d="m 393.55,827.17 0,6.09 c -1.22,0.65 -2.06,1.9 -2.06,3.38 0,2.13 1.71,3.87 3.84,3.87 2.14,0 3.88,-1.74 3.88,-3.87 0,-1.47 -0.85,-2.73 -2.06,-3.38 l 0,-6.09 -3.6,0 z"
                            inkscape:connector-curvature="0"
                            style="fill:#894300;fill-opacity:0.58824002;stroke:#421402;stroke-width:2;stroke-linejoin:round" />
                        <path id="path3381"
                            d="m 380.02,827.17 0,6.09 c -1.23,0.65 -2.06,1.9 -2.06,3.38 0,2.13 1.71,3.87 3.84,3.87 2.13,0 3.87,-1.74 3.87,-3.87 0,-1.47 -0.84,-2.73 -2.06,-3.38 l 0,-6.09 -3.59,0 z"
                            inkscape:connector-curvature="0"
                            style="fill:#894300;fill-opacity:0.58824002;stroke:#421402;stroke-width:2;stroke-linejoin:round" />
                        <path id="path3383"
                            d="m 366.48,827.17 0,6.09 c -1.22,0.65 -2.06,1.9 -2.06,3.38 0,2.13 1.71,3.87 3.84,3.87 2.14,0 3.88,-1.74 3.88,-3.87 0,-1.47 -0.85,-2.73 -2.06,-3.38 l 0,-6.09 -3.6,0 z"
                            inkscape:connector-curvature="0"
                            style="fill:#894300;fill-opacity:0.58824002;stroke:#421402;stroke-width:2;stroke-linejoin:round" />
                        <path id="path5342" d="m 366.85,56.603 -0.75,9.414"
                            inkscape:connector-curvature="0"
                            style="fill:none;stroke:#ece9a5;stroke-width:4;stroke-linecap:round" />
                        <path id="path5344" d="m 370.9,56.791 -0.76,9.415"
                            inkscape:connector-curvature="0"
                            style="fill:none;stroke:#ece9a5;stroke-width:4;stroke-linecap:round" />
                        <path id="path5362" d="m 366.85,56.603 -0.75,9.414"
                            inkscape:connector-curvature="0"
                            style="opacity:0.75;fill:none;stroke:#000000;stroke-width:4;stroke-linecap:round" />
                        <path id="path5364" d="m 370.9,56.791 -0.76,9.415"
                            inkscape:connector-curvature="0"
                            style="opacity:0.75;fill:none;stroke:#000000;stroke-width:4;stroke-linecap:round" />
                        <path id="path3385"
                            d="M 368.08,827.13 365.72,700.61 369.85,83.03 366.19,-24.38"
                            inkscape:connector-curvature="0"
                            style="fill:none;stroke:#ece9a5;stroke-width:3.5;stroke-linecap:round" />
                        <path id="path5352" d="m 380.22,22.522 0.56,10.167"
                            inkscape:connector-curvature="0"
                            style="fill:none;stroke:#ece9a5;stroke-width:2.5;stroke-linecap:round" />
                        <path id="path5386" d="m 380.22,22.522 0.56,10.167"
                            inkscape:connector-curvature="0"
                            style="opacity:0.75;fill:none;stroke:#b5000f;stroke-width:2.5;stroke-linecap:round" />
                        <path id="path5354" d="m 377.58,22.71 0.57,10.168"
                            inkscape:connector-curvature="0"
                            style="fill:none;stroke:#ece9a5;stroke-width:2.5;stroke-linecap:round" />
                        <path id="path5388" d="m 377.58,22.71 0.57,10.168"
                            inkscape:connector-curvature="0"
                            style="opacity:0.75;fill:none;stroke:#b5000f;stroke-width:2.5;stroke-linecap:round" />
                        <path id="path3387"
                            d="m 381.8,827.13 5.46,-126.41 -8.28,-617.78 3.65,-140.52"
                            inkscape:connector-curvature="0"
                            style="fill:none;stroke:#ece9a5;stroke-width:3;stroke-linecap:round" />
                        <path id="path3389"
                            d="M 395.11,827.52 407.64,700.87 388.89,83.41 385.49,22.559"
                            inkscape:connector-curvature="0"
                            style="fill:none;stroke:#ece9a5;stroke-width:2.5;stroke-linecap:round" />
                        <path id="path3588" d="m 354.33,827.78 -3.7,-58.99"
                            inkscape:connector-curvature="0"
                            style="opacity:0.75;fill:none;stroke:#000000;stroke-width:4;stroke-linecap:round" />
                        <path id="path59" d="m 368.08,827.13 -0.87,-45.9"
                            inkscape:connector-curvature="0"
                            style="opacity:0.75;fill:none;stroke:#002bb9;stroke-width:3.5;stroke-linecap:round" />
                        <path id="path61" d="m 381.8,827.13 2.34,-54.19"
                            inkscape:connector-curvature="0"
                            style="opacity:0.75;fill:none;stroke:#039c12;stroke-width:3;stroke-linecap:round" />
                        <path id="path63" d="m 395.11,827.52 3.65,-36.93"
                            inkscape:connector-curvature="0"
                            style="opacity:0.75;fill:none;stroke:#b5000f;stroke-width:2.5;stroke-linecap:round" />
                        <path id="path3217"
                            d="m 410.48,1030.1 c 0,-6.1 -0.84,-7.1 -2.54,-7.1 -1.61,0 -2.36,1 -2.36,7.1 0,0 -0.19,2.3 2.36,2.3 2.54,0 2.54,-2.3 2.54,-2.3 z"
                            inkscape:connector-curvature="0"
                            style="fill:#d3d7dd;stroke:#000000;stroke-width:2;stroke-linecap:round;stroke-linejoin:round" />
                        <path id="path3224"
                            d="m 349.66,1030.1 c 0,-6.1 -0.84,-7.1 -2.54,-7.1 -1.61,0 -2.36,1 -2.36,7.1 0,0 -0.19,2.3 2.36,2.3 2.54,0 2.54,-2.3 2.54,-2.3 z"
                            inkscape:connector-curvature="0"
                            style="fill:#d3d7dd;stroke:#000000;stroke-width:2;stroke-linecap:round;stroke-linejoin:round" />
                        <g id="g2432"
                            style="fill-rule:evenodd;stroke:#000000;stroke-width:2;stroke-linecap:round;stroke-linejoin:round">
                            <path id="path3393"
                                d="m 204.64,938.13 c 61.78,-55.38 141.53,-52.46 160.7,56.71 l 49.47,3.91 c 14.34,0.53 32.17,22.75 2.9,25.65 -98.3,10 -181.79,-13.2 -213.07,-86.27 z"
                                style="fill:url(#linearGradient3430)"
                                inkscape:connector-curvature="0" />
                            <path id="path3403"
                                d="m 204.64,938.13 c 61.78,-55.38 141.53,-52.46 160.7,56.71 l 49.47,3.91 c 14.34,0.53 32.17,22.75 2.9,25.65 -98.3,10 -181.79,-13.2 -213.07,-86.27 z"
                                style="fill:url(#linearGradient3432)"
                                inkscape:connector-curvature="0" />
                        </g>
                        <g id="g3298">
                            <path id="rect3226"
                                d="m 291.72,659.19 c -4.54,20.65 -5.91,42.47 -5.91,42.47 l -3.59,0.81 3.03,2.78 c 0,0 -1.86,16.71 -5.22,35.13 l 10.75,1.62 c 3.71,-17.15 5.41,-32.34 5.41,-32.34 l 3.15,-0.82 -2.87,-2.9 c 0,0 1.45,-23.41 5.44,-45.19 l -10.19,-1.56 z"
                                inkscape:connector-curvature="0" style="fill:#ffffff" />
                            <path id="rect3228"
                                d="m 295.66,663.56 -11.28,74.32 7.03,1.06 c 3.25,-15.84 4.78,-29.28 4.78,-29.28 l 3.15,-0.82 -2.87,-2.9 c 0,0 1.31,-20.87 4.81,-41.53 l -5.62,-0.85 z"
                                inkscape:connector-curvature="0" style="fill:#008612" />
                            <path id="text3230"
                                d="m 290.62,669.84 c 0,0.09 -0.01,0.2 -0.03,0.28 -0.01,0.09 -0.01,0.17 -0.03,0.26 0.08,-0.01 0.14,-0.01 0.22,0 l -0.06,0.5 -0.13,0.87 -0.97,-0.16 c -0.09,-0.01 -0.18,-0.04 -0.28,-0.06 -0.02,0.16 -0.03,0.31 -0.06,0.47 0.09,0.01 0.19,0.02 0.28,0.03 l 0.97,0.13 -0.15,0.87 -0.07,0.53 -0.19,-0.03 -0.06,0.44 0.19,0.03 0.37,0.03 1.69,0.28 0.28,-1.84 c 0.32,0.05 0.63,0.11 0.94,0.19 0,-0.09 0.02,-0.17 0.03,-0.25 0.02,-0.09 0.04,-0.17 0.06,-0.25 -0.32,-0.03 -0.64,-0.05 -0.96,-0.1 l 0.12,-0.87 0.06,-0.5 0.07,-0.44 -0.38,-0.06 -0.22,-0.03 -1.06,-0.16 -0.19,-0.03 c -0.14,-0.02 -0.3,-0.08 -0.44,-0.13 z m 0.54,0.6 1.09,0.15 0.22,0.03 -0.06,0.5 -0.13,0.88 -1.31,-0.22 0.12,-0.84 0.07,-0.5 z m -0.25,1.78 1.31,0.22 -0.22,1.37 -1.31,-0.19 0.06,-0.53 0.16,-0.87 z m -2.07,2.62 c -0.02,0.15 -0.07,0.3 -0.09,0.44 0.07,0.01 0.15,0.02 0.22,0.03 l 2.69,0.41 0.72,0.09 -0.07,0.57 -0.43,2.87 -3.63,-0.56 c -0.02,0.14 -0.01,0.29 -0.03,0.43 l 3.9,0.6 0.5,-3.28 0.1,-0.56 c 0.01,-0.1 0.03,-0.26 0.06,-0.44 -0.07,-0.01 -0.2,-0.01 -0.34,-0.03 l -0.72,-0.13 -2.69,-0.4 c -0.06,-0.01 -0.12,-0.03 -0.19,-0.04 z m 0.32,0.72 c -0.01,0.22 -0.03,0.42 -0.07,0.63 l -0.28,1.84 c -0.03,0.21 -0.07,0.42 -0.12,0.63 0.07,0 0.15,-0.01 0.22,0 0.06,0.01 0.12,0.04 0.18,0.06 0.01,-0.21 0.03,-0.45 0.07,-0.66 l 0.12,-0.84 0.28,0.03 0.63,0.09 -0.07,0.41 -0.15,-0.22 -0.66,0.41 0.22,0.34 0.56,-0.34 -0.03,0.09 c -0.02,0.17 -0.05,0.34 -0.09,0.5 0.06,0 0.12,0.02 0.19,0.03 0.06,0.01 0.15,0.02 0.22,0.03 0,-0.17 0,-0.33 0.03,-0.5 l 0.09,-0.68 0.41,0.06 0.31,0.03 -0.13,0.78 c -0.03,0.19 -0.07,0.41 -0.12,0.6 0.07,0 0.12,-0.01 0.19,0 0.06,0 0.15,0.04 0.22,0.06 0,-0.2 0,-0.4 0.03,-0.6 l 0.28,-1.68 c 0.03,-0.2 0.07,-0.41 0.12,-0.6 -0.07,0 -0.15,0.01 -0.22,0 -0.06,-0.01 -0.12,-0.04 -0.18,-0.06 -0.01,0.19 -0.04,0.4 -0.07,0.59 l -0.06,0.5 -0.31,-0.06 -0.41,-0.03 0.06,-0.38 c 0.03,-0.16 0.08,-0.33 0.13,-0.5 -0.07,0 -0.15,-0.02 -0.22,-0.03 -0.06,-0.01 -0.12,-0.01 -0.19,-0.03 0,0.17 0,0.34 -0.03,0.5 l -0.06,0.38 -0.63,-0.1 -0.28,-0.03 0.1,-0.59 c 0.03,-0.21 0.07,-0.42 0.12,-0.63 -0.06,0 -0.12,0.01 -0.18,0 -0.07,-0.01 -0.16,-0.01 -0.22,-0.03 z m -1.5,7.75 c -0.02,0.15 -0.05,0.29 -0.07,0.44 l 0.47,0.06 1.78,0.28 -0.03,0.22 -0.19,1.28 c -0.02,0.16 -0.07,0.3 -0.12,0.44 0.08,0.01 0.17,0.02 0.25,0.03 0.08,0.01 0.14,0.05 0.22,0.06 0,-0.14 0.01,-0.31 0.03,-0.46 l 0.22,-1.32 0.03,-0.18 0.56,0.09 c 0.31,0.05 0.63,0.08 0.94,0.16 0,-0.09 0.02,-0.17 0.03,-0.25 0.01,-0.09 0.01,-0.17 0.03,-0.25 -0.31,-0.02 -0.62,-0.05 -0.93,-0.1 l -2.76,-0.43 -0.46,-0.07 z m -0.47,3.69 c -0.02,0.14 -0.02,0.3 -0.03,0.44 l 0.12,0.06 1.72,0.69 0.19,-0.25 c -0.79,-0.34 -1.35,-0.59 -1.66,-0.75 -0.13,-0.07 -0.23,-0.12 -0.34,-0.19 z m 2.75,0.03 -0.85,0.47 0.19,0.38 0.88,-0.5 -0.22,-0.35 z m 1.03,0.63 c -0.2,0.25 -0.45,0.41 -0.75,0.53 l 0.16,0.4 c 0.36,-0.13 0.65,-0.37 0.9,-0.68 l -0.31,-0.25 z m -2.69,0.5 c -0.01,0.16 -0.04,0.33 -0.06,0.5 l -1.13,-0.41 -0.18,1.19 c -0.01,0.05 0,0.1 0,0.15 -0.08,0.7 -0.16,1.26 -0.22,1.91 l 0.22,0.03 0.12,-0.75 0.85,0.22 c -0.04,0.24 -0.1,0.48 -0.16,0.72 0.06,0 0.13,0.02 0.19,0.03 l 0.18,0.03 c 0.02,-0.24 0.06,-0.48 0.1,-0.72 l 1.12,0.28 0.31,-2 0.07,-0.12 c 0.05,0.06 0.09,0.1 0.15,0.16 l 0.1,0.06 -0.28,1.87 c -0.03,0.18 -0.08,0.36 -0.13,0.53 0.06,0.01 0.13,-0.01 0.19,0 0.06,0.01 0.12,0.02 0.19,0.04 0,-0.18 0.03,-0.36 0.06,-0.54 l 0.25,-1.68 c 0.17,0.1 0.34,0.2 0.53,0.28 0.03,-0.13 0.07,-0.26 0.13,-0.38 -0.31,-0.09 -0.57,-0.22 -0.82,-0.44 -0.24,-0.2 -0.44,-0.45 -0.59,-0.74 -0.05,0.1 -0.11,0.19 -0.19,0.28 0.07,0.12 0.13,0.23 0.22,0.34 l 0.09,0.09 -0.06,0 -1,-0.34 c 0.04,-0.18 0.08,-0.35 0.13,-0.53 -0.07,-0.01 -0.13,-0.02 -0.19,-0.03 -0.06,-0.01 -0.13,-0.02 -0.19,-0.03 z m -0.94,0.62 0.82,0.28 -0.04,0.35 -0.09,-0.19 -0.75,0.37 0.19,0.38 0.62,-0.31 -0.15,0.93 -0.85,-0.21 0.25,-1.6 z m 1.13,0.38 0.84,0.31 -0.06,0.34 -0.19,-0.28 -0.65,0.41 0.18,0.34 0.63,-0.34 -0.13,0.94 -0.84,-0.22 0.22,-1.5 z m -1.97,4.4 0,0.1 c 0.02,-0.03 0.01,-0.07 0.03,-0.1 l -0.03,0 z m 1.16,0.22 c -0.08,0.02 -0.16,0.05 -0.22,0.1 -0.13,0.09 -0.23,0.28 -0.32,0.53 l -0.06,0.18 c -0.06,0.17 -0.13,0.28 -0.22,0.35 -0.08,0.06 -0.18,0.11 -0.31,0.09 -0.06,-0.01 -0.11,-0.07 -0.15,-0.09 -0.02,0.14 -0.05,0.24 -0.07,0.37 0.06,0.03 0.12,0.05 0.19,0.07 0.21,0.03 0.39,0 0.53,-0.1 0.14,-0.1 0.26,-0.28 0.35,-0.53 l 0.06,-0.19 c 0.06,-0.18 0.12,-0.31 0.18,-0.37 0.07,-0.06 0.17,-0.08 0.29,-0.07 0.13,0.03 0.22,0.08 0.28,0.19 0.05,0.12 0.06,0.28 0.03,0.47 -0.02,0.11 -0.05,0.2 -0.1,0.31 -0.04,0.11 -0.1,0.23 -0.18,0.35 l 0.34,0.06 c 0.06,-0.12 0.12,-0.26 0.16,-0.38 0.04,-0.11 0.07,-0.22 0.09,-0.34 0.04,-0.28 0.01,-0.51 -0.09,-0.69 -0.11,-0.17 -0.28,-0.27 -0.5,-0.31 -0.1,-0.01 -0.2,-0.02 -0.28,0 z m -1.38,2.13 c -0.01,0.12 -0.02,0.22 -0.03,0.34 l 0.63,0.09 -0.19,1.25 -0.57,-0.09 c 0,0.1 -0.02,0.24 -0.03,0.34 l 1.88,0.28 0.03,-0.34 -1.03,-0.16 0.19,-1.24 1.03,0.15 0.06,-0.34 -1.97,-0.28 z m -0.22,2.56 c -0.09,1.07 -0.12,1.27 -0.15,1.78 l 1.78,-0.41 0.06,-0.37 -1.69,-1 z m 0.13,0.47 1.22,0.65 -1.35,0.29 0.13,-0.94 z m -0.31,2 c -0.01,0.04 -0.03,0.28 -0.04,0.31 l 1.19,0.19 -2.28,0.81 -0.06,0.47 2.53,0.37 0.03,-0.31 -2.13,-0.34 2.32,-0.78 0.06,-0.47 -1.62,-0.25 z m -0.6,2.5 c -0.17,0.03 -0.3,0.09 -0.44,0.18 -0.24,0.18 -0.4,0.46 -0.46,0.82 l 0.24,0.22 c 0.01,-0.03 0,-0.06 0,-0.1 0.05,-0.31 0.18,-0.52 0.38,-0.65 0.2,-0.13 0.47,-0.15 0.81,-0.1 0.35,0.05 0.57,0.17 0.72,0.35 0.15,0.18 0.2,0.44 0.16,0.75 -0.03,0.15 -0.08,0.3 -0.16,0.43 -0.07,0.14 -0.15,0.24 -0.28,0.35 l 0.34,0.06 c 0.1,-0.11 0.19,-0.23 0.25,-0.37 0.07,-0.15 0.1,-0.31 0.13,-0.47 0.06,-0.4 0.01,-0.71 -0.19,-0.97 -0.2,-0.26 -0.52,-0.44 -0.94,-0.5 -0.2,-0.03 -0.39,-0.03 -0.56,0 z m 0.16,1.28 -0.1,0.56 -0.09,0 c 0,0 -0.03,0.29 -0.03,0.31 l 0.34,0.07 0.16,-0.91 -0.28,-0.03 z m -0.32,1.53 c 0,0.08 -0.01,0.24 -0.03,0.34 l 0.22,0.03 -0.19,1.26 -0.18,-0.04 c -0.03,0.2 -0.01,0.13 -0.03,0.35 l 1.5,0.22 0.03,-0.35 -1.03,-0.15 0.18,-1.25 1.03,0.15 0.07,-0.34 -1.57,-0.22 z m -0.31,2.72 c -0.01,0.08 -0.02,0.23 -0.03,0.31 l 1.06,0.6 -1.18,0.24 c -0.02,0.1 -0.02,0.25 -0.04,0.35 l 1.5,-0.35 0.07,-0.37 -1.38,-0.78 z m -0.28,2.28 c -0.01,0.11 -0.05,0.23 -0.06,0.34 l 1.41,0.22 0.06,-0.34 -1.41,-0.22 z m -0.41,3.09 c -0.01,0.15 -0.04,0.23 -0.06,0.38 l 0.06,0 c 0.34,0.05 0.6,0.16 0.76,0.34 0.15,0.18 0.2,0.43 0.15,0.72 -0.02,0.15 -0.05,0.29 -0.12,0.41 -0.08,0.12 -0.19,0.21 -0.32,0.31 l 0.38,0.06 c 0.1,-0.1 0.16,-0.21 0.22,-0.34 0.06,-0.13 0.1,-0.29 0.12,-0.44 0.06,-0.38 -0.01,-0.68 -0.22,-0.94 -0.2,-0.25 -0.5,-0.43 -0.9,-0.5 -0.03,0 -0.04,0.01 -0.07,0 z m -0.34,2.6 c -0.08,0.6 -0.19,1.27 -0.28,1.9 l 1.28,0.22 0.06,-0.34 -1.06,-0.16 0.19,-1.25 1.06,0.16 0.03,-0.35 -1.28,-0.18 z m -0.37,2.59 c -0.02,0.12 -0.05,0.23 -0.07,0.35 l 1.28,0.21 0.07,-0.34 -1.28,-0.22 z m -0.16,1.03 c -0.02,0.12 -0.04,0.22 -0.06,0.35 l 0.87,0.12 -0.94,0.35 c -0.01,0.1 -0.01,0.2 -0.03,0.31 l 1.35,-0.47 0.09,-0.47 -1.28,-0.19 z m -0.25,1.6 c -0.02,0.11 -0.02,0.23 -0.03,0.34 l 1.25,0.19 0.06,-0.35 -1.28,-0.18 z m -0.16,1.18 c -0.01,0.12 -0.04,0.23 -0.06,0.35 l 0.88,0.47 -0.97,0.18 c -0.02,0.12 -0.05,0.23 -0.07,0.35 l 1.35,-0.28 0.06,-0.41 -1.19,-0.66 z"
                                inkscape:connector-curvature="0" />
                            <path id="text3236"
                                d="m 297.5,666.06 -0.62,4.19 0.74,0.13 0.5,-3.32 2.66,0.41 c 0.05,-0.3 0.08,-0.6 0.13,-0.91 l -3.41,-0.5 z m -0.69,4.53 -0.15,0.97 1.65,0.88 -0.47,3.03 -1.81,0.34 -0.15,0.97 3.65,-0.81 c 0.04,-0.29 0.09,-0.58 0.13,-0.88 l -1,0.22 0.37,-2.5 0.88,0.5 0.12,-0.9 -3.22,-1.82 z m -1.09,7.16 -0.13,0.91 2.85,0.43 -0.16,1 c -0.05,0.37 -0.16,0.63 -0.34,0.82 -0.18,0.18 -0.52,0.37 -1,0.53 l -1.88,0.59 -0.12,0.97 1.97,-0.62 c 0.4,-0.13 0.75,-0.29 1,-0.44 0.24,-0.15 0.4,-0.32 0.5,-0.5 0.04,0.31 0.14,0.56 0.31,0.78 0.16,-1.3 0.32,-2.59 0.5,-3.94 l -3.5,-0.53 z m -0.97,6.44 -0.16,0.9 3.25,0.5 -3.72,2.75 -0.18,1.22 4.15,-3.06 0.13,0.19 c 0.07,-0.65 0.14,-1.27 0.22,-1.94 l -3.69,-0.56 z"
                                inkscape:connector-curvature="0" style="fill:#ffffff" />
                        </g>
                        <path id="path3200"
                            d="m 312.85,627.57 7.49,5.22 c 0,0 -2.84,2.25 -0.97,6.91 1.5,3.76 7.19,2.91 7.47,-3.32 0.31,-7.37 -5.97,-13.64 -14.11,-13.41 -22.03,0.6 -26.93,78.67 -26.93,78.67 l -3.59,0.83 3.04,2.77 c 0,0 -7.62,69.04 -20.14,81.17 l -9.04,-6.73 c 0,0 4.28,-1.34 3.81,-8.56 -0.45,-6.88 -10.84,-8.73 -12.88,0.48 -1.79,8.04 4.75,18.81 18.69,18.38 21.58,-0.66 30.49,-80.31 30.49,-80.31 l 3.18,-0.83 -2.91,-2.91 c 0,0 3.95,-62.73 16.4,-78.36 z"
                            inkscape:connector-curvature="0"
                            style="fill-opacity:0.78430996;fill-rule:evenodd;stroke:#000000;stroke-width:2;stroke-linejoin:round" />
                        <rect id="rect5178" height="12.427" width="84.873001" y="-110.98" x="334.38"
                            style="fill:url(#linearGradient3434);stroke:#000000;stroke-width:2;stroke-linecap:round;stroke-linejoin:round" />
                        <path id="path5180"
                            d="m 334.38,-98.324 84.87,-0.032 c 0,0 -1.13,7.559 -5.56,8.923 l -73.09,-0.234 c -4.93,-1.132 -6.22,-8.657 -6.22,-8.657 z"
                            style="fill:url(#linearGradient3436);fill-rule:evenodd;stroke:#000000;stroke-width:2;stroke-linejoin:round"
                            inkscape:connector-curvature="0" />
                        <path id="path5220"
                            d="m 340.72,-89.899 c 3.45,-1.215 8.7,-22.331 10.14,-33.821 l 53.24,-0.08 c 0.08,11.71 5.21,32.712 9.39,34.434 l -72.77,-0.533 z"
                            style="fill:url(#linearGradient3438);fill-rule:evenodd;stroke:#000000;stroke-width:2;stroke-linejoin:round"
                            inkscape:connector-curvature="0" />
                        <path id="path5224"
                            d="m 172.51,-77.978 c 2.57,1.261 5.38,1.631 7.72,0 2.3,1.621 5.12,1.924 8.83,0 2.14,29.157 -0.12,56.507 12.4,82.987 -8.53,-4.1504 -14.21,-7.0504 -21.45,0.0941 -8.59,-6.3552 -13.41,-4.0131 -21.3,0.1883 10.96,-26.292 11.83,-54.904 13.8,-83.269 z"
                            transform="translate(194.84,-73.433)"
                            style="fill:url(#linearGradient3440);fill-rule:evenodd;stroke:#000000;stroke-width:2;stroke-linejoin:round"
                            inkscape:connector-curvature="0" />
                        <path id="path5338" d="m 369.58,-24.74 0.56,10.168"
                            inkscape:connector-curvature="0"
                            style="fill:none;stroke:#ece9a5;stroke-width:3.5;stroke-linecap:round" />
                        <path id="path5340" d="m 373.06,-24.552 0.57,10.168"
                            inkscape:connector-curvature="0"
                            style="fill:none;stroke:#ece9a5;stroke-width:3.5;stroke-linecap:round" />
                        <path id="path5346" d="m 379.46,-57.314 -0.18,10.167"
                            inkscape:connector-curvature="0"
                            style="fill:none;stroke:#ece9a5;stroke-width:3;stroke-linecap:round" />
                        <path id="path5348" d="m 376.26,-57.503 -0.18,10.168"
                            inkscape:connector-curvature="0"
                            style="fill:none;stroke:#ece9a5;stroke-width:3;stroke-linecap:round" />
                        <path id="path5350" d="m 382.85,22.522 0.57,10.167"
                            inkscape:connector-curvature="0"
                            style="fill:none;stroke:#ece9a5;stroke-width:2.5;stroke-linecap:round" />
                        <path id="path5382" d="m 374.95,22.71 0.56,10.168"
                            inkscape:connector-curvature="0"
                            style="fill:none;stroke:#ece9a5;stroke-width:2.5;stroke-linecap:round" />
                        <path id="path5390" d="m 374.95,22.71 0.56,10.168"
                            inkscape:connector-curvature="0"
                            style="opacity:0.75;fill:none;stroke:#b5000f;stroke-width:2.5;stroke-linecap:round" />
                        <path id="path5384" d="m 372.31,22.757 0.56,10.168"
                            inkscape:connector-curvature="0"
                            style="fill:none;stroke:#ece9a5;stroke-width:2.5;stroke-linecap:round" />
                        <path id="path5392" d="m 372.31,22.757 0.56,10.168"
                            inkscape:connector-curvature="0"
                            style="opacity:0.75;fill:none;stroke:#b5000f;stroke-width:2.5;stroke-linecap:round" />
                        <path id="path5366" d="m 361.28,74.866 1.54,-18.18"
                            inkscape:connector-curvature="0"
                            style="opacity:0.75;fill:none;stroke:#000000;stroke-width:4;stroke-linecap:round" />
                        <path id="path5368" d="m 376.64,-24.552 0.57,10.168"
                            inkscape:connector-curvature="0"
                            style="fill:none;stroke:#ece9a5;stroke-width:3.5;stroke-linecap:round" />
                        <path id="path5370" d="m 373.06,-24.552 0.57,10.168"
                            inkscape:connector-curvature="0"
                            style="opacity:0.75;fill:none;stroke:#002bb9;stroke-width:3.5;stroke-linecap:round" />
                        <path id="path5372" d="m 376.64,-24.552 0.57,10.168"
                            inkscape:connector-curvature="0"
                            style="opacity:0.75;fill:none;stroke:#002bb9;stroke-width:3.5;stroke-linecap:round" />
                        <path id="path5374" d="m 373.06,-57.503 -0.19,10.168"
                            inkscape:connector-curvature="0"
                            style="fill:none;stroke:#ece9a5;stroke-width:3;stroke-linecap:round" />
                        <path id="path5376" d="m 379.46,-57.314 -0.18,10.167"
                            inkscape:connector-curvature="0"
                            style="opacity:0.75;fill:none;stroke:#039c12;stroke-width:3;stroke-linecap:round" />
                        <path id="path5378" d="m 376.26,-57.503 -0.18,10.168"
                            inkscape:connector-curvature="0"
                            style="opacity:0.75;fill:none;stroke:#039c12;stroke-width:3;stroke-linecap:round" />
                        <path id="path5380" d="m 373.06,-57.503 -0.19,10.168"
                            inkscape:connector-curvature="0"
                            style="opacity:0.75;fill:none;stroke:#039c12;stroke-width:3;stroke-linecap:round" />
                    </g>
                </g>
            </g>
        </g>
    </g>
    <metadata id="metadata134">
        <rdf:RDF>
            <cc:Work>
                <dc:format>image/svg+xml</dc:format>
                <dc:type rdf:resource="http://purl.org/dc/dcmitype/StillImage" />
                <cc:license rdf:resource="http://creativecommons.org/publicdomain/zero/1.0/" />
                <dc:publisher>
                    <cc:Agent rdf:about="http://openclipart.org/">
                        <dc:title>Openclipart</dc:title>
                    </cc:Agent>
                </dc:publisher>
                <dc:title>Vilolin</dc:title>
                <dc:date>2010-01-07T01:01:46</dc:date>
                <dc:description>a rather realistic violin with some details.</dc:description>
                <dc:source>http://openclipart.org/detail/28824/vilolin-by-dstulle</dc:source>
                <dc:creator>
                    <cc:Agent>
                        <dc:title>dStulle</dc:title>
                    </cc:Agent>
                </dc:creator>
                <dc:subject>
                    <rdf:Bag>
                        <rdf:li>clip art</rdf:li>
                        <rdf:li>clipart</rdf:li>
                        <rdf:li>fiddle</rdf:li>
                        <rdf:li>image</rdf:li>
                        <rdf:li>instrument</rdf:li>
                        <rdf:li>media</rdf:li>
                        <rdf:li>music</rdf:li>
                        <rdf:li>png</rdf:li>
                        <rdf:li>public domain</rdf:li>
                        <rdf:li>string instrument</rdf:li>
                        <rdf:li>svg</rdf:li>
                        <rdf:li>viol</rdf:li>
                        <rdf:li>violin</rdf:li>
                    </rdf:Bag>
                </dc:subject>
            </cc:Work>
            <cc:License rdf:about="http://creativecommons.org/publicdomain/zero/1.0/">
                <cc:permits rdf:resource="http://creativecommons.org/ns#Reproduction" />
                <cc:permits rdf:resource="http://creativecommons.org/ns#Distribution" />
                <cc:permits rdf:resource="http://creativecommons.org/ns#DerivativeWorks" />
            </cc:License>
        </rdf:RDF>
    </metadata>
</svg>
