<?xml version="1.0" encoding="UTF-8" standalone="no"?><!-- Created with Inkscape (http://www.inkscape.org/) -->
<svg xmlns:inkscape="http://www.inkscape.org/namespaces/inkscape"
    xmlns:rdf="http://www.w3.org/1999/02/22-rdf-syntax-ns#" xmlns="http://www.w3.org/2000/svg"
    xmlns:sodipodi="http://sodipodi.sourceforge.net/DTD/sodipodi-0.dtd"
    xmlns:cc="http://creativecommons.org/ns#" xmlns:xlink="http://www.w3.org/1999/xlink"
    xmlns:dc="http://purl.org/dc/elements/1.1/" id="svg2" sodipodi:docname="ukulele.svg"
    viewBox="0 0 316.47 1002.5" version="1.1" inkscape:version="0.47 r22583">
    <title id="title3952">Ukulele
    </title>
    <defs id="defs6">
        <linearGradient id="linearGradient3714">
            <stop id="stop3716" style="stop-color:#ffffff" offset="0" />
            <stop id="stop3718" style="stop-color:#67674e" offset="1" />
        </linearGradient>
        <linearGradient id="linearGradient3720" y2="247.41" xlink:href="#linearGradient3714"
            gradientUnits="userSpaceOnUse" x2="155.58"
            gradientTransform="matrix(.99999 -.0034906 .0034906 .99999 3.4616 -1.0954)" y1="246.41"
            x1="155.57" inkscape:collect="always" />
        <linearGradient id="linearGradient3722" y2="283.85" xlink:href="#linearGradient3714"
            gradientUnits="userSpaceOnUse" x2="155.39"
            gradientTransform="matrix(.99999 -.0034906 .0034906 .99999 3.4616 -1.0954)" y1="282.84"
            x1="155.39" inkscape:collect="always" />
        <linearGradient id="linearGradient3724" y2="318.15" xlink:href="#linearGradient3714"
            gradientUnits="userSpaceOnUse" x2="155.39"
            gradientTransform="matrix(.99999 -.0034906 .0034906 .99999 3.4616 -1.0954)" y1="317.15"
            x1="155.39" inkscape:collect="always" />
        <linearGradient id="linearGradient3726" y2="350.28" xlink:href="#linearGradient3714"
            gradientUnits="userSpaceOnUse" x2="155.39"
            gradientTransform="matrix(.99999 -.0034906 .0034906 .99999 3.4616 -1.0954)" y1="349.27"
            x1="155.39" inkscape:collect="always" />
        <linearGradient id="linearGradient3728" y2="380.21" xlink:href="#linearGradient3714"
            gradientUnits="userSpaceOnUse" x2="155.39"
            gradientTransform="matrix(.99999 -.0034906 .0034906 .99999 3.4616 -1.0954)" y1="379.2"
            x1="155.39" inkscape:collect="always" />
        <linearGradient id="linearGradient3730" y2="409.95" xlink:href="#linearGradient3714"
            gradientUnits="userSpaceOnUse" x2="155.39"
            gradientTransform="matrix(.99999 -.0034906 .0034906 .99999 3.4616 -1.0954)" y1="408.95"
            x1="155.39" inkscape:collect="always" />
        <linearGradient id="linearGradient3732" y2="437.14" xlink:href="#linearGradient3714"
            gradientUnits="userSpaceOnUse" x2="155.39"
            gradientTransform="matrix(.99999 -.0034906 .0034906 .99999 3.4616 -1.0954)" y1="436.14"
            x1="155.39" inkscape:collect="always" />
        <linearGradient id="linearGradient3734" y2="463.05" xlink:href="#linearGradient3714"
            gradientUnits="userSpaceOnUse" x2="155.39"
            gradientTransform="matrix(.99999 -.0034906 .0034906 .99999 3.4616 -1.0954)" y1="462.05"
            x1="155.39" inkscape:collect="always" />
        <linearGradient id="linearGradient3736" y2="486.78" xlink:href="#linearGradient3714"
            gradientUnits="userSpaceOnUse" x2="155.39"
            gradientTransform="matrix(.99999 -.0034906 .0034906 .99999 3.4616 -1.0954)" y1="485.78"
            x1="155.39" inkscape:collect="always" />
        <linearGradient id="linearGradient3738" y2="509.77" xlink:href="#linearGradient3714"
            gradientUnits="userSpaceOnUse" x2="155.39"
            gradientTransform="matrix(.99999 -.0034906 .0034906 .99999 3.4616 -1.0954)" y1="508.77"
            x1="155.39" inkscape:collect="always" />
        <linearGradient id="linearGradient3740" y2="531.85" xlink:href="#linearGradient3714"
            gradientUnits="userSpaceOnUse" x2="155.39"
            gradientTransform="matrix(.99999 -.0034906 .0034906 .99999 3.4616 -1.0954)" y1="530.85"
            x1="155.39" inkscape:collect="always" />
        <linearGradient id="linearGradient3742" y2="552.11" xlink:href="#linearGradient3714"
            gradientUnits="userSpaceOnUse" x2="155.39"
            gradientTransform="matrix(.99999 -.0034906 .0034906 .99999 3.4616 -1.0954)" y1="551.11"
            x1="155.39" inkscape:collect="always" />
        <linearGradient id="linearGradient3772" y2="422.95" xlink:href="#linearGradient3714"
            gradientUnits="userSpaceOnUse" x2="152.75" y1="422.95" x1="161.69"
            inkscape:collect="always" />
        <linearGradient id="linearGradient3791" y2="422.95" gradientUnits="userSpaceOnUse"
            y1="422.95" x2="152.75" x1="161.69" inkscape:collect="always">
            <stop id="stop3716-2" style="stop-color:#ffffff" offset="0" />
            <stop id="stop3718-4" style="stop-color:#67674e" offset="1" />
        </linearGradient>
        <linearGradient id="linearGradient3930" y2="554.03" gradientUnits="userSpaceOnUse"
            x2="192.53" gradientTransform="matrix(.99999 -.0034906 .0034906 .99999 3.4616 -1.0954)"
            y1="554.03" x1="187.89" inkscape:collect="always">
            <stop id="stop3948" style="stop-color:#67674e" offset="0" />
            <stop id="stop3950" style="stop-color:#ffffff" offset="1" />
        </linearGradient>
        <linearGradient id="linearGradient3672" y2="901.53" gradientUnits="userSpaceOnUse"
            x2="151.55" gradientTransform="translate(8.4241 -2)" y1="908.92" x1="151.55"
            inkscape:collect="always">
            <stop id="stop3676" style="stop-color:#2b0000" offset="0" />
            <stop id="stop3682" style="stop-color:#532828" offset=".27035" />
            <stop id="stop3678" style="stop-color:#ffffff" offset=".62058" />
            <stop id="stop3680" style="stop-color:#2b0000" offset="1" />
        </linearGradient>
        <linearGradient id="linearGradient4018" y2="683.71" gradientUnits="userSpaceOnUse"
            x2="171.74" y1="742.26" x1="108.44" inkscape:collect="always">
            <stop id="stop4014" style="stop-color:#160501" offset="0" />
            <stop id="stop4016" style="stop-color:#160501;stop-opacity:0" offset="1" />
        </linearGradient>
        <linearGradient id="linearGradient4026" y2="610.92" gradientUnits="userSpaceOnUse"
            x2="14.922" y1="924.86" x1="118.25" inkscape:collect="always">
            <stop id="stop4022" style="stop-color:#310606" offset="0" />
            <stop id="stop4036" style="stop-color:#310606" offset=".04875" />
            <stop id="stop4038" style="stop-color:#ffffff" offset=".09375" />
            <stop id="stop4034" style="stop-color:#310606" offset=".15833" />
            <stop id="stop4030" style="stop-color:#310606" offset=".72461" />
            <stop id="stop4028" style="stop-color:#ffffff" offset=".76506" />
            <stop id="stop4032" style="stop-color:#310606" offset=".86667" />
            <stop id="stop4024" style="stop-color:#310606" offset="1" />
        </linearGradient>
        <linearGradient id="linearGradient4088" y2="132.42" xlink:href="#linearGradient3714"
            gradientUnits="userSpaceOnUse" x2="126.18" y1="132.42" x1="146.98"
            inkscape:collect="always" />
        <linearGradient id="linearGradient4163" y2="202.92" gradientUnits="userSpaceOnUse"
            x2="158.91" gradientTransform="matrix(.96520 -.00016817 -.000062429 1 10.143 -1.4414)"
            y1="207.73" x1="158.92" inkscape:collect="always">
            <stop id="stop3667" style="stop-color:#5d2407" offset="0" />
            <stop id="stop3681" style="stop-color:#ffffff" offset=".62074" />
            <stop id="stop3669" style="stop-color:#5d2407" offset="1" />
        </linearGradient>
        <linearGradient id="linearGradient4166" y2="75.346" gradientUnits="userSpaceOnUse"
            x2="158.22" gradientTransform="matrix(.99999 -.0034906 .0034906 .99999 3.1552 .90463)"
            y1="201.51" x1="158.22" inkscape:collect="always">
            <stop id="stop3659" style="stop-color:#f8ffff" offset="0" />
            <stop id="stop4301" style="stop-color:#804d1f" offset=".28" />
            <stop id="stop3661" style="stop-color:#804d1f;stop-opacity:0" offset="1" />
        </linearGradient>
        <linearGradient id="linearGradient4472" y2="114.39" gradientUnits="userSpaceOnUse"
            x2="39.344" gradientTransform="translate(74.345 13.378)" y1="122.71" x1="39.344"
            inkscape:collect="always">
            <stop id="stop4192-7" style="stop-color:#221c00" offset="0" />
            <stop id="stop4202-2" style="stop-color:#67674e" offset=".16549" />
            <stop id="stop4200-55" style="stop-color:#b3b3a6" offset=".33098" />
            <stop id="stop4196-21" style="stop-color:#ffffff" offset=".62058" />
            <stop id="stop4198-4" style="stop-color:#67674e" offset="1" />
        </linearGradient>
        <linearGradient id="linearGradient4474" y2="119.42" gradientUnits="userSpaceOnUse"
            x2="55.029" gradientTransform="translate(27.634 -0.439)" y1="145.07" x1="55.029"
            inkscape:collect="always">
            <stop id="stop4330-5" style="stop-color:#221c00" offset="0" />
            <stop id="stop4342-8" style="stop-color:#67674e" offset=".27384" />
            <stop id="stop4332-4" style="stop-color:#221c00" offset=".52558" />
            <stop id="stop4334-0" style="stop-color:#b3b3a6" offset=".64405" />
            <stop id="stop4344-5" style="stop-color:#ffffff" offset=".76270" />
            <stop id="stop4336-4" style="stop-color:#b3b3a6" offset="1" />
        </linearGradient>
        <linearGradient id="linearGradient4476" y2="114.39" gradientUnits="userSpaceOnUse"
            x2="39.344" gradientTransform="translate(69.443 -58.93)" y1="122.71" x1="39.344"
            inkscape:collect="always">
            <stop id="stop4192-0" style="stop-color:#221c00" offset="0" />
            <stop id="stop4202-5" style="stop-color:#67674e" offset=".16549" />
            <stop id="stop4200-5" style="stop-color:#b3b3a6" offset=".33098" />
            <stop id="stop4196-2" style="stop-color:#ffffff" offset=".62058" />
            <stop id="stop4198-7" style="stop-color:#67674e" offset="1" />
        </linearGradient>
        <linearGradient id="linearGradient4478" y2="119.42" gradientUnits="userSpaceOnUse"
            x2="55.029" gradientTransform="translate(22.792 -72.621)" y1="145.07" x1="55.029"
            inkscape:collect="always">
            <stop id="stop4330" style="stop-color:#221c00" offset="0" />
            <stop id="stop4342" style="stop-color:#67674e" offset=".27384" />
            <stop id="stop4332" style="stop-color:#221c00" offset=".52558" />
            <stop id="stop4334" style="stop-color:#b3b3a6" offset=".64405" />
            <stop id="stop4344" style="stop-color:#ffffff" offset=".76270" />
            <stop id="stop4336" style="stop-color:#b3b3a6" offset="1" />
        </linearGradient>
        <linearGradient id="linearGradient4480" y2="114.39" gradientUnits="userSpaceOnUse"
            x2="39.344" gradientTransform="translate(177.71 -57.745)" y1="122.71" x1="39.344"
            inkscape:collect="always">
            <stop id="stop4192" style="stop-color:#221c00" offset="0" />
            <stop id="stop4202" style="stop-color:#67674e" offset=".16549" />
            <stop id="stop4200" style="stop-color:#b3b3a6" offset=".33098" />
            <stop id="stop4196" style="stop-color:#ffffff" offset=".62058" />
            <stop id="stop4198" style="stop-color:#67674e" offset="1" />
        </linearGradient>
        <linearGradient id="linearGradient4482" y2="119.42" gradientUnits="userSpaceOnUse"
            x2="55.029" gradientTransform="matrix(-1 0 0 1 301.93 -71.414)" y1="145.07" x1="55.029"
            inkscape:collect="always">
            <stop id="stop4330-4" style="stop-color:#221c00" offset="0" />
            <stop id="stop4342-1" style="stop-color:#67674e" offset=".27384" />
            <stop id="stop4332-9" style="stop-color:#221c00" offset=".52558" />
            <stop id="stop4334-5" style="stop-color:#b3b3a6" offset=".64405" />
            <stop id="stop4344-57" style="stop-color:#ffffff" offset=".76270" />
            <stop id="stop4336-47" style="stop-color:#b3b3a6" offset="1" />
        </linearGradient>
        <linearGradient id="linearGradient4484" y2="114.39" gradientUnits="userSpaceOnUse"
            x2="39.344" gradientTransform="translate(172.88 13.465)" y1="122.71" x1="39.344"
            inkscape:collect="always">
            <stop id="stop4192-1" style="stop-color:#221c00" offset="0" />
            <stop id="stop4202-6" style="stop-color:#67674e" offset=".16549" />
            <stop id="stop4200-0" style="stop-color:#b3b3a6" offset=".33098" />
            <stop id="stop4196-9" style="stop-color:#ffffff" offset=".62058" />
            <stop id="stop4198-5" style="stop-color:#67674e" offset="1" />
        </linearGradient>
        <linearGradient id="linearGradient4486" y2="119.42" gradientUnits="userSpaceOnUse"
            x2="55.029" gradientTransform="matrix(-1 0 0 1 297.08 -.17902)" y1="145.07" x1="55.029"
            inkscape:collect="always">
            <stop id="stop4330-9" style="stop-color:#221c00" offset="0" />
            <stop id="stop4342-0" style="stop-color:#67674e" offset=".27384" />
            <stop id="stop4332-3" style="stop-color:#221c00" offset=".52558" />
            <stop id="stop4334-03" style="stop-color:#b3b3a6" offset=".64405" />
            <stop id="stop4344-50" style="stop-color:#ffffff" offset=".76270" />
            <stop id="stop4336-7" style="stop-color:#b3b3a6" offset="1" />
        </linearGradient>
    </defs>
    <sodipodi:namedview id="namedview4" bordercolor="#666666" inkscape:pageshadow="2"
        guidetolerance="10" pagecolor="#ffffff" gridtolerance="10" inkscape:window-maximized="1"
        inkscape:zoom="0.72120692" objecttolerance="10" borderopacity="1"
        inkscape:current-layer="svg2" inkscape:cx="158.23438" inkscape:cy="501.24311"
        inkscape:window-y="-4" inkscape:window-x="-4" inkscape:window-width="1280" showgrid="false"
        inkscape:pageopacity="0" inkscape:window-height="968" />
    <g id="g4468">
        <rect id="rect4172-4" style="fill:url(#linearGradient4472)" height="8.3194" width="31.891"
            y="127.77" x="97.224" />
        <path id="rect4309-7" sodipodi:nodetypes="ccczcccczcczsaa"
            style="fill:url(#linearGradient4474)"
            d="m72.812 121.8c0.09039-0.10784 0.35808-0.22357 0.35808-0.22357l13.238-2.4177s0.70463-0.0927 1.0475-0.009c0.34285 0.0836 0.85154 0.44499 0.85154 0.44499l8.9307 6.8624-0.0074 10.519-8.9568 7.0592s-0.51562 0.3961-0.78827 0.45964c-0.27266 0.0635-1.0096-0.0858-1.0096-0.0858l-13.429-2.365s-0.23462-0.064-0.34967-0.20156c-0.11505-0.13753-0.0763-0.3344-0.0916-0.50469-0.56792-6.3219-1.2012-12.811 0.0068-19.042 0.03389-0.17481 0.08505-0.35911 0.19944-0.49558z" />
    </g>
    <g id="g4464">
        <rect id="rect4172-6" style="fill:url(#linearGradient4476)" height="8.3194" width="31.891"
            y="55.462" x="92.322" />
        <path id="rect4309" sodipodi:nodetypes="ccczcccczcczsaa"
            style="fill:url(#linearGradient4478)"
            d="m67.969 49.615c0.09039-0.10784 0.35808-0.22357 0.35808-0.22357l13.238-2.4177s0.70463-0.0927 1.0475-0.009c0.34285 0.0836 0.85154 0.44499 0.85154 0.44499l8.9307 6.8624-0.0074 10.519-8.9568 7.0592s-0.51562 0.3961-0.78827 0.45964c-0.27266 0.0635-1.0096-0.0858-1.0096-0.0858l-13.429-2.365s-0.23462-0.064-0.34967-0.20156c-0.11505-0.13753-0.0763-0.3344-0.0916-0.50469-0.56792-6.3219-1.2012-12.811 0.0068-19.042 0.03389-0.17481 0.08505-0.35911 0.19944-0.49558z" />
    </g>
    <g id="g4460">
        <rect id="rect4172" style="fill:url(#linearGradient4480)" height="8.3194" width="31.891"
            y="56.647" x="200.58" />
        <path id="rect4309-4" sodipodi:nodetypes="ccczcccczcczsaa"
            style="fill:url(#linearGradient4482)"
            d="m256.76 50.823c-0.0904-0.10784-0.35808-0.22357-0.35808-0.22357l-13.238-2.4177s-0.70463-0.0927-1.0475-0.009c-0.34285 0.0836-0.85153 0.44499-0.85153 0.44499l-8.9307 6.8624 0.007 10.519 8.9568 7.0592s0.51562 0.3961 0.78827 0.45964c0.27266 0.0635 1.0096-0.0858 1.0096-0.0858l13.429-2.365s0.23462-0.064 0.34968-0.20156c0.11505-0.13753 0.0763-0.3344 0.0916-0.50469 0.56792-6.3219 1.2012-12.811-0.007-19.042-0.0339-0.17481-0.0851-0.35911-0.19944-0.49558z" />
    </g>
    <g id="g4456">
        <rect id="rect4172-9" style="fill:url(#linearGradient4484)" height="8.3194" width="31.891"
            y="127.86" x="195.76" />
        <path id="rect4309-78" sodipodi:nodetypes="ccczcccczcczsaa"
            style="fill:url(#linearGradient4486)"
            d="m251.9 122.06c-0.0904-0.10784-0.35808-0.22357-0.35808-0.22357l-13.238-2.4177s-0.70463-0.0927-1.0475-0.009c-0.34285 0.0836-0.85153 0.44499-0.85153 0.44499l-8.9307 6.8624 0.007 10.519 8.9568 7.0592s0.51562 0.3961 0.78827 0.45964c0.27266 0.0635 1.0096-0.0858 1.0096-0.0858l13.429-2.365s0.23462-0.064 0.34967-0.20156c0.11506-0.13753 0.0763-0.3344 0.0916-0.50469 0.56792-6.3219 1.2012-12.811-0.007-19.042-0.0339-0.17481-0.085-0.35911-0.19943-0.49558z" />
    </g>
    <path id="path3594-1" sodipodi:nodetypes="ccccccccccc" style="fill:url(#linearGradient4026)"
        d="m107.46 567.69c-61.708 0.63521-104.26 55.65-70.21 130.17 5.326 11.905 11.979 23.289 15.558 35.717 0.41402 7.7463 2.0887 13.975-0.70635 21.772-7.9258 18.163-13.804 27.397-24.972 43.057-57.734 80.469-27.089 211.72 128.3 203.74 162.33 6.5423 181.63-125.81 120.86-210.49-8.2974-7.6372-14.14-21.576-21.125-34.544-2.6262-5.244-2.5231-11.408-1.035-18.04 0.40282-16.671 10.41-23.207 12.629-31.683 38.733-69.145 2.5124-142.41-69.486-139.87" />
    <path id="path3594" sodipodi:nodetypes="ccccccccccc" style="fill:#804d1f"
        d="m115.89 561.32c-61.708 0.63521-104.26 55.65-70.21 130.17 5.326 11.905 11.979 23.289 15.558 35.717 0.41402 7.7463 2.0887 13.975-0.70635 21.772-7.9258 18.163-13.804 27.397-24.972 43.057-57.734 80.469-27.089 211.72 128.3 203.74 162.33 6.5422 181.63-125.81 120.86-210.49-8.2974-7.6372-14.14-21.576-21.125-34.544-2.6262-5.244-2.5231-11.408-1.035-18.04 0.40282-16.671 10.41-23.207 12.629-31.683 38.733-69.145 2.5124-142.41-69.486-139.87" />
    <path id="path2818" sodipodi:rx="47.487793" sodipodi:ry="50.068649"
        style="stroke:#ffffff;fill:#000000" sodipodi:type="arc"
        d="m212.66 707.33a47.488 50.069 0 1 1 -94.976 0 47.488 50.069 0 1 1 94.976 0z"
        transform="matrix(.99999 -.0034906 .0034906 .99999 -6.5384 -1.0744)" sodipodi:cy="707.33069"
        sodipodi:cx="165.17493" />
    <path id="path3592-7" sodipodi:nodetypes="ccccccc" style="fill:#000000"
        d="m116.61 579.01c5.7457 8.7111 15.016 5.5246 24.788 0.64247 13.701 6.5321 26.422 5.4386 38.713 1.0034 8.0963 3.3012 16.197 7.9302 24.257 0.62868l-0.91452-15.792-86.48 0.0771-0.36346 13.441z" />
    <path id="path3592" sodipodi:nodetypes="ccccccc" style="fill:#38180e"
        d="m116.61 577.83c5.7457 8.7111 15.016 5.5246 24.788 0.64247 13.701 6.5321 26.422 5.4386 38.713 1.0034 8.0963 3.3012 16.197 7.9302 24.257 0.62868l-6.4608-372.14-71.747 0.25045-9.5495 369.61z" />
    <g id="g4432" transform="translate(8.4241 -2)">
        <path id="path3596-3" sodipodi:nodetypes="ccsccscccc" style="fill:#000000"
            d="m82.257 883.07 0.13694 31.118s10.506-2.4832 14.121-1.9797c3.615 0.50355 4.9853 4.1686 4.9853 4.1686l100.68-0.27375s1.3166-3.632 5.4441-4.1626c4.1275-0.53058 14.161 1.5132 14.161 1.5132l-0.13667-31.048-138.33 0.48288-1.0601 0.18045z" />
        <path id="path3596" sodipodi:nodetypes="ccsccscccc" style="fill:#5d2407"
            d="m82.221 882.06 0.13694 31.118s10.506-2.4832 14.121-1.9797c3.615 0.50355 4.9854 4.1686 4.9854 4.1686l100.68-0.27375s1.3166-3.632 5.4441-4.1626c4.1275-0.53058 14.161 1.5132 14.161 1.5132l-0.13667-31.048-138.33 0.48288-1.0601 0.18045z" />
    </g>
    <path id="path3600-1" sodipodi:nodetypes="cccccccccc" style="fill:#310606"
        d="m124.79 203.54c-1.596-16.461-5.2711-28.482-13.119-36.087l-4.63-145.03c1.4216-1.5255 1.4001-1.529 1.3802-1.5676 17.405 3.1345 39.506-7.9823 54.81-19.276 13.138 11.337 31.063 18.381 53.754 20.459l-7.7524 145.07c-8.3855 8.1329-12.01 21.511-12.938 36.535l-70.101 4.7104c-0.71059-1.2626-1.1195-2.9256-1.3977-4.8182z" />
    <path id="path3600" sodipodi:nodetypes="cccccccc" style="fill-opacity:.98039;fill:#6c3e0b"
        d="m126.28 201.96c-1.596-16.461-5.2711-28.482-13.119-36.087l-4.64-145.03c22.23-1.164 38.77-7.981 56.19-20.84 13.138 11.337 31.063 18.381 53.754 20.459l-7.7524 145.07c-8.3855 8.1329-12.01 21.511-12.938 36.535l-71.499-0.1078z" />
    <path id="path2883" sodipodi:nodetypes="ccccc" style="fill:url(#linearGradient4166)"
        d="m113.13 165.81c14.318-129.91 95.409-108.47 97.649-0.31138-9.6695 9.4666-12.176 24.472-12.866 36.004l-71.663-0.0753c-1.4826-12.178-3.6924-26.53-13.121-35.617z" />
    <path id="path3598" sodipodi:nodetypes="cccccc" style="fill:url(#linearGradient4163)"
        d="m126.21 208.28 0.00013-7.2264 71.73-0.0108 0.0109 7.2246-71.742 0.0125h-0.00004z" />
    <path id="path3602-8" sodipodi:nodetypes="cccc"
        style="stroke-opacity:.13725;stroke:#000000;stroke-width:1px;fill:none"
        d="m132.59 203.9c0.28962 1.3777-0.31368 2.8518-2.4583 4.4144l-11.334 691.18-0.002-0.51617" />
    <path id="path3642" sodipodi:nodetypes="ccc"
        style="stroke:url(#linearGradient3720);stroke-linecap:round;stroke-width:1px;fill:none"
        d="m128.2 245.38 69.167-0.24743" />
    <path id="path3652" sodipodi:nodetypes="cc"
        style="stroke:url(#linearGradient3722);stroke-linecap:round;stroke-width:1px;fill:none"
        d="m126.72 281.83 71.543-0.25573" />
    <path id="path3662" sodipodi:nodetypes="cc"
        style="stroke:url(#linearGradient3724);stroke-linecap:round;stroke-width:1px;fill:none"
        d="m124.79 316.14 74.315-0.2594" />
    <path id="path3672" sodipodi:nodetypes="cc"
        style="stroke:url(#linearGradient3726);stroke-linecap:round;stroke-width:1px;fill:none"
        d="m124.03 348.26 75.735-0.27037" />
    <path id="path3674" sodipodi:nodetypes="cc"
        style="stroke:url(#linearGradient3728);stroke-linecap:round;stroke-width:1px;fill:none"
        d="m123.06 378.2 77.177-0.2754" />
    <path id="path3676" sodipodi:nodetypes="cc"
        style="stroke:url(#linearGradient3730);stroke-linecap:round;stroke-width:1px;fill:none"
        d="m122.23 407.94 78.478-0.27394" />
    <path id="path3678"
        style="stroke:url(#linearGradient3732);stroke-linecap:round;stroke-width:1px;fill:none"
        d="m121.6 435.14 79.932-0.27902" />
    <path id="path3680" sodipodi:nodetypes="cc"
        style="stroke:url(#linearGradient3734);stroke-linecap:round;stroke-width:1px;fill:none"
        d="m120.78 461.05 81.209-0.28347" />
    <path id="path3682" sodipodi:nodetypes="cc"
        style="stroke:url(#linearGradient3736);stroke-linecap:round;stroke-width:1px;fill:none"
        d="m120.49 484.78 81.58-0.28476" />
    <path id="path3684" sodipodi:nodetypes="cc"
        style="stroke:url(#linearGradient3738);stroke-linecap:round;stroke-width:1px;fill:none"
        d="m119.65 507.78 82.869-0.28926" />
    <path id="path3686" sodipodi:nodetypes="cc"
        style="stroke:url(#linearGradient3740);stroke-linecap:round;stroke-width:1px;fill:none"
        d="m119.19 529.86 83.588-0.29177" />
    <path id="path3688" sodipodi:nodetypes="cc"
        style="stroke:url(#linearGradient3742);stroke-linecap:round;stroke-width:1px;fill:none"
        d="m118.53 550.12 84.494-0.29494" />
    <path id="path3850" sodipodi:nodetypes="cc" style="stroke:#abab9e;stroke-width:1px;fill:none"
        d="m135.34 137.07-2.6441 64.139" />
    <path id="path4040" sodipodi:rx="10.399235" sodipodi:ry="11.092517"
        style="fill:url(#linearGradient4088)" sodipodi:type="arc"
        d="m146.98 132.42a10.399 11.093 0 1 1 -20.798 0 10.399 11.093 0 1 1 20.798 0z"
        transform="matrix(.93333 0 0 .91406 11.269 10.671)" sodipodi:cy="132.4169"
        sodipodi:cx="136.57661" />
    <path id="path3604-5" sodipodi:nodetypes="ccc"
        style="stroke-opacity:.13725;stroke:#000000;stroke-width:1px;fill:none"
        d="m144.26 899.5 5.7354-691.19c1.8408-0.85056 2.6195-2.308 2.7464-4.138" />
    <path id="path3994" sodipodi:nodetypes="ccc" style="fill:url(#linearGradient4018)"
        d="m118.58 684.49c61.23-6.518 63.219 28.911 37.812 70.522-38.536-6.6654-49.193-44.703-37.812-70.522z" />
    <path id="path3602" sodipodi:nodetypes="ccc" style="stroke:#abab9e;stroke-width:1px;fill:none"
        d="m132.7 201.04-11.493 700.93-0.002-0.51617" />
    <path id="path3858" sodipodi:nodetypes="cc" style="stroke:#abab9e;stroke-width:1px;fill:none"
        d="m135.05 52.943 17.79 148.24" />
    <path id="path4040-14" sodipodi:rx="10.399235" sodipodi:ry="11.092517"
        style="fill:url(#linearGradient4088)" sodipodi:type="arc"
        d="m146.98 132.42a10.399 11.093 0 1 1 -20.798 0 10.399 11.093 0 1 1 20.798 0z"
        transform="matrix(.93333 0 0 .91406 6.5053 -61.284)" sodipodi:cy="132.4169"
        sodipodi:cx="136.57661" />
    <path id="path3604" sodipodi:nodetypes="cc" style="stroke:#abab9e;stroke-width:1px;fill:none"
        d="m147.01 901.88 5.82-700.84" />
    <path id="path3852" style="stroke:#abab9e;stroke-width:1px;fill:none"
        d="m189.65 127.39 2.4543 75.727" />
    <path id="path4040-1" sodipodi:rx="10.399235" sodipodi:ry="11.092517"
        style="fill:url(#linearGradient4088)" sodipodi:type="arc"
        d="m146.98 132.42a10.399 11.093 0 1 1 -20.798 0 10.399 11.093 0 1 1 20.798 0z"
        transform="matrix(.93333 0 0 .91406 58.784 10.808)" sodipodi:cy="132.4169"
        sodipodi:cx="136.57661" />
    <path id="path3856" sodipodi:nodetypes="cc" style="stroke:#abab9e;stroke-width:1px;fill:none"
        d="m172.97 201.74 16.64-150.81" />
    <path id="path4040-8" sodipodi:rx="10.399235" sodipodi:ry="11.092517"
        style="fill:url(#linearGradient4088)" sodipodi:type="arc"
        d="m146.98 132.42a10.399 11.093 0 1 1 -20.798 0 10.399 11.093 0 1 1 20.798 0z"
        transform="matrix(.93333 0 0 .91406 63.448 -60.548)" sodipodi:cy="132.4169"
        sodipodi:cx="136.57661" />
    <path id="path3606-5" sodipodi:nodetypes="ccc"
        style="stroke-opacity:.13725;stroke:#000000;stroke-width:1px;fill:none"
        d="m172.97 204.57c-0.20986 1.7593-1.2285 2.8716-2.6612 3.6526l0.34495 691.36" />
    <path id="path3606" sodipodi:nodetypes="cc" style="stroke:#abab9e;stroke-width:1px;fill:none"
        d="m172.99 201.44 0.35021 701.9" />
    <path id="path3608-3" sodipodi:nodetypes="ccc"
        style="stroke-opacity:.13725;stroke:#000000;stroke-width:1px;fill:none"
        d="m196.38 899.48-6.9822-691.08c1.8576-0.80523 2.5874-2.4161 2.7328-4.4443" />
    <path id="path3608" sodipodi:nodetypes="cc"
        style="stroke:url(#linearGradient3930);stroke-width:1px;fill:none"
        d="m199.15 903.77-7.1-702.7" />
    <path id="path3764" sodipodi:rx="4.4711089" sodipodi:ry="4.562356"
        style="fill:url(#linearGradient3772)" sodipodi:type="arc"
        d="m161.69 422.95a4.4711 4.5624 0 1 1 -8.9422 0 4.4711 4.5624 0 1 1 8.9422 0z"
        transform="matrix(.99999 -.0034906 .0034906 .99999 3.4616 -1.0954)" sodipodi:cy="422.95322"
        sodipodi:cx="157.21878" />
    <path id="path3764-5" sodipodi:rx="4.4711089" sodipodi:ry="4.562356"
        style="fill:url(#linearGradient3791)" sodipodi:type="arc"
        d="m161.69 422.95a4.4711 4.5624 0 1 1 -8.9422 0 4.4711 4.5624 0 1 1 8.9422 0z"
        transform="matrix(.99999 -.0034906 .0034906 .99999 3.814 73.726)" sodipodi:cy="422.95322"
        sodipodi:cx="157.21878" />
    <path id="path3764-2" sodipodi:rx="4.4711089" sodipodi:ry="4.562356"
        style="fill:url(#linearGradient3791)" sodipodi:type="arc"
        d="m161.69 422.95a4.4711 4.5624 0 1 1 -8.9422 0 4.4711 4.5624 0 1 1 8.9422 0z"
        transform="matrix(.99999 -.0034906 .0034906 .99999 3.714 -59.495)" sodipodi:cy="422.95322"
        sodipodi:cx="157.21878" />
    <path id="path3764-8" sodipodi:rx="4.4711089" sodipodi:ry="4.562356"
        style="fill:url(#linearGradient3772)" sodipodi:type="arc"
        d="m161.69 422.95a4.4711 4.5624 0 1 1 -8.9422 0 4.4711 4.5624 0 1 1 8.9422 0z"
        transform="matrix(.99999 -.0034906 .0034906 .99999 4.2229 -122.82)" sodipodi:cy="422.95322"
        sodipodi:cx="157.21878" />
    <path id="rect2891" sodipodi:nodetypes="ccccc" style="fill:url(#linearGradient3672)"
        d="m114.89 899.53h90.154c1.7231 2.4613 1.7868 4.9225 0 7.3838h-90.154c-2.0005-2.6835-1.494-5.0885 0-7.3838z" />
    <metadata>
        <rdf:RDF>
            <cc:Work>
                <dc:format>image/svg+xml
                </dc:format>
                <dc:type rdf:resource="http://purl.org/dc/dcmitype/StillImage" />
                <cc:license rdf:resource="http://creativecommons.org/licenses/publicdomain/" />
                <dc:publisher>
                    <cc:Agent rdf:about="http://openclipart.org/">
                        <dc:title>Openclipart
                        </dc:title>
                    </cc:Agent>
                </dc:publisher>
                <dc:title>Ukulele
                </dc:title>
                <dc:date>2010-06-11T20:06:29
                </dc:date>
                <dc:description />
                <dc:source>https://openclipart.org/detail/65887/ukulele-by-deluge
                </dc:source>
                <dc:creator>
                    <cc:Agent>
                        <dc:title>Deluge
                        </dc:title>
                    </cc:Agent>
                </dc:creator>
                <dc:subject>
                    <rdf:Bag>
                        <rdf:li>hawaii
                        </rdf:li>
                        <rdf:li>hawaiian
                        </rdf:li>
                        <rdf:li>instrument
                        </rdf:li>
                        <rdf:li>music
                        </rdf:li>
                        <rdf:li>musical
                        </rdf:li>
                        <rdf:li>pluck
                        </rdf:li>
                        <rdf:li>string
                        </rdf:li>
                        <rdf:li>ukulele
                        </rdf:li>
                    </rdf:Bag>
                </dc:subject>
            </cc:Work>
            <cc:License rdf:about="http://creativecommons.org/licenses/publicdomain/">
                <cc:permits rdf:resource="http://creativecommons.org/ns#Reproduction" />
                <cc:permits rdf:resource="http://creativecommons.org/ns#Distribution" />
                <cc:permits rdf:resource="http://creativecommons.org/ns#DerivativeWorks" />
            </cc:License>
        </rdf:RDF>
    </metadata>
</svg>
