<?xml version="1.0" encoding="UTF-8" standalone="no"?>
<!--suppress ALL -->
<svg xmlns:dc="http://purl.org/dc/elements/1.1/" xmlns:cc="http://creativecommons.org/ns#"
    xmlns:rdf="http://www.w3.org/1999/02/22-rdf-syntax-ns#" xmlns="http://www.w3.org/2000/svg"
    xmlns:sodipodi="http://sodipodi.sourceforge.net/DTD/sodipodi-0.dtd"
    xmlns:inkscape="http://www.inkscape.org/namespaces/inkscape" viewBox="0 0 314.04462 867.68243"
    id="svg4126" version="1.1" inkscape:version="0.91 r13725" sodipodi:docname="ambient_hand.svg">
    <defs id="defs4148" />
    <sodipodi:namedview pagecolor="#ffffff" bordercolor="#666666" borderopacity="1"
        objecttolerance="10" gridtolerance="10" guidetolerance="10" inkscape:pageopacity="0"
        inkscape:pageshadow="2" inkscape:window-width="640" inkscape:window-height="480"
        id="namedview4146" showgrid="false" fit-margin-top="0" fit-margin-left="0"
        fit-margin-right="0" fit-margin-bottom="0" inkscape:zoom="0.55561862"
        inkscape:cx="13.037506" inkscape:cy="1821.9031" inkscape:window-x="0" inkscape:window-y="0"
        inkscape:window-maximized="0" inkscape:current-layer="svg4126" />
    <title id="title4128">Ukulele</title>
    <metadata id="metadata8">image/svg+xmlUkuleleJordan
        Irwinmusicinstrumentpluckstringhawaiihawaiian
        <rdf:RDF>
            <cc:Work rdf:about="">
                <dc:format>image/svg+xml</dc:format>
                <dc:type rdf:resource="http://purl.org/dc/dcmitype/StillImage" />
                <dc:title>Ukulele</dc:title>
            </cc:Work>
        </rdf:RDF>
    </metadata>
    <g id="g4131" transform="translate(-1.2132128,-94.434952)">
        <title id="title4133">Layer 1</title>
        <!-- body -->
        <path id="path3594"
            d="m 110.76839,527.31824 c -45.910098,4.63519 -100.168925,54.65039 -71.577495,130.16626 28.591431,75.51587 12.212219,23.2893 15.86134,35.71661 0.422085,7.74634 2.129414,13.97546 -0.720108,21.7724 -8.080154,18.16278 -14.072727,27.39667 -25.458904,43.05743 -58.858009,80.46869 -27.616241,211.71637 130.801797,203.73902 165.4917,6.54223 185.168,-125.80628 123.21725,-210.49396 -8.45901,-7.63727 -14.41574,-21.57556 -21.53613,-34.54394 -2.67734,-5.2439 -2.57227,-11.40827 -1.05518,-18.03962 0.41065,-16.67151 -21.5146,44.46253 12.87497,-31.68292 34.38959,-76.14545 -24.43863,-137.40686 -70.83937,-139.87048"
            inkscape:connector-curvature="0" style="fill:black; stroke:white; stroke-width:4" />
        <!-- hole -->
        <path
            d="m 204.00865,652.78332 a 43.987813,46.378455 0 1 1 -87.97514,0.30707 43.987813,46.378455 0 1 1 87.97514,-0.30707 z"
            id="path2818" inkscape:connector-curvature="0"
            style="fill:grey;fill-rule:nonzero;stroke:white;stroke-width:2" />
        <!-- neck -->
        <path id="path3592"
            d="m 121.85661,600.74847 c 4.76363,7.71833 12.44899,4.89502 20.55075,0.56928 11.35932,5.7876 21.90589,4.81872 32.09636,0.88904 6.71251,2.92492 13.4288,7.0263 20.11057,0.557 l -5.35648,-329.72543 -59.48398,0.22189 -7.91722,327.48822 z"
            inkscape:connector-curvature="0" style="fill:black; stroke:white; stroke-width:4" />
        <!-- bridge -->
        <g id="g4432">
            <path
                d="m 97.410172,847.81543 0.119431,26.35278 c 0,0 9.161537,-2.1029 12.313977,-1.67645 3.15244,0.42639 4.34747,3.53021 4.34747,3.53021 l 87.79917,-0.23181 c 0,0 1.14813,-3.07581 4.74756,-3.52515 3.59942,-0.44928 12.34932,1.2815 12.34932,1.2815 l -0.1192,-26.29279 -120.633297,0.40894 -0.924431,0.15277 z"
                id="path3596-3" inkscape:connector-curvature="0" style="fill:white" />
            <path
                d="m 97.379311,846.96118 0.119415,26.35279 c 0,0 9.161544,-2.10297 12.313984,-1.67646 3.15244,0.42639 4.34747,3.53021 4.34747,3.53021 l 87.79917,-0.23181 c 0,0 1.14813,-3.0758 4.74756,-3.52514 3.59941,-0.44928 12.34929,1.28149 12.34929,1.28149 l -0.11917,-26.29279 -120.633311,0.40894 -0.924408,0.15277 z"
                id="path3596" inkscape:connector-curvature="0" style="fill:white" />
        </g>
        <!-- headstock -->
        <path id="path3600-1"
            d="m 128.91663,264.09299 c -1.34304,-13.82853 -4.43556,-23.92632 -11.03974,-30.31508 L 113.9761,111.9445 c 1.19623,-1.28153 1.17812,-1.2845 1.1614,-1.31688 14.64631,2.63319 33.24313,-6.70561 46.12158,-16.192668 11.0554,9.523458 26.13853,15.441548 45.23251,17.187138 l -6.52345,121.86973 c -7.05625,6.83215 -10.1062,18.07027 -10.88692,30.69174 l -58.98846,3.957 c -0.59795,-1.0606 -0.94206,-2.45767 -1.17613,-4.04757 z"
            inkscape:connector-curvature="0" style="fill:white; stroke:black" />
        <!-- heads -->
        <path
            d="m 149.4465,199.70866 a 9.705948,10.139255 0 1 1 -19.41189,0 9.705948,10.139255 0 1 1 19.41189,0 z"
            id="path4040" inkscape:connector-curvature="0" style="fill:black" />
        <path
            d="m 148.68271,132.75346 a 9.70595,10.139257 0 1 1 -19.4119,0 9.70595,10.139257 0 1 1 19.4119,0 z"
            id="path4040-14" inkscape:connector-curvature="0" style="fill:black" />
        <path
            d="m 190.96181,199.84546 a 9.70595,10.139257 0 1 1 -19.4119,0 9.70595,10.139257 0 1 1 19.4119,0 z"
            id="path4040-1" inkscape:connector-curvature="0" style="fill:black" />
        <path
            d="m 190.6253,133.48877 a 9.705948,10.139255 0 1 1 -19.41189,0 9.70595,10.139257 0 1 1 19.4119,0 z"
            id="path4040-8" inkscape:connector-curvature="0" style="fill:black" />
    </g>
</svg>
